<svg height="512" viewBox="0 0 256 256" width="512" xmlns="http://www.w3.org/2000/svg"><g id="Layer_1"><g><path d="m96 32.086h32v48h-32z" fill="#fc5d3d"/><path d="m248 213.086v22c0 2.761-2.239 5-5 5h-179v-11c0-2.761-2.239-5-5-5h-27v-27c0-2.761-2.239-5-5-5h-11v-179c0-2.761 2.239-5 5-5h22c2.761 0 5 2.239 5 5v195h195c2.761 0 5 2.239 5 5z" fill="#72c2e9"/><path d="m240 234.586h-5c-1.381 0-2.5-1.119-2.5-2.5s1.119-2.5 2.5-2.5h5c1.381 0 2.5 1.119 2.5 2.5s-1.119 2.5-2.5 2.5zm-15 0h-161c-1.381 0-2.5-1.119-2.5-2.5s1.119-2.5 2.5-2.5h161c1.381 0 2.5 1.119 2.5 2.5s-1.119 2.5-2.5 2.5z" fill="#c5e5fe"/><path d="m24 194.586c-1.381 0-2.5-1.119-2.5-2.5v-176c0-1.381 1.119-2.5 2.5-2.5s2.5 1.119 2.5 2.5v176c0 1.381-1.119 2.5-2.5 2.5z" fill="#c5e5fe"/><path d="m64 229.086v14c0 2.761-2.239 5-5 5h-46c-2.761 0-5-2.239-5-5v-46c0-2.761 2.239-5 5-5h14c2.761 0 5 2.239 5 5v27h27c2.761 0 5 2.239 5 5z" fill="#afafaf"/><path d="m56 242.586h-4c-1.381 0-2.5-1.119-2.5-2.5s1.119-2.5 2.5-2.5h4c1.381 0 2.5 1.119 2.5 2.5s-1.119 2.5-2.5 2.5zm-14 0h-26c-1.381 0-2.5-1.119-2.5-2.5v-40c0-1.381 1.119-2.5 2.5-2.5s2.5 1.119 2.5 2.5v37.5h23.5c1.381 0 2.5 1.119 2.5 2.5s-1.119 2.5-2.5 2.5z" fill="#efefef"/><path d="m224 32.086v64h-80v80h-48v-96h32v-48z" fill="#f0c020"/><path d="m144 96.086h80v48h-80z" fill="#fc5d3d"/><path d="m184 32.086h40v48h-40z" fill="#72c2e9"/><path d="m160 160.086h56v16h-56z" fill="#13bf6d"/><g><circle cx="16" cy="132.656" r="2.5"/><path d="m243 205.586h-192.5v-192.5c0-4.13-3.37-7.5-7.5-7.5h-22c-4.13 0-7.5 3.37-7.5 7.5v109.57c0 1.38 1.12 2.5 2.5 2.5s2.5-1.12 2.5-2.5v-.01-109.56c0-1.38 1.12-2.5 2.5-2.5h22c1.37 0 2.5 1.12 2.5 2.5v16.5h-5.5c-1.38 0-2.5 1.12-2.5 2.5s1.12 2.5 2.5 2.5h5.5v27h-5.5c-1.38 0-2.5 1.12-2.5 2.5s1.12 2.5 2.5 2.5h5.5v27h-5.5c-1.38 0-2.5 1.12-2.5 2.5s1.12 2.5 2.5 2.5h5.5v27h-5.5c-1.38 0-2.5 1.12-2.5 2.5s1.12 2.5 2.5 2.5h5.5v27h-5.5c-1.38 0-2.5 1.12-2.5 2.5s1.12 2.5 2.5 2.5h5.5v27h-5.5c-1.38 0-2.5 1.12-2.5 2.5s1.12 2.5 2.5 2.5h5.5v13.5c0 1.366 1.111 2.5 2.5 2.5h13.5v5.5c0 1.38 1.12 2.5 2.5 2.5s2.5-1.12 2.5-2.5v-5.5h27v5.5c0 1.38 1.12 2.5 2.5 2.5s2.5-1.12 2.5-2.5v-5.5h27v5.5c0 1.38 1.12 2.5 2.5 2.5s2.5-1.12 2.5-2.5v-5.5h27v5.5c0 1.38 1.12 2.5 2.5 2.5s2.5-1.12 2.5-2.5v-5.5h27v5.5c0 1.38 1.12 2.5 2.5 2.5s2.5-1.12 2.5-2.5v-5.5h27v5.5c0 1.38 1.12 2.5 2.5 2.5s2.5-1.12 2.5-2.5v-5.5h16.5c1.38 0 2.5 1.12 2.5 2.5v22c0 1.38-1.12 2.5-2.5 2.5h-176.5v-8.5c0-4.136-3.364-7.5-7.5-7.5h-24.5v-24.5c0-4.136-3.364-7.5-7.5-7.5h-8.5v-46.93c0-1.38-1.12-2.5-2.5-2.5s-2.5 1.12-2.5 2.5v46.93h-.5c-4.136 0-7.5 3.364-7.5 7.5v46c0 4.136 3.364 7.5 7.5 7.5h46c4.136 0 7.5-3.364 7.5-7.5v-.5h176.5c4.14 0 7.5-3.37 7.5-7.5v-22c0-4.13-3.36-7.5-7.5-7.5zm-181.5 34.5v3c0 1.378-1.122 2.5-2.5 2.5h-46c-1.378 0-2.5-1.122-2.5-2.5v-46c0-1.378 1.122-2.5 2.5-2.5h3 11c1.378 0 2.5 1.122 2.5 2.5v27c0 1.362 1.143 2.5 2.5 2.5h27c1.37 0 2.5 1.12 2.5 2.5z"/><path d="m80 34.586c1.381 0 2.5-1.119 2.5-2.5v-13.5h13.17c1.381 0 2.5-1.119 2.5-2.5s-1.119-2.5-2.5-2.5h-15.67c-1.381 0-2.5 1.119-2.5 2.5v16c0 1.381 1.119 2.5 2.5 2.5z"/><path d="m80 194.586h15.67c1.381 0 2.5-1.119 2.5-2.5s-1.119-2.5-2.5-2.5h-13.17v-13.5c0-1.381-1.119-2.5-2.5-2.5s-2.5 1.119-2.5 2.5v16c0 1.381 1.119 2.5 2.5 2.5z"/><path d="m224 18.586h13.5v13.5c0 1.381 1.119 2.5 2.5 2.5s2.5-1.119 2.5-2.5v-16c0-1.381-1.119-2.5-2.5-2.5h-16c-1.381 0-2.5 1.119-2.5 2.5s1.119 2.5 2.5 2.5z"/><path d="m224 194.586h16c1.381 0 2.5-1.119 2.5-2.5v-16c0-1.381-1.119-2.5-2.5-2.5s-2.5 1.119-2.5 2.5v13.5h-13.5c-1.381 0-2.5 1.119-2.5 2.5s1.119 2.5 2.5 2.5z"/><circle cx="144" cy="124.086" r="2.5"/><path d="m226.5 144.086c0-3.33 0-109.127 0-112 0-1.39-1.134-2.5-2.5-2.5-59.531 0-67.976 0-128 0-1.367 0-2.5 1.111-2.5 2.5v144c0 1.366 1.111 2.5 2.5 2.5h48c1.382 0 2.5-1.117 2.5-2.5v-29.5h77.5c1.385 0 2.5-1.111 2.5-2.5zm-128-109.5h27v12.12h-13.5c-1.376 0-2.5 1.119-2.5 2.5 0 9.35 6.981 17.084 16 18.311v10.069h-27zm27 17.12v10.76c-5.43-1.02-9.74-5.33-10.77-10.76zm0 121.63h-10.51c1.01-5.28 5.23-9.49 10.51-10.51zm96-79.75c-14.898 0-62.327 0-77.5 0-1.367 0-2.5 1.111-2.5 2.5v18c0 1.38 1.12 2.5 2.5 2.5s2.5-1.12 2.5-2.5v-15.5h27v13.5c0 1.366 1.111 2.5 2.5 2.5 9.35 0 17.083-6.981 18.311-16h27.189v43h-75v-7.5c0-1.38-1.12-2.5-2.5-2.5-1.37 0-2.49 1.11-2.5 2.48v.02 39.5h-11v-13.5c0-1.39-1.134-2.5-2.5-2.5-9.297 0-16.981 6.999-18.096 16h-11.404v-91h29.5c1.385 0 2.5-1.111 2.5-2.5 0-15.982 0-28.549 0-45.5h51v45.5c0 1.366 1.111 2.5 2.5 2.5h37.5zm-32.23 5c-1.03 5.43-5.34 9.74-10.77 10.77v-10.77zm32.23-21h-35v-11h35zm0-16h-35v-11h35zm0-16h-35v-11h35z"/><path d="m160 157.586c-1.381 0-2.5 1.119-2.5 2.5v16c0 1.381 1.119 2.5 2.5 2.5h56c1.381 0 2.5-1.119 2.5-2.5v-16c0-1.381-1.119-2.5-2.5-2.5zm53.5 16h-51v-11h51z"/></g></g></g></svg>