<svg id="Capa_1" enable-background="new 0 0 512 512" height="512" viewBox="0 0 512 512" width="512" xmlns="http://www.w3.org/2000/svg"><g><g><path d="m396.5 284.614c0-15.24-12.135-28.046-27.375-28.113-3.528-.016-6.902.633-10.005 1.829-2.442.941-5.192-.235-6.329-2.593-6.057-12.565-18.909-21.237-33.791-21.237-6.637 0-12.869 1.726-18.277 4.752-2.334 1.306-5.29.553-6.681-1.731-6.58-10.804-18.466-18.021-32.042-18.021-8.638 0-16.588 2.926-22.926 7.835-1.815 1.406-4.332 1.406-6.147 0-6.338-4.909-14.289-7.835-22.926-7.835-13.576 0-25.462 7.217-32.042 18.021-1.391 2.284-4.347 3.037-6.681 1.731-5.407-3.026-11.64-4.752-18.277-4.752-14.882 0-27.734 8.672-33.791 21.236-1.137 2.358-3.886 3.534-6.329 2.593-3.103-1.195-6.477-1.844-10.005-1.829-15.24.068-27.375 12.873-27.375 28.113v6.886l158.499 18.501 162.5-18.5z" fill="#d3effb"/><path d="m292.09 234.63c-1.02-.09-2.05-.13-3.09-.13-3.32 0-6.54.43-9.6 1.24s-5.98 2-8.68 3.51c-2.33 1.31-5.29.56-6.68-1.73-3.99-6.56-9.94-11.79-17.04-14.89.87-.39 1.76-.74 2.67-1.05 3.86-1.35 8.01-2.08 12.33-2.08 12.33 0 23.26 5.95 30.09 15.13z" fill="#b1e4f9"/><path d="m396.5 284.61v6.89h-30v-6.89c0-15.24-12.13-28.04-27.38-28.11-3.52-.02-6.9.63-10 1.83-2.44.94-5.19-.24-6.33-2.59-3.89-8.07-10.57-14.53-18.8-18.11 1.74-.76 3.55-1.4 5.41-1.89 3.06-.81 6.28-1.24 9.6-1.24 14.88 0 27.73 8.67 33.79 21.24 1.14 2.35 3.89 3.53 6.33 2.59 3.1-1.2 6.48-1.85 10-1.83 15.25.07 27.38 12.87 27.38 28.11z" fill="#b1e4f9"/><path d="m175.5 436v28.5c0 22.091-17.909 40-40 40h-12c-8.284 0-15-6.716-15-15 0-8.284 6.716-15 15-15h7c8.284 0 15-6.716 15-15v-23.5z" fill="#fcaa72"/><path d="m175.5 436v28.5c0 22.09-17.91 40-40 40h-12c-2.43 0-4.72-.58-6.75-1.61 16.61-4.86 28.75-20.21 28.75-38.39v-28.5z" fill="#ea9357"/><path d="m366.5 436v23.5c0 8.284 6.716 15 15 15h7c8.284 0 15 6.716 15 15 0 8.284-6.716 15-15 15h-12c-22.091 0-40-17.909-40-40v-28.5z" fill="#fcaa72"/><path d="m403.5 489.5c0 4.14-1.68 7.89-4.4 10.6-2.71 2.72-6.46 4.4-10.6 4.4h-12c-3.91 0-7.68-.56-11.25-1.61 1.43-.72 2.73-1.67 3.85-2.79 2.72-2.71 4.4-6.46 4.4-10.6 0-8.28-6.72-15-15-15h-7c-8.28 0-15-6.72-15-15v-15h30v15c0 8.28 6.72 15 15 15h7c8.28 0 15 6.72 15 15z" fill="#ea9357"/><path d="m344.5 63.5v34h30v-34c0-14.359 11.641-26 26-26 14.359 0 26 11.641 26 26v238h30v-238c0-30.928-25.072-56-56-56-30.928 0-56 25.072-56 56z" fill="#f0e5e0"/><path d="m456.5 63.5v238h-30v-238c0-25.73-17.35-47.41-41-53.97 4.77-1.32 9.8-2.03 15-2.03 30.93 0 56 25.07 56 56z" fill="#e2d6d1"/><path d="m376.5 444.5h-241c-44.183 0-80-35.817-80-80v-48h401v48c0 44.183-35.817 80-80 80z" fill="#b2a6f4"/><path d="m456.5 326.5v38c0 44.18-35.82 80-80 80h-30c6.91 0 13.61-.88 20-2.52 34.5-8.88 60-40.21 60-77.48v-38z" fill="#8686d1"/><path d="m456.5 326.5h-401c-8.284 0-15-6.716-15-15v-5c0-8.284 6.716-15 15-15h401c8.284 0 15 6.716 15 15v5c0 8.284-6.716 15-15 15z" fill="#8686d1"/><path d="m471.5 306.5v5c0 8.28-6.72 15-15 15h-30c6.53 0 12.09-4.18 14.14-10 .56-1.57.86-3.25.86-5v-5c0-8.28-6.72-15-15-15h30c8.28 0 15 6.72 15 15z" fill="#6f6fce"/><path d="m391.5 117.5h-65c-2.761 0-5-2.239-5-5v-5c0-11.046 8.954-20 20-20h35c11.046 0 20 8.954 20 20v5c0 2.761-2.239 5-5 5z" fill="#6f6571"/><path d="m396.5 107.5v5c0 2.76-2.24 5-5 5h-30c2.76 0 5-2.24 5-5v-5c0-3.64-.98-7.06-2.69-10-3.45-5.98-9.91-10-17.31-10h30c11.05 0 20 8.95 20 20z" fill="#5d5360"/><g fill="#b1e4f9"><path d="m236 185.5c-8.284 0-15-6.716-15-15 0-8.284 6.716-15 15-15 8.284 0 15 6.716 15 15 0 8.284-6.716 15-15 15z"/><path d="m146 208.5c-8.284 0-15-6.716-15-15 0-8.284 6.716-15 15-15 8.284 0 15 6.716 15 15 0 8.284-6.716 15-15 15z"/><path d="m326 208.5c8.284 0 15-6.716 15-15 0-8.284-6.716-15-15-15-8.284 0-15 6.716-15 15 0 8.284 6.716 15 15 15z"/></g><path d="m175.5 391.5h-45c-5.523 0-10-4.477-10-10v-90h65v90c0 5.523-4.477 10-10 10z" fill="#fff"/><path d="m185.5 291.5v90c0 5.52-4.48 10-10 10h-30c5.52 0 10-4.48 10-10v-90z" fill="#faf2f3"/></g><g><path d="m464 285.29v-221.79c0-35.014-28.486-63.5-63.5-63.5s-63.5 28.486-63.5 63.5v16.874c-13.029 2.155-23 13.495-23 27.126v5c0 6.893 5.607 12.5 12.5 12.5h65c6.893 0 12.5-5.607 12.5-12.5v-5c0-13.28-9.463-24.391-22-26.947v-17.053c0-10.201 8.299-18.5 18.5-18.5s18.5 8.299 18.5 18.5v157.5c0 4.142 3.357 7.5 7.5 7.5s7.5-3.358 7.5-7.5v-157.5c0-18.472-15.028-33.5-33.5-33.5s-33.5 15.028-33.5 33.5v16.5h-15v-16.5c0-26.743 21.757-48.5 48.5-48.5s48.5 21.757 48.5 48.5v220.5h-15v-28c0-4.142-3.357-7.5-7.5-7.5s-7.5 3.358-7.5 7.5v28h-15.015c-.324-19.271-15.817-34.915-34.825-35-3.62-.009-7.169.515-10.584 1.581-7.813-14.393-23.118-23.581-39.576-23.581-6.89 0-13.703 1.588-19.849 4.609-8.405-12.323-22.122-19.609-37.151-19.609-9.424 0-18.372 2.855-26 8.277-7.627-5.422-16.575-8.277-26-8.277-15.029 0-28.747 7.287-37.151 19.609-6.146-3.021-12.959-4.609-19.849-4.609-16.458 0-31.763 9.189-39.575 23.581-3.415-1.066-6.97-1.564-10.583-1.581-19.01.084-34.502 15.729-34.826 35h-12.516c-12.406 0-22.5 10.093-22.5 22.5v5c0 9.777 6.271 18.114 15 21.21v31.79c0 48.248 39.252 87.5 87.5 87.5h2.5v7.5c0 4.136-3.364 7.5-7.5 7.5h-7c-12.406 0-22.5 10.093-22.5 22.5s10.094 22.5 22.5 22.5h12c26.191 0 47.5-21.309 47.5-47.5v-12.5h22c4.143 0 7.5-3.358 7.5-7.5s-3.357-7.5-7.5-7.5h-69.5c-39.977 0-72.5-32.523-72.5-72.5v-30.5h50v47.5c0 9.649 7.851 17.5 17.5 17.5h45c9.649 0 17.5-7.851 17.5-17.5v-47.5h256v30.5c0 39.977-32.523 72.5-72.5 72.5h-136.5c-4.143 0-7.5 3.358-7.5 7.5s3.357 7.5 7.5 7.5h89v12.5c0 26.191 21.309 47.5 47.5 47.5h12c12.406 0 22.5-10.093 22.5-22.5s-10.094-22.5-22.5-22.5h-7c-4.136 0-7.5-3.364-7.5-7.5v-7.5h2.5c48.248 0 87.5-39.252 87.5-87.5v-31.79c8.729-3.096 15-11.432 15-21.21v-5c0-9.777-6.271-18.114-15-21.21zm-75-177.79v2.5h-60v-2.5c0-6.893 5.607-12.5 12.5-12.5h35c6.893 0 12.5 5.607 12.5 12.5zm-221 357c0 17.92-14.579 32.5-32.5 32.5h-12c-4.136 0-7.5-3.364-7.5-7.5s3.364-7.5 7.5-7.5h7c12.406 0 22.5-10.093 22.5-22.5v-7.5h15zm213.5 17.5h7c4.136 0 7.5 3.364 7.5 7.5s-3.364 7.5-7.5 7.5h-12c-17.921 0-32.5-14.58-32.5-32.5v-12.5h15v7.5c0 12.407 10.094 22.5 22.5 22.5zm-278.591-218h.095c2.478 0 4.894.447 7.18 1.328 6.018 2.317 12.95-.464 15.781-6.335 4.976-10.323 15.588-16.993 27.035-16.993 5.122 0 10.175 1.313 14.615 3.797 5.889 3.294 13.247 1.373 16.748-4.375 5.5-9.03 15.084-14.422 25.637-14.422 6.702 0 13.043 2.166 18.333 6.263 4.517 3.499 10.821 3.497 15.332.001 5.292-4.098 11.633-6.264 18.335-6.264 10.553 0 20.137 5.392 25.637 14.423 3.502 5.748 10.861 7.671 16.749 4.374 4.439-2.484 9.492-3.797 14.614-3.797 11.447 0 22.059 6.67 27.035 16.993 2.83 5.872 9.763 8.651 15.781 6.335 2.287-.881 4.702-1.328 7.181-1.328h.095c10.777.047 19.559 8.966 19.878 20h-305.94c.319-11.034 9.102-19.952 19.879-20zm-47.409 55c-4.136 0-7.5-3.364-7.5-7.5v-5c0-4.136 3.364-7.5 7.5-7.5h57.5v20zm120 65h-45c-1.379 0-2.5-1.122-2.5-2.5v-82.5h50v82.5c0 1.378-1.121 2.5-2.5 2.5zm288.5-72.5c0 4.136-3.364 7.5-7.5 7.5h-263.5v-20h263.5c4.136 0 7.5 3.364 7.5 7.5z"/><path d="m236 193c12.406 0 22.5-10.093 22.5-22.5s-10.094-22.5-22.5-22.5-22.5 10.093-22.5 22.5 10.094 22.5 22.5 22.5zm0-30c4.136 0 7.5 3.364 7.5 7.5s-3.364 7.5-7.5 7.5-7.5-3.364-7.5-7.5 3.364-7.5 7.5-7.5z"/><path d="m146 216c12.406 0 22.5-10.093 22.5-22.5s-10.094-22.5-22.5-22.5-22.5 10.093-22.5 22.5 10.094 22.5 22.5 22.5zm0-30c4.136 0 7.5 3.364 7.5 7.5s-3.364 7.5-7.5 7.5-7.5-3.364-7.5-7.5 3.364-7.5 7.5-7.5z"/><path d="m326 216c12.406 0 22.5-10.093 22.5-22.5s-10.094-22.5-22.5-22.5-22.5 10.093-22.5 22.5 10.094 22.5 22.5 22.5zm0-30c4.136 0 7.5 3.364 7.5 7.5s-3.364 7.5-7.5 7.5-7.5-3.364-7.5-7.5 3.364-7.5 7.5-7.5z"/></g></g></svg>