<?xml version="1.0" encoding="utf-8"?>
<!-- Generator: Adobe Illustrator 24.3.0, SVG Export Plug-In . SVG Version: 6.00 Build 0)  -->
<svg version="1.1" id="Capa_1" xmlns="http://www.w3.org/2000/svg" xmlns:xlink="http://www.w3.org/1999/xlink" x="0px" y="0px"
	 viewBox="0 0 512 512" style="enable-background:new 0 0 512 512;" xml:space="preserve">
<style type="text/css">
	.st0{fill:#09E5D0;}
	.st1{fill:#05ABAF;}
	.st2{fill:#71F6FC;}
	.st3{fill:#685C79;}
	.st4{fill:#594F69;}
	.st5{fill:#B6D7FF;}
	.st6{fill:#FF2C5C;}
	.st7{fill:#D2E4FF;}
	.st8{fill:#E62753;}
	.st9{fill:#E2F8CC;}
</style>
<g>
	<path class="st0" d="M450.8,355.6H61.2c-1.8,0-3.2-1.4-3.2-3.2V87.9c0-1.8,1.4-3.2,3.2-3.2h389.7c1.8,0,3.2,1.4,3.2,3.2v264.6
		C454,354.2,452.6,355.6,450.8,355.6z"/>
	<rect x="58" y="307.8" class="st1" width="396" height="23.9"/>
	<path class="st2" d="M453.2,355.6h-22.3c-0.4,0-0.8-0.4-0.8-0.8V85.5c0-0.4,0.4-0.8,0.8-0.8h22.3c0.4,0,0.8,0.4,0.8,0.8v269.4
		C454,355.3,453.7,355.6,453.2,355.6z"/>
	<path class="st1" d="M453.2,355.6h-22.3c-0.4,0-0.8-0.4-0.8-0.8V85.5c0-0.4,0.4-0.8,0.8-0.8h22.3c0.4,0,0.8,0.4,0.8,0.8v269.4
		C454,355.3,453.7,355.6,453.2,355.6z"/>
	<path class="st0" d="M454,307.8v47c0,0.4-0.4,0.8-0.8,0.8h-22.3c-0.4,0-0.8-0.4-0.8-0.8v-47H454z"/>
	<path class="st3" d="M58,352.4v-20.7h396v20.7c0,1.8-1.4,3.2-3.2,3.2H61.2C59.4,355.6,58,354.2,58,352.4z"/>
	<path class="st4" d="M430.1,331.7v20.7c0,1.8-1.4,3.2-3.2,3.2h23.9c1.8,0,3.2-1.4,3.2-3.2v-20.7H430.1z"/>
	<g>
		<path class="st4" d="M121.3,389.1L121.3,389.1c-6.6,0-12-5.4-12-12v-21.5h23.9v21.5C133.3,383.7,127.9,389.1,121.3,389.1z"/>
		<path class="st4" d="M390.7,389.1L390.7,389.1c-6.6,0-12-5.4-12-12v-21.5h23.9v21.5C402.6,383.7,397.3,389.1,390.7,389.1z"/>
	</g>
	<path class="st5" d="M297.4,427.3h-82.9c-3.5,0-6.4-2.9-6.4-6.4V266.4c0-3.5,2.9-6.4,6.4-6.4h82.9c3.5,0,6.4,2.9,6.4,6.4V421
		C303.8,424.5,301,427.3,297.4,427.3z"/>
	<rect x="208.2" y="320.5" class="st6" width="95.6" height="71.7"/>
	<g>
		<path class="st7" d="M303.8,266.4V421c0,3.5-2.9,6.4-6.4,6.4h-23.9c3.5,0,6.4-2.9,6.4-6.4V266.4c0-3.5-2.9-6.4-6.4-6.4h23.9
			C301,260,303.8,262.8,303.8,266.4z"/>
	</g>
	<rect x="279.9" y="320.5" class="st8" width="23.9" height="71.7"/>
	<path class="st6" d="M157.2,190.7h-55.8c-4.4,0-8-3.6-8-8v-55.8c0-4.4,3.6-8,8-8h55.8c4.4,0,8,3.6,8,8v55.8
		C165.2,187.1,161.6,190.7,157.2,190.7z"/>
	<path class="st9" d="M410.6,190.7H201.7c-4.4,0-8-3.6-8-8v-55.8c0-4.4,3.6-8,8-8h208.9c4.4,0,8,3.6,8,8v55.8
		C418.6,187.1,415,190.7,410.6,190.7z"/>
	<circle class="st6" cx="237.7" cy="290.3" r="12"/>
	<g>
		<path d="M450.8,78.7H61.2c-5.1,0-9.2,4.1-9.2,9.2v14.9c0,3.3,2.7,6,6,6s6-2.7,6-6V90.6H448v235.1H309.8v-59.4
			c0-6.8-5.5-12.4-12.4-12.4h-82.9c-6.8,0-12.4,5.5-12.4,12.4v59.4H64V128.5c0-3.3-2.7-6-6-6s-6,2.7-6,6v223.9
			c0,5.1,4.1,9.2,9.2,9.2h42.2v15.5c0,9.9,8,17.9,17.9,17.9s17.9-8,17.9-17.9v-15.5h63V421c0,6.8,5.5,12.4,12.4,12.4h82.9
			c6.8,0,12.4-5.5,12.4-12.4v-59.4h63v15.5c0,9.9,8,17.9,17.9,17.9s17.9-8,17.9-17.9v-15.5h42.2c5.1,0,9.2-4.1,9.2-9.2V87.9
			C460,82.8,455.9,78.7,450.8,78.7z M214.6,266h82.9c0.2,0,0.4,0.2,0.4,0.4v48.2h-83.7v-48.2C214.2,266.1,214.3,266,214.6,266z
			 M127.3,377.1c0,3.3-2.7,6-6,6s-6-2.7-6-6v-15.5h12V377.1z M64,349.6v-12h138.3v12H64z M297.4,421.4h-82.9c-0.2,0-0.4-0.2-0.4-0.4
			v-22.7H256c3.3,0,6-2.7,6-6s-2.7-6-6-6h-41.8v-59.8h83.7v59.8h-16.3c-3.3,0-6,2.7-6,6s2.7,6,6,6h16.3V421
			C297.8,421.2,297.7,421.4,297.4,421.4z M396.6,377.1c0,3.3-2.7,6-6,6s-6-2.7-6-6v-15.5h12V377.1z M309.8,349.6v-12H448v12H309.8z"
			/>
		<path d="M171.1,126.9c0-7.7-6.3-13.9-13.9-13.9h-55.8c-7.7,0-13.9,6.3-13.9,13.9v55.8c0,7.7,6.3,13.9,13.9,13.9h55.8
			c7.7,0,13.9-6.3,13.9-13.9V126.9z M159.2,182.7c0,1.1-0.9,2-2,2h-55.8c-1.1,0-2-0.9-2-2v-55.8c0-1.1,0.9-2,2-2h55.8
			c1.1,0,2,0.9,2,2V182.7z"/>
		<path d="M410.6,184.7h-17.4c-3.3,0-6,2.7-6,6c0,3.3,2.7,6,6,6h17.4c7.7,0,13.9-6.3,13.9-13.9v-55.8c0-7.7-6.3-13.9-13.9-13.9
			H201.7c-7.7,0-13.9,6.3-13.9,13.9v55.8c0,7.7,6.3,13.9,13.9,13.9h166c3.3,0,6-2.7,6-6c0-3.3-2.7-6-6-6h-166c-1.1,0-2-0.9-2-2
			v-55.8c0-1.1,0.9-2,2-2h208.9c1.1,0,2,0.9,2,2v55.8C412.6,183.8,411.7,184.7,410.6,184.7z"/>
		<path d="M237.7,308.2c9.9,0,17.9-8,17.9-17.9s-8-17.9-17.9-17.9s-17.9,8-17.9,17.9S227.8,308.2,237.7,308.2z M237.7,284.3
			c3.3,0,6,2.7,6,6s-2.7,6-6,6s-6-2.7-6-6S234.4,284.3,237.7,284.3z"/>
		<path d="M243.1,339.7h-12c-3.3,0-6,2.7-6,6s2.7,6,6,6h12c3.3,0,6-2.7,6-6S246.4,339.7,243.1,339.7z"/>
		<path d="M268.9,351.7h12c3.3,0,6-2.7,6-6s-2.7-6-6-6h-12c-3.3,0-6,2.7-6,6S265.6,351.7,268.9,351.7z"/>
		<path d="M243.1,361.1h-12c-3.3,0-6,2.7-6,6c0,3.3,2.7,6,6,6h12c3.3,0,6-2.7,6-6C249,363.8,246.4,361.1,243.1,361.1z"/>
		<path d="M286.9,367.1c0-3.3-2.7-6-6-6h-12c-3.3,0-6,2.7-6,6c0,3.3,2.7,6,6,6h12C284.2,373.1,286.9,370.4,286.9,367.1z"/>
		<path d="M162.8,212.2H94.2c-3.3,0-6,2.7-6,6c0,3.3,2.7,6,6,6h68.5c3.3,0,6-2.7,6-6C168.7,214.8,166.1,212.2,162.8,212.2z"/>
		<path d="M162.8,235.7H94.2c-3.3,0-6,2.7-6,6c0,3.3,2.7,6,6,6h68.5c3.3,0,6-2.7,6-6C168.7,238.4,166.1,235.7,162.8,235.7z"/>
		<path d="M162.8,259.2H94.2c-3.3,0-6,2.7-6,6s2.7,6,6,6h68.5c3.3,0,6-2.7,6-6S166.1,259.2,162.8,259.2z"/>
	</g>
</g>
</svg>
