<?xml version="1.0" encoding="utf-8"?>
<!-- Generator: Adobe Illustrator 24.3.0, SVG Export Plug-In . SVG Version: 6.00 Build 0)  -->
<svg version="1.1" id="Layer_1" xmlns="http://www.w3.org/2000/svg" xmlns:xlink="http://www.w3.org/1999/xlink" x="0px" y="0px"
	 viewBox="0 0 616 616" style="enable-background:new 0 0 616 616;" xml:space="preserve">
<style type="text/css">
	.st0{fill:#09E5D0;}
	.st1{fill:#05ABAF;}
	.st2{fill:#5EB3D1;}
	.st3{fill:#E34B87;}
	.st4{fill:#D2E4FF;}
	.st5{fill:#BF3D75;}
	.st6{fill:#B6D7FF;}
</style>
<g id="surface1">
	<path class="st0" d="M109.1,86.9h335.2c16.8,0,30.5,13.6,30.5,30.5v335.2c0,16.8-13.6,30.5-30.5,30.5H109.1
		c-16.8,0-30.5-13.6-30.5-30.5V117.4C78.6,100.6,92.3,86.9,109.1,86.9z"/>
	<path class="st1" d="M124.3,483.1h320c16.8,0,30.5-13.6,30.5-30.5v-320L124.3,483.1z"/>
	<path class="st2" d="M101.5,109.8h15.2V125h-15.2V109.8z"/>
	<path class="st2" d="M132,109.8h15.2V125H132V109.8z"/>
	<path class="st2" d="M162.4,109.8h15.2V125h-15.2V109.8z"/>
	<path class="st2" d="M101.5,140.2H452v15.2H101.5V140.2z"/>
	<path class="st2" d="M208.2,201.2h114.3c4.2,0,7.6,3.4,7.6,7.6v0c0,4.2-3.4,7.6-7.6,7.6H208.2c-4.2,0-7.6-3.4-7.6-7.6v0
		C200.5,204.6,203.9,201.2,208.2,201.2z"/>
	<path class="st2" d="M208.2,231.7h38.1c4.2,0,7.6,3.4,7.6,7.6v0c0,4.2-3.4,7.6-7.6,7.6h-38.1c-4.2,0-7.6-3.4-7.6-7.6v0
		C200.5,235.1,203.9,231.7,208.2,231.7z"/>
	<path class="st2" d="M276.7,231.7h91.4c4.2,0,7.6,3.4,7.6,7.6v0c0,4.2-3.4,7.6-7.6,7.6h-91.4c-4.2,0-7.6-3.4-7.6-7.6v0
		C269.1,235.1,272.5,231.7,276.7,231.7z"/>
	<path class="st2" d="M352.9,201.2h60.9c4.2,0,7.6,3.4,7.6,7.6v0c0,4.2-3.4,7.6-7.6,7.6h-60.9c-4.2,0-7.6-3.4-7.6-7.6v0
		C345.3,204.6,348.7,201.2,352.9,201.2z"/>
	<path class="st2" d="M139.6,262.1c-21,0-38.1-17.1-38.1-38.1s17.1-38.1,38.1-38.1c21,0,38.1,17.1,38.1,38.1
		C177.7,245.1,160.6,262.1,139.6,262.1z M139.6,201.2c-12.6,0-22.9,10.2-22.9,22.9s10.2,22.9,22.9,22.9c12.6,0,22.9-10.2,22.9-22.9
		S152.2,201.2,139.6,201.2z"/>
	<path class="st2" d="M208.2,292.6h114.3c4.2,0,7.6,3.4,7.6,7.6l0,0c0,4.2-3.4,7.6-7.6,7.6H208.2c-4.2,0-7.6-3.4-7.6-7.6l0,0
		C200.5,296,203.9,292.6,208.2,292.6z"/>
	<path class="st2" d="M208.2,323.1h38.1c4.2,0,7.6,3.4,7.6,7.6l0,0c0,4.2-3.4,7.6-7.6,7.6h-38.1c-4.2,0-7.6-3.4-7.6-7.6l0,0
		C200.5,326.5,203.9,323.1,208.2,323.1z"/>
	<path class="st0" d="M269.1,323.1h106.7v15.2H269.1V323.1z"/>
	<path class="st0" d="M352.9,292.6h60.9c4.2,0,7.6,3.4,7.6,7.6l0,0c0,4.2-3.4,7.6-7.6,7.6h-60.9c-4.2,0-7.6-3.4-7.6-7.6l0,0
		C345.3,296,348.7,292.6,352.9,292.6z"/>
	<path class="st2" d="M139.6,353.6c-21,0-38.1-17.1-38.1-38.1s17.1-38.1,38.1-38.1c21,0,38.1,17.1,38.1,38.1
		C177.7,336.5,160.6,353.5,139.6,353.6z M139.6,292.6c-12.6,0-22.9,10.2-22.9,22.9s10.2,22.9,22.9,22.9c12.6,0,22.9-10.2,22.9-22.9
		S152.2,292.6,139.6,292.6z"/>
	<path class="st0" d="M200.5,384h129.5v15.2H200.5V384z"/>
	<path class="st2" d="M208.2,414.5h38.1c4.2,0,7.6,3.4,7.6,7.6v0c0,4.2-3.4,7.6-7.6,7.6h-38.1c-4.2,0-7.6-3.4-7.6-7.6v0
		C200.5,417.9,203.9,414.5,208.2,414.5z"/>
	<path class="st0" d="M276.7,414.5h99v15.2h-99c-4.2,0-7.6-3.4-7.6-7.6v0C269.1,417.9,272.5,414.5,276.7,414.5z"/>
	<path class="st2" d="M345.3,384h76.2v15.2h-76.2V384z"/>
	<path class="st2" d="M139.6,445c-21,0-38.1-17.1-38.1-38.1s17.1-38.1,38.1-38.1c21,0,38.1,17.1,38.1,38.1
		C177.7,427.9,160.6,445,139.6,445z M139.6,384c-12.6,0-22.9,10.2-22.9,22.9c0,12.6,10.2,22.9,22.9,22.9c12.6,0,22.9-10.2,22.9-22.9
		C162.4,394.3,152.2,384,139.6,384z"/>
	<path class="st3" d="M139.6,213.3l34.9-34.9c3-3,7.8-3,10.8,0l0,0c3,3,3,7.8,0,10.8l-34.9,34.9c-3,3-7.8,3-10.8,0l0,0
		C136.6,221.1,136.6,216.3,139.6,213.3z"/>
	<path class="st3" d="M139.6,304.7l34.9-34.9c3-3,7.8-3,10.8,0l0,0c3,3,3,7.8,0,10.8l-34.9,34.9c-3,3-7.8,3-10.8,0l0,0
		C136.6,312.5,136.6,307.7,139.6,304.7z"/>
	<path class="st3" d="M139.6,396.1l34.9-34.9c3-3,7.8-3,10.8,0l0,0c3,3,3,7.8,0,10.8l-34.9,34.9c-3,3-7.8,3-10.8,0l0,0
		C136.6,403.9,136.6,399.1,139.6,396.1z"/>
	<path class="st4" d="M535.8,422.1c0,58.9-47.8,106.7-106.7,106.7S322.4,481,322.4,422.1s47.8-106.7,106.7-106.7
		S535.8,363.2,535.8,422.1z"/>
	<path class="st5" d="M391,467.8c-0.4,0-0.8,0-1.2-0.1c-2.4-0.4-4.5-1.9-5.6-4.1L372.4,440c-1.9-3.8-0.4-8.3,3.4-10.2l0,0
		c3.8-1.9,8.3-0.4,10.2,3.4l7.1,14.2l78.6-78.6c3-3,7.8-3,10.8,0h0c3,3,3,7.8,0,10.8l-86,86C395,467,393,467.8,391,467.8z"/>
	<path class="st6" d="M375.2,514.1c50.7,29.8,116,12.9,145.8-37.8c19.6-33.3,19.6-74.7,0-108L375.2,514.1z"/>
	<path d="M109.1,490.7h190.5c4.2,0,7.6-3.4,7.6-7.6l0,0c0-4.2-3.4-7.6-7.6-7.6H109.1c-12.6,0-22.9-10.2-22.9-22.9V117.4
		c0-12.6,10.2-22.9,22.9-22.9h335.2c12.6,0,22.9,10.2,22.9,22.9V285c0,4.2,3.4,7.6,7.6,7.6l0,0c4.2,0,7.6-3.4,7.6-7.6V117.4
		c0-21-17.1-38.1-38.1-38.1H109.1c-21,0-38.1,17.1-38.1,38.1v335.2C71,473.6,88.1,490.7,109.1,490.7z"/>
	<path d="M101.5,109.8h15.2V125h-15.2V109.8z"/>
	<path d="M132,109.8h15.2V125H132V109.8z"/>
	<path d="M162.4,109.8h15.2V125h-15.2V109.8z"/>
	<path d="M109.1,140.2h335.2c4.2,0,7.6,3.4,7.6,7.6v0c0,4.2-3.4,7.6-7.6,7.6H109.1c-4.2,0-7.6-3.4-7.6-7.6v0
		C101.5,143.7,104.9,140.2,109.1,140.2z"/>
	<path d="M174.5,178.3l-14,14c-17.6-11.6-41.3-6.8-52.9,10.8c-11.6,17.6-6.8,41.3,10.8,52.9c17.6,11.7,41.3,6.8,52.9-10.8
		c8.5-12.8,8.5-29.4,0-42.2l14-14c3-3,3-7.8,0-10.8l0,0C182.3,175.4,177.5,175.4,174.5,178.3z M138.1,246.9
		c-11.4-0.7-20.6-10-21.4-21.4c-0.8-13.3,9.7-24.3,22.8-24.3c3.4,0,6.7,0.8,9.8,2.3l-9.8,9.8c-3,3-3,7.8,0,10.8l0,0
		c3,3,7.8,3,10.8,0l9.8-9.8c1.5,3,2.3,6.4,2.3,9.8C162.4,237.2,151.4,247.7,138.1,246.9z"/>
	<path d="M208.2,201.2h114.3c4.2,0,7.6,3.4,7.6,7.6v0c0,4.2-3.4,7.6-7.6,7.6H208.2c-4.2,0-7.6-3.4-7.6-7.6v0
		C200.5,204.6,203.9,201.2,208.2,201.2z"/>
	<path d="M208.2,231.7h38.1c4.2,0,7.6,3.4,7.6,7.6v0c0,4.2-3.4,7.6-7.6,7.6h-38.1c-4.2,0-7.6-3.4-7.6-7.6v0
		C200.5,235.1,203.9,231.7,208.2,231.7z"/>
	<path d="M276.7,231.7h91.4c4.2,0,7.6,3.4,7.6,7.6v0c0,4.2-3.4,7.6-7.6,7.6h-91.4c-4.2,0-7.6-3.4-7.6-7.6v0
		C269.1,235.1,272.5,231.7,276.7,231.7z"/>
	<path d="M352.9,201.2h60.9c4.2,0,7.6,3.4,7.6,7.6v0c0,4.2-3.4,7.6-7.6,7.6h-60.9c-4.2,0-7.6-3.4-7.6-7.6v0
		C345.3,204.6,348.7,201.2,352.9,201.2z"/>
	<path d="M174.5,269.8l-14,14c-17.6-11.6-41.3-6.8-52.9,10.8c-11.6,17.6-6.8,41.3,10.8,52.9c17.6,11.6,41.3,6.8,52.9-10.8
		c8.5-12.8,8.5-29.4,0-42.2l14-14c3-3,3-7.8,0-10.8l0,0C182.3,266.8,177.5,266.8,174.5,269.8z M138.1,338.3
		c-11.4-0.7-20.6-10-21.4-21.3c-0.8-13.3,9.7-24.3,22.8-24.3c3.4,0,6.7,0.8,9.8,2.3l-9.8,9.8c-3,3-3,7.8,0,10.8l0,0
		c3,3,7.8,3,10.8,0l9.8-9.8c1.5,3,2.3,6.4,2.3,9.8C162.4,328.6,151.4,339.1,138.1,338.3z"/>
	<path d="M208.2,292.6h114.3c4.2,0,7.6,3.4,7.6,7.6v0c0,4.2-3.4,7.6-7.6,7.6H208.2c-4.2,0-7.6-3.4-7.6-7.6v0
		C200.5,296,203.9,292.6,208.2,292.6z"/>
	<path d="M208.2,323.1h38.1c4.2,0,7.6,3.4,7.6,7.6l0,0c0,4.2-3.4,7.6-7.6,7.6h-38.1c-4.2,0-7.6-3.4-7.6-7.6l0,0
		C200.5,326.5,203.9,323.1,208.2,323.1z"/>
	<path d="M276.7,323.1h53.3v15.2h-53.3c-4.2,0-7.6-3.4-7.6-7.6l0,0C269.1,326.5,272.5,323.1,276.7,323.1z"/>
	<path d="M352.9,292.6h22.9v15.2h-22.9c-4.2,0-7.6-3.4-7.6-7.6l0,0C345.3,296,348.7,292.6,352.9,292.6z"/>
	<path d="M174.5,361.2l-14,14c-17.6-11.6-41.3-6.8-52.9,10.8c-11.6,17.6-6.8,41.3,10.8,52.9c17.6,11.6,41.3,6.8,52.9-10.8
		c8.5-12.8,8.5-29.4,0-42.2l14-14c3-3,3-7.8,0-10.8l0,0C182.3,358.2,177.5,358.2,174.5,361.2z M138.1,429.7
		c-11.4-0.7-20.6-10-21.3-21.4c-0.8-13.3,9.7-24.3,22.8-24.3c3.4,0,6.7,0.8,9.8,2.3l-9.8,9.8c-3,3-3,7.8,0,10.8l0,0
		c3,3,7.8,3,10.8,0l9.8-9.8c1.5,3,2.3,6.4,2.3,9.8C162.4,420,151.4,430.5,138.1,429.7z"/>
	<path d="M208.2,384h91.4v15.2h-91.4c-4.2,0-7.6-3.4-7.6-7.6v0C200.5,387.5,203.9,384,208.2,384z"/>
	<path d="M208.2,414.5h38.1c4.2,0,7.6,3.4,7.6,7.6v0c0,4.2-3.4,7.6-7.6,7.6h-38.1c-4.2,0-7.6-3.4-7.6-7.6v0
		C200.5,417.9,203.9,414.5,208.2,414.5z"/>
	<path d="M276.7,414.5h22.9v15.2h-22.9c-4.2,0-7.6-3.4-7.6-7.6v0C269.1,417.9,272.5,414.5,276.7,414.5z"/>
	<path d="M429.1,536.4c63.1,0,114.3-51.2,114.3-114.3s-51.2-114.3-114.3-114.3S314.8,359,314.8,422.1
		C314.9,485.2,366,536.3,429.1,536.4z M429.1,323.1c54.7,0,99,44.3,99,99s-44.3,99-99,99s-99-44.3-99-99
		C330.1,367.5,374.4,323.2,429.1,323.1z"/>
	<path d="M375.8,429.8L375.8,429.8c-3.8,1.9-5.3,6.5-3.4,10.2l11.8,23.7c1.1,2.2,3.2,3.7,5.6,4.1c0.4,0.1,0.8,0.1,1.2,0.1
		c2,0,4-0.8,5.4-2.2l86-86c3-3,3-7.8,0-10.8l0,0c-3-3-7.8-3-10.8,0l-78.6,78.6l-7.1-14.2C384.1,429.4,379.6,427.9,375.8,429.8z"/>
</g>
</svg>
