<?xml version="1.0" encoding="utf-8"?>
<!-- Generator: Adobe Illustrator 24.3.0, SVG Export Plug-In . SVG Version: 6.00 Build 0)  -->
<svg version="1.1" id="Capa_1" xmlns="http://www.w3.org/2000/svg" xmlns:xlink="http://www.w3.org/1999/xlink" x="0px" y="0px"
	 viewBox="0 0 512 512" style="enable-background:new 0 0 512 512;" xml:space="preserve">
<style type="text/css">
	.st0{fill:#09E5D0;}
	.st1{fill:#05ABAF;}
	.st2{fill:#FAF7F7;}
	.st3{fill:#EDE1DD;}
	.st4{fill:#D2E4FF;}
	.st5{fill:#B6D7FF;}
</style>
<g>
	<g>
		<path class="st0" d="M206.5,130.9C135.8,131,78.2,189,78.5,259.7c0,0.9,0,1.7,0,2.6c0.6,26.7,10.3,52.5,26.8,73.5l85.6,109.3
			c8.1,10.3,23.7,10.3,31.8,0l85.6-109.3c16.6-21.2,26.2-47.2,26.8-74.1c0-0.9,0-1.7,0-2.6C335,188.2,277.5,130.8,206.5,130.9z"/>
	</g>
	<g>
		<path class="st1" d="M335,259.2c0,0.9,0,1.7,0,2.6c-0.5,26.9-10.2,52.9-26.8,74.1l-85.6,109.3c-7.6,9.8-22,10.3-30.4,1.6
			c6.8,0.9,14-1.6,18.7-7.6l85.6-109.3c16.6-21.2,26.2-47.2,26.8-74.1c0-0.9,0-1.7,0-2.6c0-47.6-25.9-89.1-64.4-111.2
			C303.8,161.9,335,206.9,335,259.2L335,259.2z"/>
	</g>
	<g>
		<circle class="st2" cx="206.8" cy="256.1" r="90.2"/>
	</g>
	<g>
		<path class="st3" d="M296.9,256.1c0,49.8-40.4,90.2-90.2,90.2c-19,0-36.6-5.9-51.1-15.9c12.1,6,25.7,9.4,40.1,9.4
			c49.8,0,90.2-40.4,90.2-90.2c0-30.8-15.5-58-39-74.3C276.5,190.1,296.9,220.7,296.9,256.1L296.9,256.1z"/>
	</g>
	<g>
		<path d="M300.8,164.9c-25.1-25.1-58.5-38.9-94-38.9c-0.1,0-0.2,0-0.3,0c-35.5,0.1-68.9,14.1-94.1,39.4
			c-25.2,25.3-39,58.8-38.8,94.3c0,0.9,0,1.8,0,2.7c0.7,27.2,10.5,54.3,27.8,76.4l13.3,16.9c1.7,2.1,4.7,2.5,6.8,0.8
			c2.1-1.7,2.5-4.7,0.8-6.8l-13.3-16.9c-16-20.4-25.1-45.5-25.7-70.6c0-0.8,0-1.7,0-2.5c-0.1-32.9,12.6-63.9,36-87.4
			c23.3-23.5,54.3-36.4,87.2-36.5h0.2c32.9,0,63.9,12.8,87.2,36.1c23.4,23.3,36.2,54.3,36.2,87.3c0,0.8,0,1.7,0,2.5
			c-0.5,25.4-9.6,50.6-25.7,71.2l-85.6,109.3c-2.9,3.7-7.3,5.9-12.1,5.9c-4.7,0-9.1-2.1-12.1-5.9l-58.3-74.4
			c-1.7-2.1-4.7-2.5-6.8-0.8c-2.1,1.7-2.5,4.7-0.8,6.8l58.3,74.4c4.8,6.1,12,9.6,19.7,9.6c7.8,0,14.9-3.5,19.7-9.6l85.6-109.3
			c17.4-22.2,27.3-49.6,27.8-77c0-0.9,0-1.8,0-2.7C339.9,223.5,326,190.1,300.8,164.9L300.8,164.9z"/>
		<path d="M293.4,281.5c2.6,0.6,5.2-1,5.9-3.6c1.7-7.1,2.5-14.4,2.5-21.7c0-52.4-42.6-95-95-95c-52.4,0-95,42.6-95,95s42.6,95,95,95
			c35.4,0,67.6-19.5,84.1-50.8c1.3-2.4,0.3-5.3-2-6.6c-2.4-1.3-5.3-0.3-6.6,2c-14.8,28.1-43.8,45.6-75.5,45.6
			c-47,0-85.3-38.3-85.3-85.3s38.3-85.3,85.3-85.3s85.3,38.3,85.3,85.3c0,6.6-0.8,13.2-2.2,19.5
			C289.2,278.2,290.8,280.9,293.4,281.5L293.4,281.5z"/>
	</g>
</g>
<g>
	<path class="st4" d="M461.8,145.3c0-55.5-45.4-100.4-101.1-99.6c-54,0.8-97.8,45-98.2,99c-0.2,30.2,13.1,57.3,34.2,75.7
		c2.2,1.9,1.9,5.5-0.6,7l-18.8,11.1c-3,1.8-1.8,6.4,1.8,6.4l85,0C418.2,243.9,461.8,199.7,461.8,145.3L461.8,145.3z"/>
	<path class="st5" d="M360.7,45.7c-2.7,0-5.3,0.2-7.9,0.4c50.6,4.7,90.2,47.3,90.2,99.2c0,54.4-43.6,98.6-97.7,99.6l-66.3,0
		c0,0,0,0,0.1,0l85,0c54.2-1,97.7-45.2,97.7-99.6C461.8,89.8,416.4,44.9,360.7,45.7L360.7,45.7z"/>
	<g>
		<circle class="st0" cx="362.3" cy="207.1" r="9.4"/>
		<g>
			<g>
				<path class="st0" d="M362.2,179.2c-5.2,0-9.4-4.2-9.4-9.4v-29.7c0-5.2,4.2-9.4,9.4-9.4c5.3,0,10.1-2.1,13.8-5.9
					c3.6-3.8,5.5-8.8,5.2-14.1c-0.5-9.9-8.7-17.7-18.6-17.9c-0.1,0-0.3,0-0.4,0c-9.4,0-17.5,7-18.8,16.3c-0.1,0.9-0.2,1.8-0.2,2.7
					c0,5.2-4.2,9.4-9.4,9.4c-5.2,0-9.4-4.2-9.4-9.4c0-1.8,0.1-3.5,0.4-5.3c2.6-18.9,19.1-32.9,38.2-32.5
					c19.7,0.4,35.9,16.1,36.9,35.8c0.5,10.5-3.1,20.4-10.3,28c-4.9,5.2-11.2,8.8-18,10.6v21.5C371.6,175,367.4,179.2,362.2,179.2
					L362.2,179.2z"/>
			</g>
		</g>
	</g>
	<path d="M404.6,109.6c-1.1-22.1-19.4-39.8-41.5-40.2c-21.5-0.4-39.9,15.3-42.9,36.5c-0.3,1.9-0.4,3.9-0.4,5.9
		c0,7.8,6.3,14.1,14.1,14.1s14.1-6.3,14.1-14.1c0-0.7,0-1.3,0.1-2c1-7,7.1-12.3,14.1-12.3l0.3,0c7.4,0.1,13.6,6.1,14,13.5
		c0.2,4-1.2,7.7-3.9,10.6c-2.7,2.9-6.4,4.5-10.4,4.5c-7.8,0-14.1,6.3-14.1,14.1v29.7c0,7.8,6.3,14.1,14.1,14.1s14.1-6.3,14.1-14.1
		v-18c6.3-2.2,12.1-5.9,16.7-10.8C401.1,132.5,405.2,121.3,404.6,109.6L404.6,109.6z M370.4,143.8c-2.1,0.5-3.5,2.4-3.5,4.5v21.5
		c0,2.6-2.1,4.7-4.7,4.7c-2.6,0-4.7-2.1-4.7-4.7v-29.7c0-2.6,2.1-4.7,4.7-4.7c6.6,0,12.6-2.6,17.2-7.4c4.5-4.8,6.8-11,6.5-17.6
		c-0.6-12.3-10.8-22.2-23.1-22.4c-0.2,0-0.3,0-0.5,0c-11.7,0-21.8,8.8-23.4,20.4c-0.2,1.1-0.2,2.2-0.2,3.3c0,2.6-2.1,4.7-4.7,4.7
		c-2.6,0-4.7-2.1-4.7-4.7c0-1.5,0.1-3.1,0.3-4.6c2.3-16.3,16.3-28.5,32.7-28.5c0.2,0,0.5,0,0.7,0c17.2,0.3,31.4,14.1,32.3,31.3
		c0.5,9.2-2.7,17.9-9,24.5C381.9,139.1,376.4,142.3,370.4,143.8z M362.3,193c-7.8,0-14.1,6.3-14.1,14.1c0,7.8,6.3,14.1,14.1,14.1
		s14.1-6.3,14.1-14.1C376.3,199.4,370,193,362.3,193z M362.3,211.8c-2.6,0-4.7-2.1-4.7-4.7c0-2.6,2.1-4.7,4.7-4.7s4.7,2.1,4.7,4.7
		C366.9,209.7,364.8,211.8,362.3,211.8z M435.4,71c-19.7-19.4-45.6-30-73.2-30c-0.5,0-1,0-1.5,0c-51.8,0.7-95.6,40.1-102,91.4
		c-0.3,2.6,1.5,4.9,4.1,5.2c2.6,0.3,4.9-1.5,5.2-4.1c5.8-46.8,45.7-82.5,92.8-83.2c25.6-0.4,49.8,9.3,68,27.3
		c18.2,18,28.3,42,28.3,67.6c0,25-9.7,48.7-27.2,66.5c-17.5,17.8-40.9,27.9-65.9,28.4l-80.5,0l14.9-8.8c2.5-1.5,4.1-4.1,4.4-6.9
		c0.3-2.9-0.9-5.7-3.1-7.6c-19.2-16.7-30.6-39.9-32.3-65.1c-0.2-2.6-2.4-4.5-5-4.4c-2.6,0.2-4.5,2.4-4.4,5
		c1.8,27.6,14.3,52.9,35.1,71.2l-18.3,10.8c-3.2,1.9-4.7,5.6-3.7,9.2c1,3.6,4.1,6,7.9,6h0l85,0c0,0,0.1,0,0.1,0
		c27.5-0.5,53.2-11.6,72.4-31.2c19.3-19.6,29.9-45.6,29.9-73.1C466.5,117.1,455.5,90.7,435.4,71L435.4,71z"/>
</g>
<g>
	<g>
		<path d="M262.2,247.6l-47-47.3c-0.1-0.1-0.1-0.1-0.2-0.2c-5.1-4.6-12.9-4.6-18,0c-0.1,0.1-0.1,0.1-0.2,0.2l-47.4,47.3
			c-1.8,1.8-1.8,4.6,0,6.4c1.8,1.8,4.6,1.8,6.4,0l3.6-3.6v38.9c0,9.9,8.1,18,18,18h16.2c2.5,0,4.5-2,4.5-4.5v-36.8h15.8v36.8
			c0,2.5,2,4.5,4.5,4.5h15.8c9.9,0,18-8.1,18-18c0-2.5-2-4.5-4.5-4.5c-2.5,0-4.5,2-4.5,4.5c0,5-4,9-9,9h-11.3v-36.8
			c0-2.5-2-4.5-4.5-4.5h-24.8c-2.5,0-4.5,2-4.5,4.5v36.8h-11.7c-5,0-9-4-9-9v-47.8c0,0,0-0.1,0-0.1l34.7-34.6c1.7-1.4,4.2-1.4,5.9,0
			l34.3,34.5v25.5c0,2.5,2,4.5,4.5,4.5c2.5,0,4.5-2,4.5-4.5v-16.4l3.6,3.6c0.9,0.9,2,1.3,3.2,1.3c1.1,0,2.3-0.4,3.2-1.3
			C263.9,252.2,263.9,249.4,262.2,247.6z"/>
	</g>
</g>
</svg>
