<?xml version="1.0" encoding="utf-8"?>
<!-- Generator: Adobe Illustrator 24.3.0, SVG Export Plug-In . SVG Version: 6.00 Build 0)  -->
<svg version="1.1" id="Layer_1" xmlns="http://www.w3.org/2000/svg" xmlns:xlink="http://www.w3.org/1999/xlink" x="0px" y="0px"
	 viewBox="0 0 480 480" style="enable-background:new 0 0 480 480;" xml:space="preserve">
<style type="text/css">
	.st0{fill:#09E5D0;}
	.st1{fill:#05ABAF;}
	.st2{fill:#F9E109;}
	.st3{fill:#39519D;}
	.st4{fill:#FCBC04;}
	.st5{fill:#E59730;}
	.st6{fill:#A1D51C;}
	.st7{fill:#C4F236;}
</style>
<path class="st0" d="M84.5,73h230.4c6.4,0,11.5,5.2,11.5,11.5v311c0,6.4-5.2,11.5-11.5,11.5H84.5c-6.4,0-11.5-5.2-11.5-11.5v-311
	C73,78.2,78.1,73,84.5,73z"/>
<path class="st1" d="M216.9,361c-57.3,0-103.7-46.4-103.7-103.7V73H84.5C78.1,73,73,78.2,73,84.5v311c0,6.4,5.2,11.5,11.5,11.5
	h230.4c6.4,0,11.5-5.2,11.5-11.5V361H216.9z"/>
<path class="st2" d="M124.8,107.6h149.7v23H124.8V107.6z"/>
<path class="st3" d="M257.2,159.4H142.1c-3.2,0-5.8-2.6-5.8-5.8c0-3.2,2.6-5.8,5.8-5.8h115.2c3.2,0,5.8,2.6,5.8,5.8
	C263,156.8,260.4,159.4,257.2,159.4z"/>
<path class="st3" d="M291.8,199.7H165.1c-3.2,0-5.8-2.6-5.8-5.8c0-3.2,2.6-5.8,5.8-5.8h126.7c3.2,0,5.8,2.6,5.8,5.8
	C297.6,197.1,295,199.7,291.8,199.7z"/>
<path class="st3" d="M228.5,234.3H113.3c-3.2,0-5.8-2.6-5.8-5.8c0-3.2,2.6-5.8,5.8-5.8h115.2c3.2,0,5.8,2.6,5.8,5.8
	C234.2,231.7,231.6,234.3,228.5,234.3z"/>
<path class="st3" d="M291.8,234.3h-40.3c-3.2,0-5.8-2.6-5.8-5.8c0-3.2,2.6-5.8,5.8-5.8h40.3c3.2,0,5.8,2.6,5.8,5.8
	C297.6,231.7,295,234.3,291.8,234.3z"/>
<path class="st3" d="M170.9,263.1h-57.6c-3.2,0-5.8-2.6-5.8-5.8c0-3.2,2.6-5.8,5.8-5.8h57.6c3.2,0,5.8,2.6,5.8,5.8
	C176.6,260.5,174,263.1,170.9,263.1z"/>
<path class="st3" d="M234.2,263.1h-40.3c-3.2,0-5.8-2.6-5.8-5.8c0-3.2,2.6-5.8,5.8-5.8h40.3c3.2,0,5.8,2.6,5.8,5.8
	C240,260.5,237.4,263.1,234.2,263.1z"/>
<path class="st4" d="M274.5,130.6H124.8v-23L274.5,130.6z"/>
<path class="st2" d="M182.4,340.8c0,23.9-19.3,43.2-43.2,43.2S96,364.7,96,340.8c0-23.9,19.3-43.2,43.2-43.2S182.4,317,182.4,340.8z
	"/>
<path class="st4" d="M139.2,384c18.7,0,35.3-12,41.1-29.8c-25.3-9.6-45.9-28.8-57.3-53.4c-19.2,7.8-30.1,28-26.2,48.3
	C100.7,369.4,118.5,384,139.2,384z"/>
<path class="st3" d="M211.2,366.7c-0.6,0-1.3-0.1-1.8-0.3c-3-1-4.6-4.3-3.6-7.3l14.2-42.5c1.7-5.2,6.9-8.4,12.3-7.8
	c5.4,0.7,9.6,5,10.1,10.5l2,23l2.1-3.5c2.2-3.8,6.4-6.1,10.8-5.8c4.3,0.4,8.1,3.1,9.7,7.2l3.7,9.1l16.8-21.3c1-1.2,2.3-2,3.9-2.2
	c1.5-0.2,3.1,0.3,4.3,1.2c2.5,2,2.9,5.6,0.9,8.1l-16.8,21.4c-2.6,3.2-6.6,4.8-10.7,4.2c-4.1-0.6-7.5-3.3-9-7.1l-3.6-9l-2.1,3.5
	c-2.5,4.3-7.5,6.4-12.3,5.4c-4.8-1-8.5-5-9.1-9.9l-2-23.4l-13.9,42.3C216.2,365.1,213.8,366.8,211.2,366.7z"/>
<path class="st3" d="M137.7,357.2c-3,0-6-1.2-8.1-3.3l-12.2-12.2c-1.1-1.1-1.7-2.6-1.7-4.1c0-1.5,0.6-3,1.7-4.1
	c2.2-2.2,5.9-2.2,8.1,0l12.2,12.2l20.4-20.3c2.3-2,5.7-1.8,7.8,0.3c2.1,2.1,2.3,5.5,0.3,7.8l-20.3,20.4
	C143.7,356,140.7,357.2,137.7,357.2z"/>
<path class="st4" d="M357.5,184.9l29.9,17.3L335.6,292l-29.9-17.3L357.5,184.9z"/>
<path class="st5" d="M332.7,227.8l-27.1,46.8l29.9,17.3l8.8-15.3C337.8,261.1,333.9,244.6,332.7,227.8z"/>
<path class="st6" d="M335.6,292l-29.9-17.3l-12.3,32.8l19.9,11.5L335.6,292z"/>
<path class="st5" d="M293.3,307.5l19.9,11.5l-5.8,10c-3.2,5.5-10.2,7.4-15.7,4.2s-7.4-10.2-4.2-15.7L293.3,307.5z"/>
<path class="st4" d="M374.7,155l29.9,17.3l-17.3,29.9l-29.9-17.3L374.7,155z"/>
<path class="st7" d="M401.2,143.7c5.5,3.2,7.4,10.2,4.2,15.7l-5.8,10l-19.9-11.5l5.8-10C388.6,142.4,395.7,140.5,401.2,143.7z"/>
<path class="st5" d="M349.6,198.6l5.8-10l29.9,17.3l-5.8,10L349.6,198.6z"/>
<path class="st3" d="M378.5,269.4c-1,0-2-0.3-2.9-0.7c-1.3-0.8-2.3-2-2.7-3.5c-0.4-1.5-0.2-3.1,0.6-4.4l23-39.9
	c0.8-1.3,1-2.9,0.6-4.4c-0.4-1.5-1.4-2.8-2.7-3.5l-49.9-28.8c-2.7-1.6-3.7-5.1-2.1-7.8c0.8-1.3,2-2.3,3.5-2.7
	c1.5-0.4,3.1-0.2,4.4,0.6l49.9,28.8c4,2.3,6.9,6.1,8.1,10.5c1.2,4.4,0.6,9.2-1.7,13.1l-23,39.9C382.5,268.3,380.6,269.4,378.5,269.4
	z"/>
<path class="st6" d="M395.5,147.9c0-1.9,0.3-3.9,0.8-5.8c-4.4-0.3-8.6,1.9-10.8,5.8l-5.8,10l19.9,11.5l2.9-5
	C398,160.1,395.5,154.1,395.5,147.9z"/>
<g>
	<path d="M412.2,149.2c-1.2-4.4-4.1-8.2-8.1-10.5c-4-2.3-8.7-2.9-13.1-1.7c-4.4,1.2-8.2,4.1-10.5,8.1l-2.9,5
		c-2.7-1.6-6.2-0.6-7.8,2.1L355.2,177l-5-2.9c-1.3-0.8-2.9-1-4.4-0.6c-1.5,0.4-2.7,1.4-3.5,2.7c-1.6,2.8-0.6,6.3,2.1,7.8l5,2.9
		l-49,84.8l-12.1,32.3l-5.8,10.8c-3.4,5.9-3,13.2,0.9,18.7l-13,15.9l-3.6-9.1c-1.6-4.1-5.4-6.8-9.8-7.2c-4.4-0.3-8.5,1.8-10.8,5.6
		l-2.1,3.5l-2-23c-0.4-5.4-4.7-9.8-10.1-10.5c-5.4-0.7-10.6,2.6-12.3,7.8L205.8,359c-1,3,0.6,6.2,3.6,7.3c0.6,0.3,1.2,0.4,1.8,0.5
		c2.5,0,4.7-1.6,5.5-3.9l14.1-42.5l2,23.4c0.4,5,4,9.1,8.9,10.3c4.9,1.1,9.9-1,12.5-5.3l2.1-3.5l3.6,9c1.5,3.8,4.9,6.5,9,7.1
		c4.1,0.6,8.1-1,10.7-4.2l13.4-17c1.5,0.4,3,0.6,4.5,0.6c6.2,0,11.9-3.2,15-8.5l5.8-9.6l21.9-26.7l49.5-85.9l5,2.9
		c1.3,0.8,2.3,2,2.7,3.5c0.4,1.5,0.2,3.1-0.6,4.4l-23,39.9c-0.9,1.3-1.2,2.9-0.8,4.5c0.3,1.5,1.3,2.9,2.7,3.7c1.3,0.8,2.9,1,4.4,0.6
		c1.5-0.4,2.7-1.4,3.5-2.7l23-39.9c2.3-4,2.9-8.7,1.7-13.1c-1.2-4.4-4.1-8.2-8.1-10.5l-5-2.9l14.4-24.9c1.6-2.7,0.6-6.2-2.1-7.8
		l2.9-5C412.8,158.5,413.4,153.7,412.2,149.2z M390.5,150.8c0.8-1.3,2-2.3,3.5-2.7c1.5-0.4,3-0.2,4.4,0.6c1.3,0.8,2.3,2,2.7,3.5
		c0.4,1.5,0.2,3-0.6,4.4l-2.9,5l-10-5.8L390.5,150.8z M312,311.6l-2.9-1.7l-8.5-5l8.2-21.9l18.1,10.5L312,311.6z M294.7,328.2
		c-2.4-1.7-3.2-5-1.7-7.5l2.9-5l10,5.8l-2.9,5c-0.8,1.4-2.2,2.4-3.7,2.7C297.7,329.5,296,329.1,294.7,328.2z M333.4,284.1
		l-19.9-11.5l46.1-79.8l19.9,11.5L333.4,284.1z M385.3,194.3l-19.9-11.5l11.5-19.9l19.9,11.5L385.3,194.3z"/>
	<path class="st1" d="M158.1,325.3l-20.4,20.3l-12.2-12.2c-2.2-2.2-5.9-2.2-8.1,0c-1.1,1.1-1.7,2.6-1.7,4.1c0,1.5,0.6,3,1.7,4.1
		l12.2,12.2c2.2,2.1,5.1,3.3,8.1,3.3c3.1,0,6-1.2,8.2-3.3l20.3-20.4c2-2.3,1.8-5.7-0.3-7.8C163.8,323.5,160.4,323.4,158.1,325.3z"/>
	<path d="M90.2,340.8c0,27,21.9,49,49,49s49-21.9,49-49c0-3.2-2.6-5.8-5.8-5.8s-5.8,2.6-5.8,5.8c0,20.7-16.8,37.4-37.4,37.4
		s-37.4-16.8-37.4-37.4s16.8-37.4,37.4-37.4c8.1,0,16,2.6,22.5,7.5c2.5,1.9,6.2,1.4,8.1-1.2c1.9-2.5,1.4-6.2-1.2-8.1
		c-14.8-11.1-34.7-12.9-51.3-4.6C100.7,305.3,90.2,322.3,90.2,340.8z"/>
	<path d="M274.5,113.3c3.2,0,5.8-2.6,5.8-5.8c0-3.2-2.6-5.8-5.8-5.8H124.8c-3.2,0-5.8,2.6-5.8,5.8v23c0,3.2,2.6,5.8,5.8,5.8h149.7
		c3.2,0,5.8-2.6,5.8-5.8c0-3.2-2.6-5.8-5.8-5.8h-144v-11.5H274.5z"/>
	<path d="M142.1,147.9c-3.2,0-5.8,2.6-5.8,5.8c0,3.2,2.6,5.8,5.8,5.8h115.2c3.2,0,5.8-2.6,5.8-5.8c0-3.2-2.6-5.8-5.8-5.8H142.1z"/>
	<path d="M291.8,188.2H165.1c-3.2,0-5.8,2.6-5.8,5.8c0,3.2,2.6,5.8,5.8,5.8h126.7c3.2,0,5.8-2.6,5.8-5.8
		C297.6,190.8,295,188.2,291.8,188.2z"/>
	<path d="M234.2,228.5c0-3.2-2.6-5.8-5.8-5.8H113.3c-3.2,0-5.8,2.6-5.8,5.8c0,3.2,2.6,5.8,5.8,5.8h115.2
		C231.6,234.3,234.2,231.7,234.2,228.5z"/>
	<path d="M291.8,222.8h-40.3c-3.2,0-5.8,2.6-5.8,5.8c0,3.2,2.6,5.8,5.8,5.8h40.3c3.2,0,5.8-2.6,5.8-5.8
		C297.6,225.3,295,222.8,291.8,222.8z"/>
	<path d="M170.9,263.1c3.2,0,5.8-2.6,5.8-5.8c0-3.2-2.6-5.8-5.8-5.8h-57.6c-3.2,0-5.8,2.6-5.8,5.8c0,3.2,2.6,5.8,5.8,5.8H170.9z"/>
	<path d="M193.9,263.1h40.3c3.2,0,5.8-2.6,5.8-5.8c0-3.2-2.6-5.8-5.8-5.8h-40.3c-3.2,0-5.8,2.6-5.8,5.8
		C188.1,260.5,190.7,263.1,193.9,263.1z"/>
	<path d="M326.4,332.2c-3.2,0-5.8,2.6-5.8,5.8v57.6c0,3.2-2.6,5.8-5.8,5.8H84.5c-3.2,0-5.8-2.6-5.8-5.8v-311c0-3.2,2.6-5.8,5.8-5.8
		h230.4c3.2,0,5.8,2.6,5.8,5.8v108.2c0,3.2,2.6,5.8,5.8,5.8c3.2,0,5.8-2.6,5.8-5.8V84.5c0-9.5-7.7-17.3-17.3-17.3H84.5
		c-9.5,0-17.3,7.7-17.3,17.3v311c0,9.5,7.7,17.3,17.3,17.3h230.4c9.5,0,17.3-7.7,17.3-17.3v-57.6
		C332.1,334.8,329.5,332.2,326.4,332.2z"/>
</g>
</svg>
