<?xml version="1.0" encoding="utf-8"?>
<!-- Generator: Adobe Illustrator 24.3.0, SVG Export Plug-In . SVG Version: 6.00 Build 0)  -->
<svg version="1.1" id="Layer_1" xmlns="http://www.w3.org/2000/svg" xmlns:xlink="http://www.w3.org/1999/xlink" x="0px" y="0px"
	 viewBox="0 0 512 512" style="enable-background:new 0 0 512 512;" xml:space="preserve">
<style type="text/css">
	.st0{fill:#B6D7FF;}
	.st1{fill:#09E5D0;}
</style>
<path class="st0" d="M454.9,416.6H57.1c-12.7,0-22.9-10.3-22.9-22.9V118.3c0-12.7,10.3-22.9,22.9-22.9h397.8
	c12.7,0,22.9,10.3,22.9,22.9v275.4C477.8,406.4,467.6,416.6,454.9,416.6z"/>
<path class="st1" d="M57.1,416.6h84.1V95.4H57.1c-12.7,0-22.9,10.3-22.9,22.9v275.4C34.2,406.4,44.4,416.6,57.1,416.6z"/>
<path d="M454.9,88.2H57.1c-16.6,0-30.1,13.5-30.1,30.1v275.4c0,16.6,13.5,30.1,30.1,30.1h397.8c16.6,0,30.1-13.5,30.1-30.1V118.3
	C485,101.7,471.5,88.2,454.9,88.2z M41.3,393.7V118.3c0-8.7,7.1-15.8,15.8-15.8h77v306.9h-77C48.4,409.5,41.3,402.4,41.3,393.7z
	 M470.7,393.7c0,8.7-7.1,15.8-15.8,15.8H148.4V102.5h306.4c8.7,0,15.8,7.1,15.8,15.8V393.7z"/>
<path d="M209.6,126c0-4-3.2-7.2-7.2-7.2h-30.6c-4,0-7.2,3.2-7.2,7.2c0,4,3.2,7.2,7.2,7.2h30.6C206.4,133.1,209.6,129.9,209.6,126z"
	/>
<path d="M64.8,133.1h45.9c4,0,7.2-3.2,7.2-7.2c0-4-3.2-7.2-7.2-7.2H64.8c-4,0-7.2,3.2-7.2,7.2C57.6,129.9,60.8,133.1,64.8,133.1z"/>
<path d="M110.7,195.3H64.8c-4,0-7.2,3.2-7.2,7.2s3.2,7.2,7.2,7.2h45.9c4,0,7.2-3.2,7.2-7.2S114.6,195.3,110.7,195.3z"/>
<path d="M110.7,256.5H64.8c-4,0-7.2,3.2-7.2,7.2c0,4,3.2,7.2,7.2,7.2h45.9c4,0,7.2-3.2,7.2-7.2C117.8,259.7,114.6,256.5,110.7,256.5
	z"/>
<path d="M110.7,317.7H64.8c-4,0-7.2,3.2-7.2,7.2c0,4,3.2,7.2,7.2,7.2h45.9c4,0,7.2-3.2,7.2-7.2S114.6,317.7,110.7,317.7z"/>
<path d="M110.7,225.9H64.8c-4,0-7.2,3.2-7.2,7.2s3.2,7.2,7.2,7.2h45.9c4,0,7.2-3.2,7.2-7.2S114.6,225.9,110.7,225.9z"/>
<path d="M110.7,287.1H64.8c-4,0-7.2,3.2-7.2,7.2c0,4,3.2,7.2,7.2,7.2h45.9c4,0,7.2-3.2,7.2-7.2C117.8,290.3,114.6,287.1,110.7,287.1
	z"/>
<path d="M95.4,363.6H64.8c-4,0-7.2,3.2-7.2,7.2c0,4,3.2,7.2,7.2,7.2h30.6c4,0,7.2-3.2,7.2-7.2S99.3,363.6,95.4,363.6z"/>
<path d="M64.8,163.7h30.6c4,0,7.2-3.2,7.2-7.2c0-4-3.2-7.2-7.2-7.2H64.8c-4,0-7.2,3.2-7.2,7.2C57.6,160.5,60.8,163.7,64.8,163.7z"/>
<path d="M263.6,118.8h-30.6c-4,0-7.2,3.2-7.2,7.2c0,4,3.2,7.2,7.2,7.2h30.6c4,0,7.2-3.2,7.2-7.2C270.8,122,267.6,118.8,263.6,118.8z
	"/>
<path d="M294.2,133.1h30.6c4,0,7.2-3.2,7.2-7.2c0-4-3.2-7.2-7.2-7.2h-30.6c-4,0-7.2,3.2-7.2,7.2
	C287.1,129.9,290.3,133.1,294.2,133.1z"/>
<path d="M393.2,126c0-4-3.2-7.2-7.2-7.2h-30.6c-4,0-7.2,3.2-7.2,7.2c0,4,3.2,7.2,7.2,7.2H386C390,133.1,393.2,129.9,393.2,126z"/>
<path d="M447.2,118.8h-30.6c-4,0-7.2,3.2-7.2,7.2c0,4,3.2,7.2,7.2,7.2h30.6c4,0,7.2-3.2,7.2-7.2C454.4,122,451.2,118.8,447.2,118.8z
	"/>
<path d="M217.8,232.6c9.9,0,18.9,4.5,24.9,12.4c2.4,3.2,6.9,3.8,10,1.4c3.2-2.4,3.8-6.9,1.4-10c-8.7-11.6-21.9-18.2-36.4-18.2
	c-25,0-45.4,20.4-45.4,45.4s20.4,45.4,45.4,45.4c14.4,0,27.7-6.6,36.3-18.2c2.4-3.2,1.7-7.7-1.4-10c-3.2-2.4-7.7-1.7-10,1.4
	c-5.9,7.9-15,12.4-24.9,12.4c-17.1,0-31.1-13.9-31.1-31.1S200.6,232.6,217.8,232.6z"/>
<path d="M347.3,248.4c0-16.6-13.5-30.1-30.1-30.1h-38.2c-4,0-7.2,3.2-7.2,7.2v76.5c0,4,3.2,7.2,7.2,7.2c4,0,7.2-3.2,7.2-7.2v-23.4
	H306l20.8,27.7c1.4,1.9,3.6,2.9,5.7,2.9c1.5,0,3-0.5,4.3-1.4c3.2-2.4,3.8-6.9,1.4-10l-14.8-19.8C337,275,347.3,262.8,347.3,248.4z
	 M317.2,264.1h-31.1v-31.6h31.1c8.7,0,15.8,7.1,15.8,15.8C333,257.1,325.9,264.1,317.2,264.1z"/>
<path d="M439.1,224.7c-0.3-3.3-2.9-5.9-6.1-6.4c-3.3-0.5-6.4,1.4-7.7,4.4l-23.9,59.8l-23.9-59.8c-1.2-3.1-4.4-4.9-7.7-4.4
	c-3.3,0.5-5.8,3.1-6.1,6.4l-7.6,76.5c-0.4,3.9,2.5,7.5,6.4,7.8c3.9,0.4,7.5-2.5,7.8-6.4l4.7-47.3l19.7,49.3c1.1,2.7,3.7,4.5,6.7,4.5
	c2.9,0,5.6-1.8,6.7-4.5l19.7-49.3l4.7,47.3c0.4,3.7,3.5,6.5,7.1,6.5c0.2,0,0.5,0,0.7,0c3.9-0.4,6.8-3.9,6.4-7.8L439.1,224.7z"/>
</svg>
