<?xml version="1.0" encoding="iso-8859-1"?>
<!-- Generator: Adobe Illustrator 19.0.0, SVG Export Plug-In . SVG Version: 6.00 Build 0)  -->
<svg version="1.1" id="Capa_1" xmlns="http://www.w3.org/2000/svg" xmlns:xlink="http://www.w3.org/1999/xlink" x="0px" y="0px"
	 viewBox="0 0 512.002 512.002" style="enable-background:new 0 0 512.002 512.002;" xml:space="preserve">
<path style="fill:#E89A6A;" d="M474.408,332.688v166.961c0,2.681-2.173,4.854-4.854,4.854h-29.121c-2.681,0-4.854-2.173-4.854-4.854
	v-26.209H76.42v26.209c0,2.681-2.173,4.854-4.854,4.854H42.445c-2.681,0-4.854-2.173-4.854-4.854V332.688
	c0-2.681,2.173-4.854,4.854-4.854h28.15h0.971h368.867h0.971h28.15C472.235,327.833,474.408,330.007,474.408,332.688z"/>
<path style="fill:#D3754F;" d="M474.408,332.688v166.961c0,2.681-2.173,4.854-4.854,4.854h-29.121c-2.68,0-4.852-2.171-4.853-4.851
	c0-0.001,0-0.002,0-0.003V332.688c0-2.681-2.173-4.854-4.854-4.854h9.706h0.971h28.15
	C472.235,327.833,474.408,330.007,474.408,332.688z M70.596,327.833h-28.15c-2.681,0-4.854,2.173-4.854,4.854v166.961
	c0,2.681,2.173,4.854,4.854,4.854h29.121c2.68,0,4.852-2.171,4.853-4.851c0-0.001,0-0.002,0-0.003V332.688
	c0-2.681,2.173-4.854,4.854-4.854h-9.706H70.596z"/>
<path style="fill:#D7AF87;" d="M470.379,230.763H41.621c-2.761,0-5-2.239-5-5V47.501c0-22.091,17.909-40,40-40h358.758
	c22.091,0,40,17.909,40,40v178.262C475.379,228.524,473.14,230.763,470.379,230.763z"/>
<path style="fill:#C49D7A;" d="M475.379,46.329v179.58c0,2.681-2.173,4.854-4.854,4.854h-31.063c2.681,0,4.854-2.173,4.854-4.854
	V46.329c0-21.444-17.384-38.828-38.828-38.828h31.063C457.995,7.501,475.379,24.885,475.379,46.329z"/>
<path style="fill:#F8DBB8;" d="M474.408,439.465H301.043c-14.472,0-28.92-1.196-43.195-3.575l-15.343-2.557
	c-14.275-2.379-28.723-3.575-43.195-3.575H37.592c-5.361,0-9.707-4.346-9.707-9.707v-58.242h456.23v67.949
	C484.115,435.118,479.769,439.465,474.408,439.465z"/>
<path style="fill:#EBC9A0;" d="M484.115,361.809v67.949c0,5.361-4.346,9.707-9.707,9.707h-39.799c5.361,0,9.707-4.346,9.707-9.707
	v-67.949H484.115z"/>
<path style="fill:#FAEDE0;" d="M425.873,46.791V154.99H256H86.127V46.791c0-3.946,4.153-6.513,7.683-4.748l28.06,14.03
	c4.423,2.211,9.3,3.363,14.244,3.363h69.899c4.945,0,9.822-1.151,14.244-3.363l28.06-14.03c3.53-1.765,7.683,0.802,7.683,4.748l0,0
	c0-3.946,4.153-6.513,7.683-4.748l28.06,14.03c4.423,2.211,9.3,3.363,14.244,3.363h69.899c4.945,0,9.822-1.151,14.244-3.363
	l28.06-14.03C421.72,40.278,425.873,42.845,425.873,46.791z"/>
<path style="fill:#FEF0FF;" d="M410.342,60.89c0,34.847-43.46,63.096-97.07,63.096c-0.214,0-0.428,0-0.642-0.001
	C281.255,123.852,256,98.123,256,66.748V46.791c0-3.946,4.153-6.513,7.683-4.748l28.06,14.03c4.423,2.211,9.3,3.363,14.244,3.363
	h69.899c4.945,0,9.822-1.151,14.244-3.363l17.89-8.945C409.536,51.559,410.342,56.163,410.342,60.89z M220.257,56.073
	c-4.423,2.211-9.299,3.363-14.244,3.363h-69.899c-4.945,0-9.822-1.151-14.244-3.363l-28.06-14.03
	c-3.53-1.765-7.683,0.802-7.683,4.748v19.957c0,31.374,25.255,57.103,56.629,57.236c0.214,0.001,0.428,0.001,0.642,0.001
	c53.61,0,97.07-28.249,97.07-63.096c0-4.727-0.806-9.331-2.322-13.761L220.257,56.073z"/>
<g>
	<path style="fill:#FF8269;" d="M494.793,188.546v182.383c0,11.046-8.954,20-20,20H37.207c-11.046,0-20-8.954-20-20V188.546
		c0-27.614,22.386-50,50-50h377.586C472.407,138.546,494.793,160.932,494.793,188.546z"/>
	<path style="fill:#FF8269;" d="M484.5,196.465h-457c-11.046,0-20-8.954-20-20v-17.919c0-11.046,8.954-20,20-20h457
		c11.046,0,20,8.954,20,20v17.919C504.5,187.51,495.546,196.465,484.5,196.465z"/>
</g>
<path style="fill:#FF5050;" d="M494.793,193.846v24.268v153.401c0,10.722-8.692,19.414-19.414,19.414h-31.063
	c10.722,0,19.414-8.692,19.414-19.414V259.56c0-21.444-17.384-38.828-38.828-38.828H26.914c-3.54,0-6.849-0.963-9.707-2.618v-24.268
	c2.858,1.655,6.167,2.618,9.707,2.618h458.172C488.626,196.464,491.935,195.503,494.793,193.846z"/>
<path style="fill:#FFAF91;" d="M454.023,196.464H26.914c-10.722,0-19.414-8.692-19.414-19.414v-19.09
	c0-10.722,8.692-19.414,19.414-19.414h427.109c10.722,0,19.414,8.692,19.414,19.414v19.09
	C473.438,187.773,464.745,196.464,454.023,196.464z"/>
<path d="M485.086,131.046h-2.207V46.329c0-25.545-20.783-46.328-46.328-46.328H75.449c-25.545,0-46.328,20.783-46.328,46.328v84.717
	h-2.207C12.074,131.046,0,143.12,0,157.96v19.09c0,8.302,3.78,15.735,9.707,20.676v173.788c0,8.746,4.196,16.528,10.678,21.447
	v27.088c0,6.797,3.972,12.669,9.707,15.462v64.135c0,6.812,5.542,12.354,12.354,12.354h29.121c6.812,0,12.354-5.542,12.354-12.354
	v-18.709h344.16v18.709c0,6.812,5.542,12.354,12.354,12.354h29.121c6.812,0,12.354-5.542,12.354-12.354v-54.428
	c5.735-2.794,9.707-8.666,9.707-15.462v-36.795c6.482-4.919,10.678-12.701,10.678-21.447V197.727
	c5.927-4.941,9.707-12.375,9.707-20.676v-19.09C512,143.12,499.926,131.046,485.086,131.046z M44.121,46.329
	c0-17.274,14.054-31.328,31.328-31.328h361.102c17.274,0,31.328,14.054,31.328,31.328v84.717h-34.506V46.791
	c0-4.472-2.271-8.545-6.075-10.896c-3.804-2.351-8.464-2.561-12.461-0.56l-28.061,14.03c-3.363,1.682-7.128,2.57-10.89,2.57h-69.898
	c-3.761,0-7.527-0.889-10.891-2.57l-28.06-14.03c-3.513-1.757-7.533-1.806-11.037-0.2c-3.505-1.606-7.525-1.558-11.037,0.2
	l-28.061,14.03c-3.363,1.682-7.128,2.57-10.89,2.57h-69.898c-3.761,0-7.527-0.889-10.891-2.57l-28.06-14.03
	c-4.001-2-8.659-1.791-12.462,0.56c-3.804,2.351-6.075,6.424-6.075,10.896v84.255H44.121V46.329z M15,157.96
	c0-6.569,5.345-11.914,11.914-11.914H366.66c4.142,0,7.5-3.358,7.5-7.5s-3.358-7.5-7.5-7.5H93.627V50.337l24.889,12.444
	c5.435,2.718,11.521,4.154,17.599,4.154h69.898c6.078,0,12.164-1.437,17.598-4.154L248.5,50.337v66.207c0,4.142,3.358,7.5,7.5,7.5
	s7.5-3.358,7.5-7.5V50.337l24.889,12.444c5.435,2.718,11.521,4.154,17.599,4.154h69.898c6.078,0,12.164-1.437,17.598-4.154
	l24.889-12.444v80.709h-23.32c-4.142,0-7.5,3.358-7.5,7.5s3.358,7.5,7.5,7.5h90.033c6.569,0,11.914,5.345,11.914,11.914v19.09
	c0,6.569-5.345,11.914-11.914,11.914H26.914c-6.569,0-11.914-5.345-11.914-11.914V157.96z M443.08,497.001v-23.563
	c0-4.142-3.358-7.5-7.5-7.5H76.42c-4.142,0-7.5,3.358-7.5,7.5v23.563H45.092v-59.744h154.217c14.018,0,28.136,1.168,41.962,3.473
	l15.343,2.557c14.639,2.44,29.587,3.677,44.428,3.677h165.866v50.037H443.08z M476.615,429.758c0,1.217-0.99,2.207-2.207,2.207
	H301.042c-14.018,0-28.136-1.168-41.962-3.473l-15.343-2.557c-14.639-2.44-29.587-3.677-44.428-3.677H37.592
	c-1.217,0-2.207-0.99-2.207-2.207v-21.652c0.41,0.019,0.822,0.031,1.236,0.031h68.919c4.142,0,7.5-3.358,7.5-7.5s-3.358-7.5-7.5-7.5
	H36.621c-6.569,0-11.914-5.345-11.914-11.914V203.867c0.729,0.059,1.463,0.098,2.207,0.098h395.128
	c-17.786,26.909-51.107,51.167-95.4,69.163c-52.564,21.356-115.929,32.645-183.244,32.645c-4.142,0-7.5,3.358-7.5,7.5
	s3.358,7.5,7.5,7.5c69.232,0,134.549-11.67,188.89-33.748c51.391-20.88,89.246-50.249,107.261-83.06h11.313
	c-8.431,50.155-26.693,95.296-51.749,127.668c-26.227,33.885-57.589,51.796-90.695,51.796H132.721c-4.142,0-7.5,3.358-7.5,7.5
	s3.358,7.5,7.5,7.5h342.658c0.415,0,0.826-0.013,1.236-0.031L476.615,429.758L476.615,429.758z M487.293,371.516
	c0,6.569-5.345,11.914-11.914,11.914H363.307c49.892-28.229,89.031-94.181,102.759-179.464h19.02c0.744,0,1.478-0.039,2.207-0.098
	V371.516z"/>
<g>
</g>
<g>
</g>
<g>
</g>
<g>
</g>
<g>
</g>
<g>
</g>
<g>
</g>
<g>
</g>
<g>
</g>
<g>
</g>
<g>
</g>
<g>
</g>
<g>
</g>
<g>
</g>
<g>
</g>
</svg>
