<?xml version="1.0" encoding="utf-8"?>
<!-- Generator: Adobe Illustrator 24.3.0, SVG Export Plug-In . SVG Version: 6.00 Build 0)  -->
<svg version="1.1" id="Capa_1" xmlns="http://www.w3.org/2000/svg" xmlns:xlink="http://www.w3.org/1999/xlink" x="0px" y="0px"
	 viewBox="0 0 512 512" style="enable-background:new 0 0 512 512;" xml:space="preserve">
<style type="text/css">
	.st0{fill:#09E5D0;}
	.st1{fill:#05ABAF;}
	.st2{fill:#E5E1E5;}
	.st3{fill:#B6D7FF;}
	.st4{fill:#69B4FF;}
	.st5{fill:#D77F4A;}
	.st6{fill:#C86D36;}
	.st7{fill:#9B8E99;}
	.st8{fill:#918291;}
	.st9{fill:#FEDF30;}
	.st10{fill:#FAC600;}
	.st11{fill:#FEA95C;}
	.st12{fill:#FE9738;}
</style>
<g>
	<g>
		<path class="st0" d="M414,448.9H98V196.6l158-77.3l158,77.3V448.9z"/>
		<path class="st1" d="M256,119.4l-11.6,5.7l146.4,71.6v95.7c0,64.7-35.6,124.1-92.5,154.8l-3.6,1.9h96h23.3V196.7L256,119.4z"/>
		<g>
			<g>
				<path class="st2" d="M256,443.1c-3.2,0-5.8-2.6-5.8-5.8v-65.8c0-3.2,2.6-5.8,5.8-5.8c3.2,0,5.8,2.6,5.8,5.8v65.8
					C261.8,440.5,259.2,443.1,256,443.1z"/>
			</g>
		</g>
		<g>
			<g>
				<g>
					<path class="st2" d="M273.5,295.3c-3.2,0-5.8-2.6-5.8-5.8v-26c0-3.2,2.6-5.8,5.8-5.8c3.2,0,5.8,2.6,5.8,5.8v26
						C279.3,292.6,276.7,295.3,273.5,295.3z"/>
				</g>
				<g>
					<path class="st2" d="M238.5,295.3c-3.2,0-5.8-2.6-5.8-5.8v-26c0-3.2,2.6-5.8,5.8-5.8s5.8,2.6,5.8,5.8v26
						C244.4,292.6,241.7,295.3,238.5,295.3z"/>
				</g>
			</g>
			<g>
				<path class="st3" d="M256,371.5c-21.4,0-38.7-17.3-38.7-38.7v-38.1c0-2.9,2.3-5.3,5.3-5.3h66.8c2.9,0,5.3,2.3,5.3,5.3v38.1
					C294.7,354.1,277.4,371.5,256,371.5z"/>
			</g>
			<path class="st4" d="M289.4,289.5h-23.3c2.9,0,5.3,2.3,5.3,5.3v38.1c0,17.2-11.3,31.9-27,36.8c3.6,1.2,7.6,1.8,11.6,1.8
				c21.4,0,38.7-17.3,38.7-38.7v-38.1C294.7,291.8,292.3,289.5,289.4,289.5z"/>
		</g>
		<path class="st5" d="M443.4,229.6L256,139.2L68.7,229.6c-2.6,1.2-5.6-0.6-5.6-3.5v-34.9c0-1.5,0.9-2.9,2.2-3.5L256,95.7
			l190.8,92.1c1.3,0.6,2.2,2,2.2,3.5v34.9C448.9,229,445.9,230.8,443.4,229.6L443.4,229.6z"/>
		<g>
			<path class="st6" d="M446.8,187.8L256,95.7l-11.6,5.6l167.1,80.7c7.8,3.8,14.2,14,14.2,22.6v16.5l17.7,8.5
				c2.6,1.2,5.6-0.6,5.6-3.5v-34.9C448.9,189.8,448.1,188.5,446.8,187.8L446.8,187.8z"/>
			<path class="st6" d="M232.7,131.5l-41.5-4.5l-30,14.4c1.1,14.1-6.6,27.4-19.3,33.5l-78.8,37.6v13.6c0,2.9,3,4.7,5.6,3.5
				l175.7-84.9L232.7,131.5z"/>
		</g>
		<path class="st7" d="M444.3,425.6H67.7c-2.6,0-4.7,2.1-4.7,4.7v14c0,2.6,2.1,4.7,4.7,4.7h376.6c2.6,0,4.7-2.1,4.7-4.7v-14
			C448.9,427.7,446.9,425.6,444.3,425.6z"/>
		<path class="st8" d="M444.3,425.6H421c2.6,0,4.7,2.1,4.7,4.7v14c0,2.6-2.1,4.7-4.7,4.7h23.3c2.6,0,4.7-2.1,4.7-4.7v-14
			C448.9,427.7,446.9,425.6,444.3,425.6z"/>
		<g>
			<ellipse class="st9" cx="256" cy="145.3" rx="82.2" ry="82.2"/>
			<path class="st10" d="M280.6,66.8c20.8,14.9,34.3,39.3,34.3,66.8c0,45.4-36.8,82.2-82.2,82.2c-8.5,0-16.8-1.3-24.6-3.7
				c13.5,9.7,30,15.4,47.9,15.4c45.4,0,82.2-36.8,82.2-82.2C338.2,108.5,314,77.3,280.6,66.8z"/>
			<path class="st11" d="M271.2,89.5c4.7,0,7.8,4.2,6.2,8.2c-4.1,10.7-8.7,21.3-13.2,31.8c-0.2,0.6-0.1,0.9,0.5,1.2
				c8.4,4.8,16.7,9.7,25.1,14.5c4.1,2.4,4.8,7.2,1.3,10.5c-15.1,14.4-30.4,28.7-45.6,43.1c-2.6,2.4-5,3-7.7,1.7
				c-2.9-1.4-4.3-4.6-3.1-7.6c1.6-4.1,3.3-8.2,5-12.2c2.7-6.5,5.4-13.1,8.2-19.6c0.3-0.7,0.1-0.9-0.5-1.2c-8.5-4.9-17-9.6-25.4-14.7
				c-3.9-2.3-4.3-7.1-1-10.3c15.1-14.4,30.4-28.7,45.6-43.1C268,90.4,269.5,89.5,271.2,89.5L271.2,89.5z"/>
			<path class="st12" d="M289.6,145.2c-8.4-4.8-16.7-9.7-25.1-14.5c-0.5-0.3-0.7-0.5-0.5-1.2c4.5-10.6,9.1-21.1,13.2-31.8
				c1.6-4-1.6-8.3-6.2-8.2c-1.6,0.1-3.2,1-4.6,2.3c-5.4,5.2-10.9,10.4-16.4,15.5c-0.7,2.3-5,11.2-7.4,17.4c-1.2,3.3,0.1,6.9,3,8.6
				c6.8,4,13.7,7.9,20.5,11.9c4.1,2.4,4.8,7.2,1.3,10.5c-9.7,9.2-19.3,18.3-29,27.5c-1.3,3.3-2.7,6.4-4,9.7c-1.2,3,0.2,6.2,3.1,7.6
				c2.6,1.2,5.1,0.7,7.7-1.7c15.2-14.4,30.4-28.7,45.6-43.1C294.4,152.4,293.8,147.5,289.6,145.2L289.6,145.2z"/>
		</g>
	</g>
	<path d="M292.6,140.2c-7.1-4.1-14.3-8.2-21.4-12.3c3.9-9.2,7.9-18.6,11.6-28c1.4-3.6,0.9-7.7-1.3-10.9c-4.5-6.5-13.1-6.8-18.9-1.3
		c-15.3,14.5-30.4,28.7-45.6,43.1c-3,2.8-4.3,6.5-4,10.3c0.4,3.7,2.6,7.1,6,9.2c7.2,4.3,14.6,8.5,21.8,12.7
		c-3.6,8.5-8.1,18.8-11.6,28c-2.3,5.8,0.3,12.2,6,15c4.4,2.2,9.5,1.7,14.2-2.7c14.8-14.1,30.7-29,45.6-43.1c3-2.8,4.4-6.6,4-10.4
		C298.5,145.6,296.2,142.2,292.6,140.2z M287,151.4c-15.9,15.1-45,43.1-46.5,43.9c-0.1-0.1-0.4-0.2-0.3-0.3c4-10.6,9-21.9,13.1-31.6
		c1.2-2.7,0.7-6.4-3-8.5c-8.4-4.8-16.9-9.5-25.3-14.6c-0.6-0.4-0.6-0.5-0.1-1.1c10.1-9.5,43.1-41.5,46.5-43.9
		c0.3,0.1,0.4,0.2,0.4,0.3c-4.1,10.6-8.7,21.2-13.1,31.6c-1.4,3.3-0.2,6.8,2.9,8.5c8.4,4.8,16.7,9.7,25.1,14.5
		C287.6,150.7,287.6,150.8,287,151.4L287,151.4z M414,358.8c3.2,0,5.8-2.6,5.8-5.8V224.7l21,10.2c3,1.5,6.5,1.2,9.4-0.5
		c2.9-1.8,4.6-4.9,4.6-8.2v-34.9c0-3.7-2.2-7.1-5.5-8.8L343,131.1c-6.8-41.8-43.2-73.8-87-73.8c-48.5,0-88,39.5-88,88
		c0,9.7,1.6,19,4.5,27.8l-103.6,50v-30.5l83.1-40.1c2.9-1.4,4.1-4.9,2.7-7.8c-1.4-2.9-4.9-4.1-7.8-2.7l-84.2,40.6
		c-3.3,1.6-5.5,5-5.5,8.8v34.9c0,3.3,1.7,6.4,4.6,8.2c2.9,1.8,6.4,1.9,9.4,0.5l21-10.2v195.1H67.7c-5.7,0-10.5,4.7-10.5,10.5v14
		c0,5.7,4.7,10.5,10.5,10.5h376.6c5.7,0,10.5-4.7,10.5-10.5v-14c0-5.7-4.7-10.5-10.5-10.5h-24.5v-43.6c0-3.2-2.6-5.8-5.8-5.8
		s-5.8,2.6-5.8,5.8v43.6H261.8v-42.9c21.7-2.9,38.7-21.5,38.7-44v-38.1c0-6.1-5-11.1-11.1-11.1h-10.1v-20.2c0-3.2-2.6-5.8-5.8-5.8
		c-3.2,0-5.8,2.6-5.8,5.8v20.2h-23.3v-20.2c0-3.2-2.6-5.8-5.8-5.8s-5.8,2.6-5.8,5.8v20.2h-10.1c-6.1,0-11.1,5-11.1,11.1v38.1
		c0,22.5,16.8,41.2,38.7,44v42.9H103.8V219.1l73.1-35.2c14.3,29.3,44.4,49.5,79.1,49.5s64.8-20.2,79.1-49.5l73.1,35.2V353
		C408.2,356.2,410.8,358.8,414,358.8z M223.2,332.8v-37.5h65.6v37.5c0,18.1-14.8,32.8-32.8,32.8S223.2,350.9,223.2,332.8z
		 M443.1,431.5v11.6H68.9v-11.6H443.1z M256,221.7c-42.2,0-76.4-34.2-76.4-76.4s34.2-76.4,76.4-76.4s76.4,34.2,76.4,76.4
		C332.4,187.4,298.2,221.7,256,221.7z M339.6,173c2.9-8.7,4.5-18.1,4.5-27.8c0-0.2,0-0.4,0-0.6l99.1,47.9V223L339.6,173z"/>
</g>
</svg>
