<?xml version="1.0" encoding="utf-8"?>
<!-- Generator: Adobe Illustrator 24.3.0, SVG Export Plug-In . SVG Version: 6.00 Build 0)  -->
<svg version="1.1" id="Capa_1" xmlns="http://www.w3.org/2000/svg" xmlns:xlink="http://www.w3.org/1999/xlink" x="0px" y="0px"
	 viewBox="0 0 512 512" style="enable-background:new 0 0 512 512;" xml:space="preserve">
<style type="text/css">
	.st0{fill-rule:evenodd;clip-rule:evenodd;fill:#B6D7FF;}
	.st1{fill-rule:evenodd;clip-rule:evenodd;fill:#09E5D0;}
</style>
<g>
	<g>
		<path class="st0" d="M102,80.2v28.1v219c0,7.5,6.2,13.7,13.7,13.7h217.4l55.3,41.8l27.7,20.9V341h22.2c7.5,0,13.7-6.2,13.7-13.7
			V80.2c0-7.5-6.2-13.7-13.7-13.7H115.7C108.2,66.5,102,72.6,102,80.2L102,80.2z"/>
	</g>
	<g>
		<path class="st1" d="M60,122v247.2c0,7.5,6.2,13.7,13.7,13.7h22.2v62.7l83-62.7h209.6L333.1,341H115.7c-7.5,0-13.7-6.2-13.7-13.7
			v-219H73.7C66.1,108.3,60,114.4,60,122L60,122z"/>
	</g>
	<g>
		<path d="M438.3,58.5H115.7c-11.9,0-21.7,9.7-21.7,21.7v20.1H73.7c-12,0-21.7,9.7-21.7,21.7v247.2c0,12,9.7,21.7,21.7,21.7h14.2
			v54.7c0,3,1.7,5.8,4.4,7.1c1.1,0.6,2.3,0.8,3.6,0.8c1.7,0,3.4-0.5,4.8-1.6l80.9-61.1h204.3l25.5,19.3c1.4,1.1,3.1,1.6,4.8,1.6
			c1.2,0,2.4-0.3,3.6-0.8c2.7-1.3,4.4-4.1,4.4-7.1V349h14.2c12,0,21.7-9.7,21.7-21.7V80.2C460,68.2,450.3,58.5,438.3,58.5
			L438.3,58.5z M444.1,327.3c0,3.1-2.6,5.7-5.7,5.7h-22.2c-4.4,0-8,3.6-8,8v46.7l-70.2-53.1c-1.4-1-3.1-1.6-4.8-1.6h-90.9
			c-4.4,0-8,3.6-8,8c0,4.4,3.6,8,8,8h88.2l34.3,25.9H178.8c-1.7,0-3.4,0.6-4.8,1.6l-70.2,53.1v-46.7c0-4.4-3.6-8-8-8H73.7
			c-3.2,0-5.7-2.6-5.7-5.7V122c0-3.1,2.6-5.7,5.7-5.7H94v211.1c0,12,9.7,21.7,21.7,21.7h55c4.4,0,8-3.6,8-8s-3.6-8-8-8h-55
			c-3.1,0-5.7-2.6-5.7-5.7V80.2c0-3.1,2.6-5.7,5.7-5.7h322.6c3.2,0,5.7,2.6,5.7,5.7L444.1,327.3z"/>
		<path d="M289.2,211.4c-0.1-0.2-0.2-0.4-0.2-0.6l-24.6-58.4c-0.1-0.1-0.1-0.2-0.2-0.3c-0.8-1.7-2.2-3.1-4.1-3.9
			c-4.1-1.7-8.7,0.2-10.4,4.2l-24.7,58.6c0,0,0,0.1,0,0.1l-13.7,32.5c-1.7,4.1,0.2,8.7,4.2,10.4c1,0.4,2.1,0.6,3.1,0.6
			c3.1,0,6.1-1.8,7.3-4.9l11.7-27.6h38.9l11.6,27.6c1.3,3,4.2,4.9,7.3,4.9c1,0,2.1-0.2,3.1-0.6c4.1-1.7,6-6.4,4.2-10.4L289.2,211.4z
			 M244.2,206.2L257,176l12.7,30.2H244.2z"/>
		<path d="M399.1,228.2c6.2-9.1,10-20.5,10-32.9c0-29.8-21.6-54-48.2-54c-26.6,0-48.2,24.2-48.2,54c0,29.8,21.6,54.1,48.2,54.1
			c10.1,0,19.6-3.5,27.3-9.6l15,14.9c1.6,1.5,3.6,2.3,5.6,2.3c2,0,4.1-0.8,5.7-2.4c3.1-3.1,3.1-8.2,0-11.3L399.1,228.2z
			 M387.5,216.8L373.7,203c-3.1-3.1-8.2-3.1-11.3,0c-3.1,3.1-3.1,8.2,0,11.3l14.3,14.2c-4.7,3.2-10.1,5-15.9,5
			c-17.8,0-32.3-17.1-32.3-38.1c0-21,14.5-38.1,32.3-38.1c17.8,0,32.3,17.1,32.3,38.1C393.1,203.3,391,210.7,387.5,216.8z"/>
		<path d="M207.3,197.3c0-4.4-3.6-8-8-8h-43.2v-25.8h43.2c4.4,0,8-3.6,8-8c0-4.4-3.6-8-8-8h-51.1c-4.4,0-8,3.6-8,8v93.6
			c0,4.4,3.6,8,8,8c4.4,0,8-3.6,8-8v-43.8h43.2C203.7,205.3,207.3,201.7,207.3,197.3L207.3,197.3z"/>
		<path d="M206.5,333.1c-4.4,0-8,3.6-8,8s3.6,8,8,8h0c4.4,0,8-3.6,8-8S210.9,333.1,206.5,333.1z"/>
	</g>
</g>
</svg>
