<?xml version="1.0" encoding="utf-8"?>
<!-- Generator: Adobe Illustrator 24.3.0, SVG Export Plug-In . SVG Version: 6.00 Build 0)  -->
<svg version="1.1" id="Layer_1" xmlns="http://www.w3.org/2000/svg" xmlns:xlink="http://www.w3.org/1999/xlink" x="0px" y="0px"
	 viewBox="0 0 512 512" style="enable-background:new 0 0 512 512;" xml:space="preserve">
<style type="text/css">
	.st0{fill:#B6D7FF;}
	.st1{fill:#05ABAF;}
	.st2{fill:#09E5D0;}
	.st3{fill:#FF8B59;}
	.st4{fill:#12304C;}
</style>
<path class="st0" d="M56,56h400v400H56V56z"/>
<path class="st1" d="M456,365.6V456h-61.6l-81-112.2l63.4-87.8L456,365.6z"/>
<path class="st2" d="M394.5,456H56v0l169.2-234.3l88.3,122.2L394.5,456z"/>
<path d="M152.8,363.7c-3.4,0-6.1-2.7-6.1-6.1c0-1.3,0.4-2.5,1.2-3.6l45.8-63.5c1.9-2.8,5.7-3.4,8.5-1.5c2.8,1.9,3.4,5.7,1.5,8.5
	c0,0.1-0.1,0.1-0.1,0.2l-45.9,63.5C156.6,362.8,154.7,363.7,152.8,363.7z"/>
<circle class="st3" cx="148.3" cy="148.3" r="30.8"/>
<g>
	<path d="M456,49.9H56c-3.4,0-6.1,2.7-6.1,6.1v400c0,0.1,0,0.3,0,0.4c0,0.2,0,0.4,0.1,0.7c0,0.2,0.1,0.4,0.1,0.6s0.1,0.4,0.2,0.6
		c0.1,0.2,0.2,0.4,0.3,0.5c0.1,0.2,0.2,0.3,0.3,0.5s0.2,0.3,0.3,0.5c0.1,0.2,0.2,0.3,0.4,0.4c0.2,0.2,0.3,0.3,0.5,0.5
		c0.1,0.1,0.2,0.2,0.3,0.3c0,0,0,0,0.1,0c0.5,0.3,1,0.6,1.5,0.8c0.1,0,0.2,0.1,0.3,0.1c0.5,0.2,1.1,0.2,1.6,0.3h400
		c3.4,0,6.1-2.7,6.1-6.1V206.4c0-3.4-2.7-6.1-6.1-6.1s-6.1,2.7-6.1,6.1v140.4l-68.1-94.3c-2.2-2.7-6.1-3.2-8.9-1
		c-0.4,0.3-0.7,0.6-1,1L330.4,310c-2,2.7-1.4,6.5,1.4,8.5c2.7,2,6.5,1.4,8.5-1.4l36.6-50.7l73.1,101.1v82.4h-52.4L230.2,218.1
		c-2.2-2.7-6.1-3.2-8.9-1c-0.4,0.3-0.7,0.6-1,1l-78.5,108.7c-2,2.7-1.4,6.5,1.4,8.5c2.7,2,6.5,1.4,8.5-1.4l73.6-101.9l157.3,217.9
		H67.9l62.2-86.1c2-2.7,1.5-6.5-1.2-8.5s-6.5-1.5-8.5,1.2c0,0.1-0.1,0.1-0.1,0.2l-58.1,80.5V62.1h387.9v44.4c0,3.4,2.7,6.1,6.1,6.1
		s6.1-2.7,6.1-6.1V56C462.1,52.6,459.4,49.9,456,49.9L456,49.9z"/>
	<path class="st4" d="M456,136c-3.4,0-6.1,2.7-6.1,6.1l0,0v30.4c0,3.4,2.7,6.1,6.1,6.1s6.1-2.7,6.1-6.1v-30.4
		C462.1,138.7,459.4,136,456,136L456,136z"/>
	<path class="st4" d="M111.4,148.3c0,20.4,16.5,36.9,36.9,36.9s36.9-16.5,36.9-36.9s-16.5-36.9-36.9-36.9l0,0
		C128,111.4,111.5,127.9,111.4,148.3z M173,148.3c0,13.6-11.1,24.7-24.7,24.7c-13.6,0-24.7-11.1-24.7-24.7
		c0-13.6,11.1-24.7,24.7-24.7l0,0C161.9,123.6,173,134.6,173,148.3C173,148.3,173,148.3,173,148.3L173,148.3z"/>
</g>
</svg>
