<?xml version="1.0" encoding="utf-8"?>
<!-- Generator: Adobe Illustrator 24.3.0, SVG Export Plug-In . SVG Version: 6.00 Build 0)  -->
<svg version="1.1" id="Capa_1" xmlns="http://www.w3.org/2000/svg" xmlns:xlink="http://www.w3.org/1999/xlink" x="0px" y="0px"
	 viewBox="0 0 512 512" style="enable-background:new 0 0 512 512;" xml:space="preserve">
<style type="text/css">
	.st0{fill:#09E5D0;}
	.st1{fill:#05ABAF;}
	.st2{fill:#FFD347;}
	.st3{fill:#FE8A46;}
	.st4{fill:#F26C2C;}
</style>
<g>
	<rect x="201" y="45.3" class="st0" width="110" height="101.2"/>
	<rect x="283.5" y="45.3" class="st1" width="27.5" height="101.2"/>
	<rect x="242.3" y="100.2" class="st2" width="27.5" height="46.2"/>
	<rect x="164.4" y="420.3" class="st0" width="183.3" height="46.4"/>
	<rect x="320.1" y="420.3" class="st1" width="27.5" height="46.4"/>
	<path class="st0" d="M384.3,210.2c0-40.5-32.8-73.3-73.3-73.3l-110,0c-40.5,0-73.3,32.8-73.3,73.3l0,183.3
		c0,20.2,16.4,36.7,36.7,36.7h183.3c20.2,0,36.7-16.4,36.7-36.7L384.3,210.2z"/>
	<path class="st1" d="M311,136.9h-27.5c40.5,0,73.3,32.8,73.3,73.3l0,183.3c0,20.2-16.4,36.7-36.7,36.7h27.5
		c20.2,0,36.7-16.4,36.7-36.7l0-183.3C384.3,169.7,351.5,136.9,311,136.9z"/>
	<path class="st3" d="M292.1,314c-2.9-46.1-36.1-67.1-36.1-67.1c-1,20.6-14.2,33.9-14.2,33.9l-8.3-8.3
		c-18.2,26.6-13.9,52.3-13.9,52.3v0c2.3,18.1,17.7,32,36.4,32c20.2,0,36.7-16.4,36.7-36.7C292.7,319,292.2,314.8,292.1,314z"/>
	<path class="st4" d="M292.1,314c-2.9-46.1-36.1-67.1-36.1-67.1c-0.3,5.3-1.3,10.2-2.8,14.4c9.1,11,19.1,28.3,20.7,52.7
		c0.1,0.9,0.5,5,0.5,6.2c0,17.1-11.7,31.4-27.5,35.5c2.9,0.7,6,1.1,9.1,1.1c20.2,0,36.7-16.4,36.7-36.7
		C292.7,319,292.2,314.8,292.1,314z"/>
	<path d="M338.5,216.5h18.3c3.5,0,6.4-2.8,6.4-6.4s-2.8-6.4-6.4-6.4h-18.3c-3.5,0-6.4,2.8-6.4,6.4
		C332.1,213.7,335,216.5,338.5,216.5z"/>
	<path d="M390.6,393.4l0-183.2c0-41.8-32.3-76.2-73.3-79.4V45.3c0-3.5-2.8-6.4-6.4-6.4H201c-3.5,0-6.4,2.8-6.4,6.4v85.5
		c-41,3.3-73.3,37.6-73.3,79.4v0l0,0l0,0l0,183.3c0,21.6,15.9,39.5,36.6,42.5v30.8c0,3.5,2.8,6.4,6.4,6.4h183.3
		c3.5,0,6.4-2.8,6.4-6.4V436C374.7,432.9,390.6,415,390.6,393.4C390.6,393.5,390.6,393.5,390.6,393.4
		C390.6,393.4,390.6,393.4,390.6,393.4z M304.6,51.6v78.9l-28.5,0v-30.3c0-3.5-2.8-6.4-6.4-6.4h-27.5c-3.5,0-6.4,2.8-6.4,6.4v30.3
		l-28.5,0V51.6H304.6z M248.6,130.5v-23.9h14.8v23.9C263.4,130.5,248.6,130.5,248.6,130.5z M341.3,460.4H170.7v-23.9h170.5V460.4z
		 M347.6,423.7H164.4c-16.7,0-30.3-13.6-30.3-30.3l0-176.9h174.7c3.5,0,6.4-2.8,6.4-6.4s-2.8-6.4-6.4-6.4H134.4
		c3.2-33.9,31.9-60.6,66.6-60.6h110c0,0,0,0,0,0c36.9,0,66.9,30,66.9,66.9l0,176.9H203.2c-3.5,0-6.4,2.8-6.4,6.4
		c0,3.5,2.8,6.4,6.4,6.4h174.1C374.3,413.5,362.1,423.7,347.6,423.7z"/>
	<path d="M173.5,387.1h-18.3c-3.5,0-6.4,2.8-6.4,6.4c0,3.5,2.8,6.4,6.4,6.4h18.3c3.5,0,6.4-2.8,6.4-6.4
		C179.9,389.9,177,387.1,173.5,387.1z"/>
	<path d="M213.4,325.8c2.8,21.3,21.1,37.4,42.6,37.4c23.7,0,43-19.3,43-43c0-1-0.2-2.6-0.4-5c-0.1-0.7-0.1-1.3-0.2-1.6v0
		c-3-48.7-37.6-71.2-39.1-72.1c-1.9-1.2-4.3-1.3-6.3-0.3c-2,1-3.3,3.1-3.4,5.3c-0.5,10.9-5,19.5-8.4,24.6l-3.2-3.2
		c-1.3-1.3-3.2-2-5.1-1.8c-1.9,0.2-3.6,1.2-4.7,2.7c-8,11.7-13.1,25.2-14.8,39c-0.5,4.4-0.7,8.7-0.5,12.8
		C213,323.1,213.2,324.7,213.4,325.8z M234.7,282.6l2.6,2.6c1.2,1.2,2.8,1.9,4.5,1.9c0,0,0,0,0,0c1.7,0,3.3-0.7,4.5-1.9
		c0.5-0.5,10.2-10.4,14.3-26.5c9.3,8.9,23.4,27,25.2,55.6v0c0,0.3,0.1,1.1,0.2,2c0.1,1,0.3,3.2,0.3,3.7c0,16.7-13.6,30.3-30.3,30.3
		c-15.2,0-28.2-11.4-30.1-26.5c0-0.1,0-0.2,0-0.2C225.9,323.5,223,304.2,234.7,282.6z"/>
</g>
</svg>
