<?xml version="1.0" encoding="utf-8"?>
<!-- Generator: Adobe Illustrator 24.3.0, SVG Export Plug-In . SVG Version: 6.00 Build 0)  -->
<svg version="1.1" id="Capa_1" xmlns="http://www.w3.org/2000/svg" xmlns:xlink="http://www.w3.org/1999/xlink" x="0px" y="0px"
	 viewBox="0 0 512 512" style="enable-background:new 0 0 512 512;" xml:space="preserve">
<style type="text/css">
	.st0{fill:#05ABAF;}
	.st1{fill:#09E5D0;}
	.st2{fill:#B6D7FF;}
	.st3{fill:#FF8B59;}
</style>
<path class="st0" d="M116.9,64.8c-17.2,0-31.1,13.9-31.1,31.1v103.5v62v154.8c0-17.2,13.9-31.1,31.1-31.1h309.3V64.8H116.9z"/>
<rect x="135.5" y="64.8" class="st1" width="290.7" height="320.2"/>
<path class="st2" d="M395.8,245.5v-41.1h-3.9c-10.2,0-19.2-6.2-23.1-15.6c0-0.1-0.1-0.2-0.1-0.3c-3.9-9.4-1.9-20.2,5.3-27.5l2.8-2.8
	l-29.1-29.1l-2.8,2.8c-7.2,7.2-18,9.2-27.5,5.3c-0.1,0-0.2-0.1-0.3-0.1c-9.4-3.9-15.6-12.9-15.6-23.1v-3.9h-41.1v4
	c0,10.1-6.2,19.2-15.6,23.1c-0.1,0-0.2,0.1-0.3,0.1c-9.4,3.9-20.2,2-27.4-5.2l-2.8-2.8L185,158.2l2.9,2.9c7.2,7.2,9.2,18,5.3,27.4
	c0,0.1-0.1,0.2-0.1,0.3c-3.9,9.4-12.9,15.6-23.1,15.6h-4.1v41.1h4.2c10.1,0,19.2,6.2,23,15.6c0,0.1,0.1,0.2,0.1,0.3
	c3.9,9.4,1.9,20.2-5.2,27.4l-3,3l29.1,29.1l3-3c7.2-7.2,18-9.1,27.4-5.2c0.1,0,0.2,0.1,0.3,0.1c9.4,3.9,15.6,12.9,15.6,23v4.2h41.1
	v-4.1c0-10.2,6.2-19.2,15.6-23.1c0.1,0,0.2-0.1,0.3-0.1c9.4-3.9,20.2-1.9,27.4,5.3l2.9,2.9l29.1-29.1l-2.8-2.8
	c-7.2-7.2-9.2-18-5.2-27.4c0-0.1,0.1-0.2,0.1-0.3c3.9-9.4,12.9-15.6,23.1-15.6L395.8,245.5L395.8,245.5L395.8,245.5z"/>
<path class="st3" d="M320.3,264.9c16.3-16.3,20.5-40.3,12.4-60.4l-32.3,32.3l-24.8-6.2l-6.2-24.8l32.3-32.3
	c-20.2-8.2-44.2-4.1-60.6,12.3c-15.4,15.4-20,37.5-13.7,56.9l-32.6,32.6c-0.8,5-3.1,9.7-6.9,13.5l-3,3l29.1,29.1l3-3
	c4-4,9-6.3,14.3-7l32.1-32.1l0,0C282.9,284.8,305,280.3,320.3,264.9z"/>
<path class="st2" d="M426.2,447.2H116.9c-17.2,0-31.1-13.9-31.1-31.1l0,0c0-17.2,13.9-31.1,31.1-31.1h309.3V447.2z"/>
<path d="M426.2,57H116.9C95.4,57,78,74.5,78,95.9v38.6c0,4.3,3.5,7.8,7.8,7.8c4.3,0,7.8-3.5,7.8-7.8V95.9
	c0-12.9,10.5-23.3,23.3-23.3h10.9V327c0,4.3,3.5,7.8,7.8,7.8s7.8-3.5,7.8-7.8V72.6h275.1v304.7H116.9c-8.7,0-16.8,2.9-23.3,7.8
	V205.5c0-4.3-3.5-7.8-7.8-7.8c-4.3,0-7.8,3.5-7.8,7.8v210.6c0,21.4,17.4,38.9,38.9,38.9h309.3c4.3,0,7.8-3.5,7.8-7.8V64.8
	C434,60.5,430.5,57,426.2,57z M116.9,439.4c-12.9,0-23.3-10.5-23.3-23.3c0-12.9,10.5-23.3,23.3-23.3h301.6v15.5h-67.5
	c-4.3,0-7.8,3.5-7.8,7.8c0,4.3,3.5,7.8,7.8,7.8h67.5v15.5H116.9z"/>
<path d="M85.8,180.6c2,0,4-0.8,5.5-2.3c1.4-1.4,2.3-3.5,2.3-5.5c0-2-0.8-4-2.3-5.5c-1.4-1.4-3.5-2.3-5.5-2.3s-4,0.8-5.5,2.3
	c-1.4,1.4-2.3,3.5-2.3,5.5c0,2,0.8,4,2.3,5.5C81.7,179.8,83.7,180.6,85.8,180.6z"/>
<path d="M141,361.1c1.4-1.4,2.3-3.5,2.3-5.5c0-2.1-0.8-4.1-2.3-5.5c-1.4-1.5-3.5-2.3-5.5-2.3s-4,0.8-5.5,2.3
	c-1.4,1.4-2.3,3.4-2.3,5.5c0,2,0.8,4,2.3,5.5c1.4,1.4,3.5,2.3,5.5,2.3S139.6,362.5,141,361.1z"/>
<path d="M185.9,185.8c-2.7,6.6-8.9,10.8-15.9,10.8h-4.1c-4.3,0-7.8,3.5-7.8,7.8v41.1c0,4.3,3.5,7.8,7.8,7.8h4.2
	c6.9,0,13.1,4.2,15.8,10.8l0.1,0.3c2.7,6.6,1.3,14-3.6,18.9l-3,3c-1.5,1.5-2.3,3.4-2.3,5.5c0,2.1,0.8,4,2.3,5.5l29.1,29.1
	c1.5,1.5,3.4,2.3,5.5,2.3s4-0.8,5.5-2.3l2.9-3c4.9-4.9,12.3-6.3,18.9-3.6l0.3,0.1c6.5,2.7,10.8,8.9,10.8,15.8v4.2
	c0,4.3,3.5,7.8,7.8,7.8h41.1c4.3,0,7.8-3.5,7.8-7.8v-4.1c0-6.9,4.2-13.2,10.8-15.9l0.3-0.1c6.6-2.7,14-1.3,18.9,3.6l2.9,2.9
	c3,3,8,3,11,0l29.1-29.1c1.5-1.5,2.3-3.4,2.3-5.5s-0.8-4-2.3-5.5l-2.8-2.8c-4.9-4.9-6.3-12.4-3.6-18.9l0.1-0.4
	c2.7-6.5,8.9-10.8,15.9-10.8h4c4.3,0,7.8-3.5,7.8-7.8v-41.1c0-4.3-3.5-7.8-7.8-7.8h-3.9c-7,0-13.2-4.2-15.9-10.8l-0.1-0.4
	c-2.7-6.6-1.3-14.1,3.6-19l2.8-2.8c3-3,3-8,0-11l-29.1-29.1c-1.5-1.5-3.4-2.3-5.5-2.3c-2.1,0-4,0.8-5.5,2.3l-2.8,2.8
	c-4.9,4.9-12.4,6.3-19,3.6l-0.3-0.1c-6.6-2.7-10.8-9-10.8-15.9V110c0-4.3-3.5-7.8-7.8-7.8h-41.1c-4.3,0-7.8,3.5-7.8,7.8v4
	c0,6.9-4.2,13.2-10.8,15.9l-0.4,0.2c-6.6,2.7-14,1.3-18.9-3.6l-2.8-2.8c-1.5-1.5-3.4-2.3-5.5-2.3s-4,0.8-5.5,2.3l-29.1,29.1
	c-1.5,1.5-2.3,3.4-2.3,5.5c0,2.1,0.8,4,2.3,5.5l2.9,2.9c4.9,4.9,6.3,12.3,3.6,18.9L185.9,185.8z M214.3,309.9l-18.4-18.4
	c3-3.7,5-8,6.1-12.5c0.2-0.1,0.3-0.3,0.4-0.4l30.5-30.5c2.1-2.1,2.8-5.1,1.9-7.9c-5.6-17.3-1.1-36.1,11.8-49
	c10.7-10.7,25.5-15.6,40.1-13.8l-22.8,22.8c-1.9,1.9-2.7,4.7-2,7.4l6.2,24.8c0.7,2.8,2.9,5,5.7,5.7l24.8,6.2c2.7,0.7,5.5-0.1,7.4-2
	l22.7-22.7c1.7,14.5-3.2,29.2-13.8,39.9c-12.9,12.9-31.6,17.4-48.9,11.8c-3-1-6.3,0-8.3,2.4l-29.8,29.8c0,0-0.1,0.1-0.1,0.1
	C222.8,304.6,218.2,306.7,214.3,309.9z M200.3,191.7l0.1-0.3c4.7-11.3,2.9-23.9-4.5-33.1l18.4-18.4c9.3,7.3,21.9,9.1,33.1,4.4
	l0.3-0.1c11.2-4.6,18.8-14.8,20.2-26.5h26c1.4,11.7,9,21.9,20.2,26.5l0.3,0.1c11.2,4.7,23.8,2.9,33.1-4.4l18.4,18.4
	c-7.3,9.2-9.1,21.8-4.4,33.1c0,0,0,0.1,0,0.1l0.1,0.2c4.6,11.2,14.8,18.9,26.5,20.2v26c-11.7,1.4-21.9,9-26.5,20.2l-0.1,0.3
	c-4.7,11.2-2.9,23.9,4.4,33.1l-18.4,18.4c-9.2-7.4-21.9-9.2-33.1-4.5l-0.3,0.1c-11.3,4.6-18.9,14.8-20.2,26.6h-26
	c-1.3-11.8-8.9-22-20.2-26.6l18.2-18.2c21.5,5.2,44.1-1.1,60-16.9c18.1-18.1,23.6-45.1,14.1-68.8c-1-2.4-3.1-4.2-5.7-4.7
	c-2.6-0.5-5.2,0.3-7.1,2.1l-29.1,29.1l-16-4l-4-16l29.2-29.2c1.8-1.8,2.6-4.5,2.1-7c-0.5-2.6-2.3-4.7-4.7-5.7
	c-23.8-9.6-50.9-4.1-69,14c-15.9,15.9-22.1,38.6-16.9,60.1l-18.3,18.3c0-0.1-0.1-0.2-0.1-0.3l-0.1-0.3
	c-4.6-11.2-14.8-18.9-26.6-20.2v-26C185.4,210.6,195.6,202.9,200.3,191.7z"/>
<path d="M321.8,408.3c-2,0-4,0.8-5.5,2.3c-1.4,1.4-2.3,3.5-2.3,5.5s0.8,4,2.3,5.5c1.5,1.4,3.5,2.3,5.5,2.3c2.1,0,4.1-0.8,5.5-2.3
	c1.4-1.4,2.3-3.5,2.3-5.5s-0.8-4-2.3-5.5C325.8,409.2,323.8,408.3,321.8,408.3z"/>
</svg>
