<?xml version="1.0" encoding="utf-8"?>
<!-- Generator: Adobe Illustrator 24.3.0, SVG Export Plug-In . SVG Version: 6.00 Build 0)  -->
<svg version="1.1" id="Layer_1" xmlns:svgjs="http://svgjs.com/svgjs"
	 xmlns="http://www.w3.org/2000/svg" xmlns:xlink="http://www.w3.org/1999/xlink" x="0px" y="0px" viewBox="0 0 512 512"
	 style="enable-background:new 0 0 512 512;" xml:space="preserve">
<style type="text/css">
	.st0{fill:#D2E4FF;}
	.st1{fill:#FFE4C1;}
	.st2{fill:#B6D7FF;}
	.st3{fill:#09E5D0;}
	.st4{fill:#05ABAF;}
</style>
<g>
	<g>
		<path class="st0" d="M439.3,204.3c6.8,5.5,11.5,13.4,12.8,22.5c-2.5-17.2-17.3-30.4-35.2-30.4h-54.4v54.3L439.3,204.3z"/>
		<path class="st1" d="M419.3,436.9c-0.1,0-0.2,0-0.2,0c0,0-0.1,0-0.1,0c9-0.5,17.1-4.4,23.1-10.4c-5.9,5.9-13.8,9.7-22.7,10.3
			C419.4,436.9,419.4,436.9,419.3,436.9z"/>
		<path class="st1" d="M452.5,230.5C452.5,230.5,452.5,230.5,452.5,230.5C452.5,230.5,452.5,230.5,452.5,230.5z"/>
		<path class="st1" d="M452.4,229.1c0,0,0,0.1,0,0.1C452.4,229.2,452.4,229.1,452.4,229.1z"/>
		<path class="st1" d="M418.2,437C418.2,437,418.2,437,418.2,437c0.1,0,0.1,0,0.2,0c0,0,0,0-0.1,0C418.4,437,418.3,437,418.2,437z"
			/>
		<path class="st1" d="M452.5,230C452.5,230,452.5,230.1,452.5,230C452.5,230.1,452.5,230,452.5,230z"/>
		<path class="st1" d="M452.4,229.6C452.4,229.6,452.4,229.6,452.4,229.6C452.4,229.6,452.4,229.6,452.4,229.6z"/>
		<path class="st1" d="M88,437C88,437,88,437,88,437c0,0,0.1,0,0.2,0c0,0,0,0,0,0C88.1,437,88.1,437,88,437z"/>
		<path class="st1" d="M86.7,436.9c0,0-0.1,0-0.1,0c-8.8-0.6-16.8-4.4-22.7-10.3c6,6,14.1,9.8,23.1,10.4c0,0-0.1,0-0.1,0
			C86.8,437,86.8,437,86.7,436.9z"/>
		<path class="st1" d="M88.5,437c0,0-0.1,0-0.1,0c0.1,0,0.2,0,0.3,0c0,0,0,0,0,0C88.6,437,88.5,437,88.5,437z"/>
		<path class="st1" d="M87.1,437C87.1,437,87.1,437,87.1,437c0.1,0,0.2,0,0.3,0c0,0,0,0-0.1,0C87.3,437,87.2,437,87.1,437z"/>
		<path class="st1" d="M87.6,437C87.5,437,87.5,437,87.6,437c0,0,0.1,0,0.2,0c0,0,0,0,0,0C87.7,437,87.6,437,87.6,437z"/>
		<path class="st1" d="M417.8,437C417.8,437,417.8,437,417.8,437c0.1,0,0.2,0,0.2,0c0,0,0,0-0.1,0C417.9,437,417.9,437,417.8,437z"
			/>
		<path class="st1" d="M53.8,227.5c0-0.2,0.1-0.5,0.1-0.7C53.8,227,53.8,227.2,53.8,227.5z"/>
		<path class="st0" d="M66.7,204.3l76.8,46.3v-54.3H89c-17.9,0-32.7,13.2-35.2,30.4C55.2,217.7,59.9,209.8,66.7,204.3z"/>
		<path class="st1" d="M417.4,437C417.4,437,417.4,437,417.4,437c0.1,0,0.2,0,0.3,0c0,0-0.1,0-0.1,0C417.5,437,417.4,437,417.4,437z
			"/>
		<path class="st1" d="M89,437c-0.1,0-0.2,0-0.3,0C88.8,437,88.9,437,89,437H417c0.1,0,0.2,0,0.3,0c-0.1,0-0.2,0-0.3,0H89z"/>
		<path class="st1" d="M418.7,437C418.7,437,418.6,437,418.7,437c0,0,0.1,0,0.3,0c0,0,0,0,0,0C418.8,437,418.7,437,418.7,437z"/>
		<path class="st1" d="M443.5,425.1c-0.3,0.3-0.5,0.6-0.8,0.9C443,425.7,443.3,425.4,443.5,425.1z"/>
		<path class="st1" d="M63.3,426c-0.3-0.3-0.6-0.6-0.8-0.9C62.7,425.4,63,425.7,63.3,426z"/>
		<path class="st1" d="M53.5,231C53.5,231,53.5,231,53.5,231C53.5,231,53.5,231,53.5,231z"/>
		<path class="st1" d="M444.4,424.1c-0.2,0.2-0.4,0.4-0.5,0.7C444,424.5,444.2,424.3,444.4,424.1z"/>
		<path class="st1" d="M452.2,226.8c0,0.2,0.1,0.5,0.1,0.7C452.2,227.2,452.2,227,452.2,226.8z"/>
		<path class="st1" d="M53.5,230.5C53.5,230.5,53.5,230.5,53.5,230.5C53.5,230.5,53.5,230.5,53.5,230.5z"/>
		<path class="st1" d="M62.2,424.7c-0.2-0.2-0.4-0.4-0.6-0.6C61.8,424.3,62,424.5,62.2,424.7z"/>
		<path class="st1" d="M53.6,229.7C53.6,229.6,53.6,229.6,53.6,229.7C53.6,229.6,53.6,229.6,53.6,229.7z"/>
		<path class="st1" d="M452.4,228.6c0,0,0,0.1,0,0.1C452.4,228.7,452.4,228.7,452.4,228.6z"/>
		<path class="st1" d="M53.7,228.3c0-0.1,0-0.1,0-0.2C53.7,228.2,53.7,228.3,53.7,228.3z"/>
		<path class="st1" d="M53.6,228.8c0-0.1,0-0.1,0-0.2C53.6,228.7,53.6,228.7,53.6,228.8z"/>
		<path class="st1" d="M452.3,228.1c0,0.1,0,0.1,0,0.2C452.3,228.3,452.3,228.2,452.3,228.1z"/>
		<path class="st1" d="M53.7,227.9c0-0.1,0-0.2,0-0.3C53.7,227.7,53.7,227.8,53.7,227.9z"/>
		<path class="st1" d="M53.6,229.2c0,0,0-0.1,0-0.1C53.6,229.1,53.6,229.2,53.6,229.2z"/>
		<path class="st1" d="M452.3,227.6c0,0.1,0,0.2,0,0.3C452.3,227.8,452.3,227.7,452.3,227.6z"/>
	</g>
	<path class="st2" d="M253,316.7l109.5-66.1V105.3c0-12.8-11.5-23.2-25.8-23.2H169.2c-14.2,0-25.8,10.4-25.8,23.2v145.3L253,316.7z
		 M253,121.3c36.5,0,66.1,29.6,66.1,66.1c0,36.5-29.6,66.1-66.1,66.1s-66.1-29.6-66.1-66.1C186.9,150.9,216.5,121.3,253,121.3z"/>
	<path class="st3" d="M452.5,231.5C452.5,231.4,452.5,231.4,452.5,231.5c0-0.2,0-0.3,0-0.5c0,0,0-0.1,0-0.1c0-0.1,0-0.3,0-0.4
		c0,0,0-0.1,0-0.1c0-0.1,0-0.3,0-0.4c0,0,0,0,0,0c0-0.1,0-0.2,0-0.4c0,0,0-0.1,0-0.1c0-0.1,0-0.2,0-0.3c0,0,0-0.1,0-0.1
		c0-0.1,0-0.2,0-0.3c0-0.1,0-0.1,0-0.1c0-0.1,0-0.2,0-0.3c0-0.1,0-0.1,0-0.2c0-0.1,0-0.1,0-0.2c0-0.1,0-0.2,0-0.3c0,0,0-0.1,0-0.1
		c0-0.2-0.1-0.5-0.1-0.7c0,0,0,0,0,0c-1.3-9-6-17-12.8-22.5l-76.8,46.3L253,316.7l186.3,112.4c-5.5,4.5-12.4,7.3-19.9,7.9
		c8.8-0.6,16.8-4.4,22.7-10.3c0.2-0.2,0.4-0.4,0.6-0.6c0.3-0.3,0.6-0.6,0.8-0.9c0.1-0.1,0.2-0.2,0.3-0.4c0.2-0.2,0.4-0.4,0.6-0.6
		c0.1-0.1,0.2-0.2,0.3-0.3c4.9-6.1,7.9-13.8,7.9-22.3V231.9C452.5,231.7,452.5,231.6,452.5,231.5z"/>
	<path class="st4" d="M419.3,436.9c0,0,0.1,0,0.1,0c7.5-0.5,14.4-3.4,19.9-7.9L253,316.7l-109.5-66.1l-76.8-46.3
		c-6.8,5.5-11.5,13.4-12.8,22.5c0,0,0,0,0,0c0,0.2-0.1,0.5-0.1,0.7c0,0,0,0.1,0,0.1c0,0.1,0,0.2,0,0.3c0,0.1,0,0.1,0,0.2
		c0,0.1,0,0.1,0,0.2c0,0.1,0,0.2,0,0.3c0,0,0,0.1,0,0.1c0,0.1,0,0.2,0,0.3c0,0,0,0.1,0,0.1c0,0.1,0,0.2,0,0.3c0,0,0,0.1,0,0.1
		c0,0.1,0,0.2,0,0.4c0,0,0,0,0,0c0,0.1,0,0.3,0,0.4c0,0,0,0.1,0,0.1c0,0.1,0,0.3,0,0.4c0,0,0,0.1,0,0.1c0,0.1,0,0.3,0,0.4v0.1
		c0,0.1,0,0.3,0,0.4v169.6c0,8.4,2.9,16.2,7.8,22.3c0.1,0.1,0.2,0.2,0.3,0.3c0.2,0.2,0.4,0.4,0.5,0.7c0.1,0.1,0.2,0.2,0.3,0.4
		c0.3,0.3,0.5,0.6,0.8,0.9c0.2,0.2,0.4,0.4,0.6,0.6c5.9,5.9,13.8,9.7,22.7,10.3c0,0,0.1,0,0.1,0c0.1,0,0.2,0,0.2,0
		c0.1,0,0.1,0,0.2,0c0.1,0,0.1,0,0.2,0c0.1,0,0.2,0,0.2,0c0.1,0,0.1,0,0.2,0c0.1,0,0.2,0,0.3,0c0.1,0,0.1,0,0.2,0c0.1,0,0.2,0,0.3,0
		c0,0,0.1,0,0.1,0c0.1,0,0.3,0,0.4,0H417c0.1,0,0.2,0,0.3,0h0.1h0c0,0,0.1,0,0.1,0h0.1c0,0,0.1,0,0.1,0h0c0.1,0,0.1,0,0.2,0h0.1
		c0,0,0.1,0,0.1,0h0c0.1,0,0.1,0,0.2,0c0,0,0,0,0.1,0c0,0,0.1,0,0.1,0c0,0,0,0,0.1,0c0.1,0,0.1,0,0.2,0h0c0,0,0,0,0.1,0
		c0,0,0.1,0,0.1,0C419.2,437,419.2,437,419.3,436.9z"/>
	<path class="st3" d="M319.1,187.4c0,36.5-29.6,66.1-66.1,66.1s-66.1-29.6-66.1-66.1c0-36.5,29.6-66.1,66.1-66.1
		S319.1,150.9,319.1,187.4z"/>
	<path d="M246.5,201.3c0,2,0.9,5.3,6.7,5.3c1.6,0,3-0.4,4.4-1.3c1.5-0.9,2.3-2.3,2.3-4.1c0-4.7,0.3-12.7,0.8-23.7
		c0.5-11.1,0.8-19.1,0.8-23.8c0-2.2-0.8-3.9-2.5-5.3c-1.6-1.3-3.5-1.9-5.8-1.9c-2.3,0-4.2,0.6-5.8,1.8c-1.6,1.3-2.4,3.1-2.4,5.3
		c0,4.7,0.3,12.8,0.8,23.8C246.2,188.7,246.5,196.7,246.5,201.3z"/>
	<path d="M253.3,229.1c2.4,0,4.5-0.9,6.2-2.6c1.7-1.7,2.6-3.7,2.6-6c0-2.3-0.9-4.4-2.6-6.1c-1.7-1.7-3.8-2.5-6.2-2.5
		c-2.5,0-4.6,0.8-6.3,2.5c-1.7,1.7-2.6,3.7-2.6,6c0,2.3,0.9,4.4,2.6,6C248.7,228.2,250.8,229.1,253.3,229.1z"/>
	<path d="M253,261.6c40.9,0,74.2-33.3,74.2-74.2s-33.3-74.2-74.2-74.2s-74.2,33.3-74.2,74.2S212.1,261.6,253,261.6z M253,129.4
		c32,0,58,26,58,58c0,32-26,58-58,58s-58-26-58-58C195,155.4,221,129.4,253,129.4z"/>
	<path d="M460.6,231.6C460.6,231.6,460.6,231.6,460.6,231.6c0-0.1,0-0.2,0-0.3c0,0,0-0.1,0-0.1c0-0.1,0-0.1,0-0.2c0,0,0-0.1,0-0.1
		c0-0.1,0-0.1,0-0.2c0,0,0-0.1,0-0.1c0-0.1,0-0.1,0-0.2c0,0,0-0.1,0-0.1c0-0.1,0-0.1,0-0.2c0,0,0-0.1,0-0.1c0-0.1,0-0.1,0-0.2
		c0,0,0-0.1,0-0.1c0-0.1,0-0.1,0-0.2c0,0,0-0.1,0-0.1c0-0.1,0-0.1,0-0.2c0,0,0-0.1,0-0.1c0-0.1,0-0.2,0-0.2c0,0,0-0.1,0-0.1
		c0-0.1,0-0.1,0-0.2c0-0.1,0-0.1,0-0.2c0,0,0-0.1,0-0.1c0-0.1,0-0.1,0-0.2c0,0,0,0,0-0.1c0-0.1,0-0.2,0-0.2c0,0,0,0,0,0
		c-1.1-11.6-6.8-22.3-16-29.7c-0.1-0.1-0.2-0.2-0.3-0.3c-7.5-5.9-16.9-9.5-27.2-9.5h-46.3v-82.9c0-17.3-15.2-31.3-33.9-31.3H169.2
		c-18.7,0-33.9,14-33.9,31.3v82.9H89c-10.3,0-19.7,3.6-27.2,9.5c-0.1,0.1-0.2,0.2-0.3,0.3c-9.2,7.5-14.9,18.1-16,29.7c0,0,0,0,0,0
		c0,0.1,0,0.2,0,0.3v0c0,0.1,0,0.2,0,0.2c0,0,0,0.1,0,0.1c0,0.1,0,0.1,0,0.2c0,0.1,0,0.1,0,0.2c0,0,0,0.1,0,0.1c0,0.1,0,0.2,0,0.2
		c0,0,0,0.1,0,0.1c0,0.1,0,0.1,0,0.2c0,0,0,0.1,0,0.1c0,0.1,0,0.1,0,0.2c0,0,0,0.1,0,0.1c0,0.1,0,0.1,0,0.2c0,0,0,0.1,0,0.1
		c0,0.1,0,0.1,0,0.2c0,0,0,0.1,0,0.1c0,0.1,0,0.1,0,0.2c0,0,0,0.1,0,0.1c0,0.1,0,0.1,0,0.2c0,0,0,0.1,0,0.1c0,0.1,0,0.1,0,0.2v0.1
		c0,0.1,0,0.2,0,0.2v0.1c0,0.1,0,0.2,0,0.3v169.6c0,4.8,0.8,9.4,2.2,13.7v0c0.2,0.7,0.5,1.5,0.8,2.2c0.1,0.2,0.1,0.3,0.2,0.5
		c0,0,0,0.1,0,0.1c0.1,0.4,0.3,0.7,0.5,1.1c0.1,0.1,0.1,0.3,0.2,0.4c4.1,8.9,11,16.3,19.7,20.8c0,0,0,0,0.1,0l0.1,0.1
		c0.1,0,0.1,0.1,0.1,0.1c0.5,0.2,0.9,0.5,1.4,0.7c0,0,0,0,0,0c0,0,0,0,0.1,0c0.5,0.3,1.1,0.5,1.7,0.7c0,0,0,0,0,0
		c5.1,2.1,10.7,3.3,16.6,3.3H417c5.9,0,11.4-1.2,16.6-3.3h0c0.1,0,0.2-0.1,0.3-0.1c0.1,0,0.2-0.1,0.2-0.1c0.1,0,0.2-0.1,0.2-0.1
		c0,0,0,0,0.1,0c0.3-0.1,0.6-0.3,0.9-0.4c0,0,0,0,0,0c0,0,0,0,0,0c0.1,0,0.2-0.1,0.2-0.1c0.4-0.2,0.9-0.4,1.3-0.6c0,0,0,0,0,0
		c0,0,0,0,0,0c13.9-7.1,22.8-20.9,23.7-36.3v0c0-0.2,0-0.5,0-0.7c0,0,0-0.1,0-0.1c0-0.1,0-0.1,0-0.2c0-0.1,0-0.1,0-0.2
		c0,0,0-0.1,0-0.1c0-0.1,0-0.2,0-0.3c0,0,0-0.1,0-0.1c0-0.1,0-0.2,0-0.3c0,0,0-0.1,0-0.1c0-0.1,0-0.2,0-0.3V231.9
		C460.6,231.8,460.6,231.7,460.6,231.6z M61.6,231.9c0-0.1,0-0.2,0-0.3c0,0,0-0.1,0-0.1c0-0.1,0-0.1,0-0.2c0-0.1,0-0.1,0-0.2
		c0-0.1,0-0.1,0-0.2c0-0.1,0-0.1,0-0.2c0-0.1,0-0.1,0-0.2c0-0.1,0-0.1,0-0.2c0-0.1,0-0.1,0-0.2c0-0.1,0-0.1,0-0.2c0-0.1,0-0.1,0-0.2
		c0-0.1,0-0.2,0-0.3c0-0.1,0-0.1,0-0.2c0-0.1,0-0.1,0-0.2c0-0.1,0-0.1,0-0.2c0-0.1,0-0.1,0-0.2c0-0.1,0-0.1,0-0.2c0-0.1,0-0.1,0-0.2
		c0-0.1,0-0.1,0-0.2c0,0,0-0.1,0-0.1c0-0.1,0-0.2,0-0.3c0,0,0,0,0-0.1c0.7-5.1,2.8-9.8,6-13.6l71.2,43c0.1,0,0.1,0.1,0.2,0.1
		l109.5,66.1c0.1,0,0.1,0.1,0.2,0.1l54.3,32.8c3.8,2.3,8.8,1.1,11.1-2.8c2.3-3.8,1.1-8.8-2.8-11.1l-43-25.9l98-59.1
		c0.1,0,0.1-0.1,0.2-0.1l71.2-43c3.1,3.8,5.3,8.5,6,13.6c0,0,0,0,0,0.1c0,0.1,0,0.2,0,0.3c0,0,0,0.1,0,0.1c0,0.1,0,0.1,0,0.2
		c0,0.1,0,0.1,0,0.2c0,0.1,0,0.1,0,0.2c0,0.1,0,0.1,0,0.2c0,0.1,0,0.1,0,0.2c0,0.1,0,0.1,0,0.2c0,0.1,0,0.1,0,0.2c0,0.1,0,0.2,0,0.3
		c0,0.1,0,0.1,0,0.2c0,0.1,0,0.1,0,0.2c0,0.1,0,0.1,0,0.2c0,0.1,0,0.1,0,0.2c0,0.1,0,0.1,0,0.2c0,0.1,0,0.1,0,0.2c0,0.1,0,0.1,0,0.2
		c0,0.1,0,0.1,0,0.2c0,0.1,0,0.1,0,0.2c0,0,0,0.1,0,0.1v0.3v0v169.6c0,0.1,0,0.2,0,0.3v0.1c0,0.1,0,0.2,0,0.2c0,0,0,0.1,0,0.1
		c0,0.1,0,0.2,0,0.2c0,0,0,0.1,0,0.1c0,0.1,0,0.2,0,0.3c0,0,0,0,0,0.1c-0.3,6.1-2.6,11.6-6.2,16l-67.2-40.5
		c-3.8-2.3-8.8-1.1-11.1,2.8c-2.3,3.8-1.1,8.8,2.8,11.1l59.9,36.1c-0.1,0-0.2,0-0.3,0.1c-0.1,0-0.2,0-0.3,0.1c0,0-0.1,0-0.1,0
		c-0.1,0-0.2,0-0.3,0c-0.2,0-0.4,0.1-0.6,0.1c-0.1,0-0.2,0-0.3,0c0,0-0.1,0-0.1,0c-0.1,0-0.2,0-0.3,0l-0.2,0c-0.1,0-0.3,0-0.4,0
		c-0.1,0-0.2,0-0.3,0c-0.1,0-0.2,0-0.2,0c-0.1,0-0.2,0-0.4,0l-0.4,0c0,0-0.1,0-0.1,0c-0.4,0-0.8,0-1.2,0H89c-0.4,0-0.9,0-1.3,0
		c0,0-0.1,0-0.1,0c0,0,0,0-0.1,0c-0.1,0-0.2,0-0.3,0c-0.3,0-0.6,0-0.9-0.1c-0.1,0-0.1,0-0.2,0c0,0,0,0-0.1,0c-0.1,0-0.2,0-0.3,0
		c-0.2,0-0.5-0.1-0.7-0.1c-0.1,0-0.2,0-0.2,0c0,0-0.1,0-0.1,0c-0.1,0-0.2,0-0.2,0c-0.2,0-0.4-0.1-0.6-0.1c-0.1,0-0.2,0-0.2,0
		c-0.1,0-0.2,0-0.3-0.1c-0.1,0-0.1,0-0.2,0c-0.2,0-0.4-0.1-0.6-0.1c-0.1,0-0.2,0-0.2-0.1c-0.2,0-0.3-0.1-0.5-0.1l-0.3-0.1
		c-0.1,0-0.1,0-0.2-0.1c-7.2-2.1-13.3-7.1-16.7-13.7c-0.1-0.1-0.1-0.2-0.1-0.3c-0.1-0.2-0.2-0.4-0.3-0.6c-1.7-3.6-2.6-7.5-2.6-11.7
		V231.9C61.6,231.9,61.6,231.9,61.6,231.9z M417,204.4c1.9,0,3.7,0.2,5.5,0.6l-51.8,31.2v-31.8H417z M151.6,105.3
		c0-8.3,7.9-15.1,17.6-15.1h167.6c9.7,0,17.6,6.8,17.6,15.1V246L253,307.2L151.6,246V105.3z M135.3,204.4v31.8L83.6,205
		c1.8-0.4,3.6-0.6,5.5-0.6H135.3z"/>
</g>
</svg>
