<?xml version="1.0" encoding="utf-8"?>
<!-- Generator: Adobe Illustrator 24.3.0, SVG Export Plug-In . SVG Version: 6.00 Build 0)  -->
<svg version="1.1" id="Layer_1" xmlns="http://www.w3.org/2000/svg" xmlns:xlink="http://www.w3.org/1999/xlink" x="0px" y="0px"
	 viewBox="0 0 512 512" style="enable-background:new 0 0 512 512;" xml:space="preserve">
<style type="text/css">
	.st0{fill:#D2E4FF;}
	.st1{fill:#09E5D0;}
	.st2{fill:#B6D7FF;}
	.st3{fill:#05ABAF;}
</style>
<g>
	<g>
		<path class="st0" d="M292.1,301.7h-53.9l-11.2,15.9h76.4L292.1,301.7z"/>
		<path class="st0" d="M265.1,148.7c-0.1,0.1-52.4,40.2-71.7,55.1v82h143.4v-82L265.1,148.7z"/>
		<path class="st1" d="M265.1,148.7l-78.8,60.6c-2.3,1.8-5.2,2.7-8.4,2.4c-6-0.6-9.3-4-10.4-9.1c-1.1-5,0.9-9.6,4.4-12.3l86-66.1
			c4.3-3.3,10.2-3.3,14.4,0c55.8,42.9-8.2-6.3,86,66.1c2.9,2.2,4.7,5.7,4.7,9.5c0,6.6-5.3,11.9-11.9,11.9c-2.7,0-5.2-0.9-7.3-2.5
			C340.5,206.7,268.7,151.4,265.1,148.7z"/>
		<path class="st1" d="M336.8,270c9.6,0.7,17.2,8.4,18.1,18c4.9,2.7,8.2,7.9,8.2,13.8c0,8.8-7.1,15.9-15.9,15.9
			c-8.9,0-24.9,0-43.8,0c-6.6,0-11.9-5.3-11.9-11.9c0-5.2,3.4-9.6,8-11.2c-0.5-9.3,7-16.6,15.9-16.6c1.3,0,2.5,0.2,3.7,0.5
			C323.2,272.4,330,269.4,336.8,270z"/>
		<path class="st2" d="M336.8,121.7v52l0,0l-23.9-18.3v-33.6L336.8,121.7z"/>
		<path class="st3" d="M281,203.7c9.4,0,15.9,8,15.9,17.5c0,13.1-13,21.8-31.9,38.3c-18.9-16.5-31.9-25.2-31.9-38.3
			c0-9.5,6.5-17.5,15.9-17.5c12.1,0,15.9,13.9,15.9,13.9S268.9,203.7,281,203.7L281,203.7z"/>
		<path class="st1" d="M238.8,305.7c0,6.6-5.3,11.9-11.9,11.9c-18.8,0-34.9,0-43.8,0c-8.8,0-15.9-7.1-15.9-15.9
			c0-6,3.3-11.1,8.2-13.8c0.9-9.6,8.5-17.2,18.1-18c6.8-0.6,13.6,2.5,17.8,8.4c1.2-0.3,2.4-0.5,3.7-0.5c8.8,0,15.9,7.1,15.9,15.9
			c0,0.3-0.1,0.5-0.1,0.7C235.5,296.1,238.8,300.5,238.8,305.7L238.8,305.7z"/>
	</g>
	<g>
		<path d="M249.2,199.7c-11.6,0-19.9,9.7-19.9,21.4c0,12.9,10,21.4,25,34.2c2.6,2.2,5.3,4.5,8.2,7.1c0.7,0.6,1.7,1,2.6,1
			c1,0,1.9-0.3,2.6-1c2.9-2.5,5.6-4.9,8.2-7.1c15-12.8,25-21.3,25-34.2c0-11.8-8.4-21.4-19.9-21.4c-7.9,0-13,4.5-15.9,8.9
			C262.1,204.3,257.1,199.7,249.2,199.7L249.2,199.7z M268.9,218.7c0.1-0.1,3.1-11,12.1-11c6.8,0,11.9,5.8,11.9,13.5
			c0,9.2-8.4,16.4-22.2,28.1c-1.8,1.5-3.7,3.1-5.7,4.9c-2-1.7-3.8-3.3-5.7-4.9c-13.9-11.8-22.2-18.9-22.2-28.1
			c0-7.7,5.1-13.5,11.9-13.5c8.8,0,11.9,10.5,12.1,11c0.5,1.7,2,2.9,3.8,2.9S268.5,220.5,268.9,218.7L268.9,218.7z"/>
		<circle cx="213.3" cy="158.3" r="4"/>
		<path d="M341.5,212.4c2.8,2.1,6.1,3.3,9.6,3.3c8.8,0,15.9-7.1,15.9-15.9c0-5-2.3-9.6-6.3-12.7l-20-15.4v-50c0-2.2-1.8-4-4-4h-23.9
			c-2.2,0-4,1.8-4,4v25.5L274.8,121c-2.8-2.1-6.1-3.3-9.6-3.3s-6.9,1.1-9.6,3.3l-30.3,23.3c-1.8,1.3-2.1,3.8-0.7,5.6
			c1.3,1.8,3.8,2.1,5.6,0.7l30.3-23.3c1.4-1.1,3-1.6,4.8-1.6s3.4,0.6,4.8,1.6l86,66.1c2,1.5,3.1,3.8,3.1,6.3c0,4.4-3.6,7.9-7.9,7.9
			c-1.8,0-3.4-0.6-4.8-1.6c-4.5-3.4-75.2-57.8-78.8-60.6c-1.4-1.1-3.3-1.1-4.7-0.1c-0.2,0.1-78.9,60.7-78.9,60.7
			c-1.6,1.2-3.6,1.8-5.7,1.6c-3.9-0.4-6.1-2.2-6.9-6c-0.7-3.1,0.4-6.3,2.9-8.3l27.3-21c1.8-1.3,2.1-3.8,0.7-5.6
			c-1.3-1.8-3.8-2.1-5.6-0.7l-27.3,21c-5,3.8-7.3,10.1-5.9,16.4c1.6,7.1,6.6,11.5,13.9,12.2c4.1,0.4,8-0.7,11.2-3.2l0,0
			c0.2-0.1,0.4-0.3,0.7-0.5v54.6c-9.1,2.2-16.2,9.6-17.9,19c-5.3,3.7-8.4,9.8-8.4,16.2c0,11,9,19.9,19.9,19.9h164.1
			c11,0,19.9-9,19.9-19.9c0-6.5-3.2-12.5-8.4-16.2c-1.7-9.4-8.7-16.8-17.9-19v-54.6L341.5,212.4z M316.9,125.7h15.9v39.9l-15.9-12.3
			V125.7z M226.9,313.7h-43.8c-6.6,0-11.9-5.4-11.9-11.9c0-4.3,2.3-8.2,6.1-10.3c1.1-0.6,1.9-1.8,2-3.1c0.8-8.2,7.6-14.4,15.8-14.4
			c5.1,0,10,2.5,13,6.8c1,1.3,2.6,2,4.2,1.5c1-0.3,1.9-0.4,2.8-0.4c6.5,0,11.9,5.2,11.9,11.8c-0.3,2.4,1,4.1,2.6,4.6
			c3.1,1.1,5.4,4,5.4,7.5C234.8,310.1,231.3,313.7,226.9,313.7z M295.4,291.9c-2.5,1.4-4.5,3.4-5.9,5.8h-48.9
			c-1.4-2.5-3.5-4.4-5.9-5.8c-0.1-0.7-0.2-1.4-0.3-2.1h61.4C295.7,290.5,295.5,291.2,295.4,291.9z M240.7,313.7
			c1.3-2.3,2.1-5.1,2.1-7.9h44.6c0,2.9,0.8,5.6,2.1,7.9H240.7z M351,288.3c0.1,1.3,0.9,2.5,2,3.1c3.8,2.1,6.1,6.1,6.1,10.3
			c0,6.6-5.4,11.9-11.9,11.9h-43.8c-4.4,0-7.9-3.6-7.9-7.9c0-3.5,2.3-6.4,5.4-7.5c1.7-0.6,2.9-2.2,2.6-4.6
			c0.1-6.6,5.5-11.8,11.9-11.8c0.9,0,1.8,0.1,2.8,0.4c1.6,0.4,3.3-0.3,4.2-1.5c3-4.2,7.8-6.8,13-6.8
			C343.4,273.8,350.2,280.1,351,288.3L351,288.3z M332.8,266c-6,0.6-11.5,3.5-15.5,7.9c-0.7-0.1-1.4-0.1-2-0.1
			c-6.3,0-12.2,3-15.9,7.9h-68.6c-3.7-5-9.6-7.9-15.9-7.9c-0.7,0-1.3,0.1-2,0.1c-4-4.5-9.5-7.4-15.5-7.9v-60.2
			c5.8-4.4,61-47,67.7-52.1l67.7,52.1V266z"/>
	</g>
</g>
<g>
	<g>
		<path d="M467.8,265.6c0-30.1-9.7-58.9-28.1-84.3c5.6,1.6,12,3,18.9,3.7c3.3,0.4,6.3-2,6.7-5.3c0.4-3.3-2-6.3-5.3-6.7
			c-20.3-2.3-36.7-10.8-36.9-10.9c-4.5-2.5-10.1,1.9-8.6,6.9c0.1,0.2,5.2,19.4,2.7,39.3c-0.4,3.3,1.9,6.3,5.2,6.7c0.2,0,0.5,0,0.7,0
			c3,0,5.6-2.2,6-5.3c0.9-7.8,0.9-15.3,0.4-22c17.2,23.5,26.2,50.1,26.2,77.8c-4.7,167.7-276.4,208.7-364.9,71.5
			c-1.8-2.8-5.6-3.6-8.3-1.7c-2.8,1.8-3.6,5.6-1.7,8.3c62.9,99.7,234.9,117.2,326.3,40.1C446.3,352.3,467.8,310.3,467.8,265.6
			L467.8,265.6z"/>
		<path d="M79.4,315.8c-21.3-49.5-9.4-104.2,29.4-144.2c2.3-2.4,2.2-6.2-0.2-8.5c-2.4-2.3-6.2-2.2-8.5,0.2
			c-42.1,43.4-55,103.3-31.8,157.2C71.8,327.8,82.3,323.2,79.4,315.8z"/>
		<path d="M186.4,389.2c48.9,21,114.1,16.6,165-8.3c3-1.4,4.3-5,2.8-8c-1.4-3-5-4.3-8-2.8c-47.8,23.5-109.5,27.8-155.2,8.1
			c-3.1-1.3-6.6,0.2-7.9,3.3C181.9,384.4,183.3,387.9,186.4,389.2L186.4,389.2z"/>
		<path d="M413.8,324.1c-13,15.4-29.3,28.4-48.2,38.8c-2.9,1.6-4,5.3-2.4,8.2c1.6,2.9,5.3,4,8.2,2.4c20.2-11.1,37.6-25.1,51.6-41.6
			c2.2-2.5,1.8-6.3-0.7-8.5C419.8,321.3,416,321.6,413.8,324.1L413.8,324.1z"/>
		<path d="M80.6,72.6h14.1v14.1c0.3,8,11.8,8,12,0V72.6h14.1c8-0.3,8-11.8,0-12h-14.1V46.5c-0.3-8-11.8-8-12,0v14.1H80.6
			C72.6,60.9,72.7,72.4,80.6,72.6z"/>
		<path d="M447.4,419.2h-14.1v-14.1c-0.3-8-11.8-8-12,0v14.1h-14.1c-8,0.3-8,11.8,0,12h14.1v14.1c0.3,8,11.8,8,12,0v-14.1h14.1
			C455.3,431,455.3,419.5,447.4,419.2z"/>
		<path d="M120.1,431.3H87.1c-8,0.3-8,11.8,0,12h33.1C128.1,443.1,128.1,431.6,120.1,431.3z"/>
		<path d="M87.1,420.1h17c8-0.3,8-11.8,0-12h-17C79.1,408.3,79.1,419.8,87.1,420.1z"/>
		<path d="M407.9,75.8H441c8-0.3,8-11.8,0-12h-33.1C399.9,64.1,399.9,75.5,407.9,75.8z"/>
		<path d="M423.9,52.5h17c8-0.3,8-11.8,0-12h-17C416,40.8,416,52.3,423.9,52.5z"/>
		<path d="M142.2,343.7h32c8-0.3,8-11.8,0-12h-26v-26c-0.3-8-11.8-8-12,0v32C136.2,341,138.9,343.7,142.2,343.7z"/>
		<path d="M339,99.7h26v26c0.3,8,11.8,8,12,0v-32c0-3.3-2.7-6-6-6h-32C331,87.9,331,99.4,339,99.7z"/>
	</g>
</g>
</svg>
