<?xml version="1.0" encoding="utf-8"?>
<!-- Generator: Adobe Illustrator 24.3.0, SVG Export Plug-In . SVG Version: 6.00 Build 0)  -->
<svg version="1.1" id="Capa_1" xmlns="http://www.w3.org/2000/svg" xmlns:xlink="http://www.w3.org/1999/xlink" x="0px" y="0px"
	 viewBox="0 0 512 512" style="enable-background:new 0 0 512 512;" xml:space="preserve">
<style type="text/css">
	.st0{fill:#D2E4FF;}
	.st1{fill:#09E5D0;}
	.st2{fill:#B6D7FF;}
	.st3{fill:#05ABAF;}
</style>
<g>
	<g>
		<path class="st0" d="M306.6,412.2H205.4l-21.1,29.9h143.4L306.6,412.2z"/>
		<path class="st0" d="M256,125.1c-0.1,0.1-98.2,75.5-134.5,103.4v153.8h269V228.5L256,125.1z"/>
		<path class="st1" d="M256,125.1c0,0-147.8,113.7-147.8,113.7c-4.3,3.3-9.8,5-15.8,4.5c-11.3-1.1-17.4-7.5-19.6-17.1
			c-2.1-9.3,1.6-18,8.3-23.1l161.4-124c8-6.1,19.1-6.1,27.1,0c104.7,80.4-15.3-11.8,161.4,124c5.4,4.1,8.8,10.6,8.8,17.8
			c0,12.4-10,22.4-22.4,22.4c-5.1,0-9.8-1.7-13.6-4.6C397.4,233.9,262.7,130.2,256,125.1z"/>
		<path class="st1" d="M390.5,352.6c18,1.4,32.3,15.7,34,33.7c9.1,5.1,15.3,14.8,15.3,25.9c0,16.5-13.4,29.9-29.9,29.9
			c-16.7,0-46.8,0-82.2,0c-12.4,0-22.4-10-22.4-22.4c0-9.7,6.3-18,15.1-21.1c-0.9-17.5,13.2-31.2,29.8-31.2c2.4,0,4.7,0.4,6.9,0.9
			C365,357.1,377.8,351.5,390.5,352.6z"/>
		<path class="st2" d="M390.5,74.5V172l0,0l-44.8-34.4v-63L390.5,74.5z"/>
		<path class="st3" d="M285.9,228.4c17.7,0,29.9,15,29.9,32.8c0,24.6-24.3,40.8-59.8,71.8c-35.5-31-59.8-47.3-59.8-71.8
			c0-17.8,12.2-32.8,29.9-32.8c22.7,0,29.9,26.1,29.9,26.1S263.2,228.4,285.9,228.4L285.9,228.4z"/>
		<path class="st1" d="M206.7,419.7c0,12.4-10,22.4-22.4,22.4c-35.3,0-65.5,0-82.2,0c-16.5,0-29.9-13.4-29.9-29.9
			c0-11.2,6.2-20.8,15.3-25.9c1.7-18,16-32.3,34-33.7c12.7-1.1,25.5,4.6,33.4,15.7c2.2-0.5,4.5-0.9,6.9-0.9
			c16.5,0,29.9,13.4,29.9,29.9c0,0.5-0.1,0.9-0.1,1.3C200.4,401.7,206.7,409.9,206.7,419.7L206.7,419.7z"/>
	</g>
	<g>
		<path d="M226.1,220.9c-21.7,0-37.4,18.2-37.4,40.2c0,24.2,18.7,40.1,46.9,64.2c4.9,4.2,10,8.5,15.4,13.3c1.4,1.2,3.2,1.8,4.9,1.8
			c1.8,0,3.5-0.6,4.9-1.8c5.4-4.7,10.5-9.1,15.4-13.3c28.2-24.1,46.9-40,46.9-64.2c0-22.1-15.7-40.2-37.4-40.2
			c-14.8,0-24.3,8.5-29.9,16.7C250.4,229.4,241,220.9,226.1,220.9L226.1,220.9z M263.2,256.5c0.1-0.2,5.9-20.7,22.7-20.7
			c12.8,0,22.4,10.9,22.4,25.3c0,17.3-15.7,30.7-41.7,52.8c-3.4,2.9-7,5.9-10.6,9.1c-3.7-3.2-7.2-6.2-10.6-9.1
			c-26-22.1-41.7-35.5-41.7-52.8c0-14.4,9.6-25.3,22.4-25.3c16.6,0,22.4,19.7,22.7,20.7c0.9,3.2,3.8,5.5,7.2,5.5
			C259.4,262,262.3,259.8,263.2,256.5L263.2,256.5z"/>
		<circle cx="158.9" cy="143.2" r="7.5"/>
		<path d="M399.3,244.7c5.2,4,11.5,6.1,18.1,6.1c16.5,0,29.9-13.4,29.9-29.9c0-9.4-4.3-18.1-11.8-23.8L398,168.3V74.5
			c0-4.1-3.3-7.5-7.5-7.5h-44.8c-4.1,0-7.5,3.3-7.5,7.5v47.9l-64.1-49.3c-5.2-4-11.5-6.1-18.1-6.1c-6.6,0-12.9,2.1-18.1,6.1
			L181,116.9c-3.3,2.5-3.9,7.2-1.4,10.5c2.5,3.3,7.2,3.9,10.5,1.4L247,85c2.6-2,5.7-3,9-3c3.3,0,6.4,1.1,9,3l161.4,124
			c3.7,2.9,5.9,7.2,5.9,11.9c0,8.2-6.7,14.9-14.9,14.9c-3.3,0-6.4-1.1-9-3c-8.4-6.4-141.1-108.5-147.8-113.7c-2.6-2-6.2-2.1-8.8-0.2
			c-0.3,0.2-148,113.8-148,113.9c-3,2.3-6.7,3.3-10.6,3c-7.4-0.7-11.4-4.2-13-11.3c-1.3-5.9,0.8-11.9,5.5-15.5l51.2-39.3
			c3.3-2.5,3.9-7.2,1.4-10.5c-2.5-3.3-7.2-3.9-10.5-1.4l-51.2,39.3c-9.4,7.2-13.7,18.9-11,30.7c3,13.4,12.3,21.5,26.1,22.9
			c7.6,0.7,15.1-1.4,21.1-6l0,0c0.3-0.2,0.8-0.6,1.3-1v102.5c-17.1,4.1-30.3,18-33.5,35.6c-9.9,7-15.8,18.3-15.8,30.4
			c0,20.6,16.8,37.4,37.4,37.4h307.8c20.6,0,37.4-16.8,37.4-37.4c0-12.1-6-23.4-15.8-30.4c-3.2-17.6-16.4-31.5-33.5-35.6V243.7
			L399.3,244.7z M353.1,82H383v74.9l-29.9-23V82z M184.3,434.6h-82.2c-12.4,0-22.4-10.1-22.4-22.4c0-8,4.4-15.4,11.5-19.4
			c2.1-1.2,3.5-3.4,3.8-5.8c1.5-15.3,14.2-27.1,29.6-27.1c9.6,0,18.7,4.7,24.4,12.7c1.8,2.5,4.9,3.7,7.8,2.9
			c1.9-0.5,3.6-0.7,5.2-0.7c12.1,0,22.3,9.7,22.4,22.2c-0.6,4.5,1.8,7.6,4.9,8.6c5.8,2,10.1,7.5,10.1,14
			C199.2,427.9,192.5,434.6,184.3,434.6z M312.9,393.8c-4.6,2.6-8.4,6.4-11.1,10.9h-91.7c-2.6-4.6-6.5-8.3-11.1-10.9
			c-0.1-1.3-0.3-2.7-0.6-4h115.1C313.3,391.1,313.1,392.5,312.9,393.8z M210.2,434.6c2.5-4.4,4-9.5,4-14.9h83.7
			c0,5.4,1.5,10.5,4,14.9H210.2z M417.1,387c0.2,2.4,1.6,4.6,3.8,5.8c7.1,4,11.5,11.4,11.5,19.4c0,12.4-10.1,22.4-22.4,22.4h-82.2
			c-8.2,0-14.9-6.7-14.9-14.9c0-6.6,4.3-12,10.1-14c3.1-1.1,5.5-4.2,4.9-8.6c0.1-12.4,10.3-22.2,22.4-22.2c1.6,0,3.3,0.2,5.2,0.7
			c3,0.7,6.1-0.5,7.8-2.9c5.6-7.9,14.7-12.7,24.4-12.7C402.9,359.9,415.6,371.6,417.1,387L417.1,387z M383,345.2
			c-11.2,1.1-21.6,6.5-29,14.9c-1.3-0.1-2.6-0.2-3.8-0.2c-11.8,0-22.9,5.6-29.9,14.9H191.7c-7-9.3-18.1-14.9-29.9-14.9
			c-1.3,0-2.5,0.1-3.8,0.2c-7.5-8.5-17.9-13.8-29-14.9v-113c10.8-8.3,114.5-88.1,127-97.7l127,97.7V345.2z"/>
	</g>
</g>
</svg>
