<?xml version="1.0" encoding="utf-8"?>
<!-- Generator: Adobe Illustrator 24.3.0, SVG Export Plug-In . SVG Version: 6.00 Build 0)  -->
<svg version="1.1" id="Capa_1" xmlns="http://www.w3.org/2000/svg" xmlns:xlink="http://www.w3.org/1999/xlink" x="0px" y="0px"
	 viewBox="0 0 512 512" style="enable-background:new 0 0 512 512;" xml:space="preserve">
<style type="text/css">
	.st0{fill:#09E5D0;}
	.st1{fill:#05ABAF;}
	.st2{fill:#FAFAEF;}
	.st3{fill:#B6D7FF;}
	.st4{fill:#B5E9FF;}
	.st5{fill:#E98583;}
	.st6{fill:#877D89;}
	.st7{fill:#E2E1E3;}
	.st8{fill:#766E78;}
	.st9{fill:#FFDF8E;}
	.st10{fill:#93DDFE;}
	.st11{fill:#FFCD75;}
	.st12{fill:none;}
</style>
<g>
	<g>
		<path class="st0" d="M77.2,328.7V130.1c0-6.3,5.1-11.4,11.4-11.4h218.1c6.3,0,11.4,5.1,11.4,11.4v198.6H77.2z"/>
	</g>
	<g>
		<path class="st1" d="M306.7,118.7H284c6.3,0,11.4,5.1,11.4,11.4v198.6H318V130.1C318,123.8,312.9,118.7,306.7,118.7z"/>
	</g>
	<g>
		<path class="st2" d="M415.5,232.9l-13.7-73c-1.7-9.3-9.8-16-19.2-16h-67.7v184.7h120v-64.5c0-5.7-2.5-11.1-6.8-14.8l-6.1-5.3
			C418.5,241.2,416.3,237.2,415.5,232.9L415.5,232.9z"/>
	</g>
	<g>
		<path class="st3" d="M428,249.4l-6.1-5.3c-3.4-2.9-5.6-6.8-6.5-11.2l-13.7-73c-1.7-9.3-9.8-16-19.2-16h-22.7
			c9.4,0,17.5,6.7,19.2,16l13.7,73c0.8,4.4,3.1,8.3,6.5,11.2l6.1,5.3c4.3,3.7,6.8,9.1,6.8,14.8v64.5h22.7v-64.5
			C434.8,258.5,432.3,253.1,428,249.4L428,249.4z"/>
	</g>
	<g>
		<path class="st4" d="M401,178h-46.8c-5,0-9.1,4.1-9.1,9.1v44.7c0,5,4.1,9.1,9.1,9.1h62.6"/>
	</g>
	<g>
		<path class="st3" d="M406.1,328.7h28.7v-40.4h-17.3c-6.3,0-11.4,5.1-11.4,11.4V328.7z"/>
	</g>
	<g>
		<path class="st5" d="M105.9,328.7H77.2v-48.4h17.3c6.3,0,11.4,5.1,11.4,11.4V328.7z"/>
	</g>
	<g>
		<path class="st0" d="M67.9,341.5v-12c0-6.3,5.1-11.4,11.4-11.4h353.5c6.3,0,11.4,5.1,11.4,11.4v12c0,6.3-5.1,11.4-11.4,11.4H79.3
			C73,352.9,67.9,347.8,67.9,341.5z"/>
	</g>
	<g>
		<ellipse class="st6" cx="138.9" cy="348.9" rx="44.4" ry="44.4"/>
	</g>
	<g>
		
			<ellipse transform="matrix(0.23 -0.9732 0.9732 0.23 -232.6512 403.8208)" class="st7" cx="138.9" cy="348.9" rx="17.8" ry="17.8"/>
	</g>
	<g>
		<ellipse class="st6" cx="373" cy="348.9" rx="44.4" ry="44.4"/>
	</g>
	<g>
		<path class="st8" d="M138.9,304.4c-3.9,0-7.7,0.5-11.4,1.5c19,5,33.1,22.3,33.1,42.9s-14,37.9-33.1,42.9c3.6,1,7.4,1.5,11.4,1.5
			c24.5,0,44.4-19.9,44.4-44.4C183.3,324.3,163.5,304.4,138.9,304.4z"/>
	</g>
	<g>
		<path class="st8" d="M373.1,304.4c-3.9,0-7.7,0.5-11.4,1.5c19,5,33.1,22.3,33.1,42.9s-14,37.9-33.1,42.9c3.6,1,7.4,1.5,11.4,1.5
			c24.5,0,44.4-19.9,44.4-44.4C417.5,324.3,397.6,304.4,373.1,304.4z"/>
	</g>
	<g>
		<ellipse class="st7" cx="373" cy="348.9" rx="17.8" ry="17.8"/>
	</g>
	<g>
		<path class="st9" d="M258.5,251.7H201c-4.8,0-8.6-3.9-8.6-8.6V209c0-3.3,1.5-6.5,4.2-8.5l26.6-20.6c3.9-3,9.3-3,13.2,0l26.6,20.6
			c2.6,2,4.2,5.2,4.2,8.5v34.1C267.1,247.9,263.3,251.7,258.5,251.7z"/>
	</g>
	<g>
		<path class="st10" d="M401,178h-22.7l15.7,62.9h22.7L401,178z"/>
	</g>
	<g>
		<path class="st11" d="M262.9,200.5l-26.6-20.6c-3.9-3-9.3-3-13.2,0l-4.8,3.7l21.8,16.9c2.6,2,4.2,5.2,4.2,8.5v34.1
			c0,4.8-3.9,8.6-8.6,8.6h22.7c4.8,0,8.6-3.9,8.6-8.6V209C267.1,205.7,265.6,202.6,262.9,200.5z"/>
	</g>
	<g>
		<circle class="st12" cx="126.1" cy="211" r="5.7"/>
	</g>
	<g>
		<path d="M440.5,314.4v-50.2c0-7.3-3.2-14.3-8.8-19.1l-6.1-5.3c-2.4-2-4-4.9-4.6-8l-13.7-73c-2.2-11.9-12.7-20.6-24.8-20.6h-58.8
			v-8.2c0-9.4-7.6-17-17-17H138.8c-3.1,0-5.7,2.5-5.7,5.7s2.5,5.7,5.7,5.7h167.8c3.1,0,5.7,2.5,5.7,5.7v182.4h-139
			c-9-8.5-21.1-13.8-34.4-13.8c-10.1,0-19.5,3-27.4,8.2v-15.4c0-9.4-7.6-17-17-17H82.9V130.1c0-3.1,2.5-5.7,5.7-5.7h27.6
			c3.1,0,5.7-2.5,5.7-5.7s-2.5-5.7-5.7-5.7H88.5c-9.4,0-17,7.6-17,17v184.3c-5.5,2.8-9.3,8.6-9.3,15.2v12c0,9.4,7.6,17,17,17h10.5
			c4.5,23,24.8,40.4,49.1,40.4s44.6-17.4,49.1-40.4h63.1c3.1,0,5.7-2.5,5.7-5.7c0-3.1-2.5-5.7-5.7-5.7H189
			c-0.3-8.5-2.7-16.4-6.7-23.3h147.4c-4,6.9-6.4,14.9-6.7,23.3h-49.2c-3.1,0-5.7,2.5-5.7,5.7c0,3.1,2.5,5.7,5.7,5.7h50.1
			c4.5,23,24.8,40.4,49.1,40.4s44.6-17.4,49.1-40.4h10.5c9.4,0,17-7.6,17-17v-12C449.8,323,446,317.2,440.5,314.4L440.5,314.4z
			 M429.1,312.5h-17.3v-12.9c0-3.1,2.5-5.7,5.7-5.7h11.7V312.5z M410.2,235.2h-56c-1.9,0-3.4-1.5-3.4-3.4v-44.7
			c0-1.9,1.5-3.4,3.4-3.4h46.3C400.4,183.7,410.1,234.8,410.2,235.2z M323.7,149.6h58.8c6.7,0,12.4,4.8,13.7,11.3l2.1,11.4h-44.2
			c-8.1,0-14.8,6.6-14.8,14.8v44.7c0,8.1,6.6,14.8,14.8,14.8h62.2c0.6,0.6,8,7.1,8,7.1c3.1,2.6,4.8,6.5,4.8,10.5v18.4h-11.7
			c-9.4,0-17,7.6-17,17v7.3c-7.9-5.2-17.3-8.2-27.4-8.2c-13.3,0-25.4,5.2-34.4,13.8h-15L323.7,149.6L323.7,149.6z M100.2,291.6v20.9
			H82.9v-26.6h11.7C97.7,285.9,100.2,288.4,100.2,291.6z M73.6,341.5v-12c0-3.1,2.5-5.7,5.7-5.7h16.3c-4,6.9-6.4,14.9-6.7,23.3h-9.6
			C76.1,347.2,73.6,344.7,73.6,341.5z M138.9,387.6c-21.4,0-38.7-17.4-38.7-38.7c0-21.4,17.4-38.7,38.7-38.7
			c21.4,0,38.7,17.4,38.7,38.7S160.3,387.6,138.9,387.6z M373.1,387.6c-21.4,0-38.7-17.4-38.7-38.7c0-21.4,17.4-38.7,38.7-38.7
			s38.7,17.4,38.7,38.7C411.8,370.2,394.4,387.6,373.1,387.6z M438.4,341.5c0,3.1-2.5,5.7-5.7,5.7h-9.6c-0.3-8.5-2.7-16.4-6.7-23.3
			h16.3c3.1,0,5.7,2.5,5.7,5.7V341.5z"/>
		<path d="M138.9,325.4c-12.9,0-23.4,10.5-23.4,23.4c0,12.9,10.5,23.4,23.4,23.4c12.9,0,23.4-10.5,23.4-23.4
			C162.4,335.9,151.9,325.4,138.9,325.4z M138.9,360.9c-6.7,0-12.1-5.4-12.1-12.1s5.4-12.1,12.1-12.1c6.7,0,12.1,5.4,12.1,12.1
			C151,355.5,145.6,360.9,138.9,360.9z"/>
		<path d="M373.1,325.4c-12.9,0-23.4,10.5-23.4,23.4c0,12.9,10.5,23.4,23.4,23.4c12.9,0,23.4-10.5,23.4-23.4
			C396.5,335.9,386,325.4,373.1,325.4z M373.1,360.9c-6.7,0-12.1-5.4-12.1-12.1s5.4-12.1,12.1-12.1s12.1,5.4,12.1,12.1
			C385.2,355.5,379.7,360.9,373.1,360.9z"/>
		<path d="M201,257.4h57.5c7.9,0,14.3-6.4,14.3-14.3V209c0-5.1-2.3-9.8-6.4-13l-26.6-20.6c-5.9-4.6-14.2-4.6-20.2,0L193.1,196
			c-3,2.4-5.1,5.6-5.9,9.2h-38.4c-3.1,0-5.7,2.5-5.7,5.7s2.5,5.7,5.7,5.7h38v12.9H156c-3.1,0-5.7,2.5-5.7,5.7s2.5,5.7,5.7,5.7h30.8
			v2.3C186.7,251,193.1,257.4,201,257.4L201,257.4z M198.1,209c0-1.6,0.7-3,2-4l26.6-20.6c0.9-0.7,2-1.1,3.1-1.1s2.2,0.4,3.1,1.1
			l26.6,20.6c1.2,1,2,2.4,2,4v34.1c0,1.6-1.3,2.9-2.9,2.9h-23.1v-18.8c0-3.1-2.5-5.7-5.7-5.7s-5.7,2.5-5.7,5.7v18.8H201
			c-1.6,0-2.9-1.3-2.9-2.9L198.1,209z"/>
	</g>
</g>
</svg>
