<?xml version="1.0" encoding="utf-8"?>
<!-- Generator: Adobe Illustrator 24.3.0, SVG Export Plug-In . SVG Version: 6.00 Build 0)  -->
<svg version="1.1" id="Capa_1" xmlns="http://www.w3.org/2000/svg" xmlns:xlink="http://www.w3.org/1999/xlink" x="0px" y="0px"
	 viewBox="0 0 512 512" style="enable-background:new 0 0 512 512;" xml:space="preserve">
<style type="text/css">
	.st0{fill:#7C5757;}
	.st1{fill:#FF8B59;}
	.st2{fill:#FFE4C1;}
	.st3{fill:#B6D7FF;}
	.st4{fill:#09E5D0;}
	.st5{fill:#05ABAF;}
</style>
<g>
	<path class="st0" d="M-443.7,36.2"/>
</g>
<g>
	<g>
		<path class="st1" d="M442.2,193.2c6.8,5.5,11.5,13.4,12.8,22.5c-2.5-17.2-17.3-30.4-35.2-30.4h-54.4v54.3L442.2,193.2z"/>
		<path class="st2" d="M422.2,425.8c-0.1,0-0.2,0-0.2,0h-0.1c9-0.5,17.1-4.4,23.1-10.4c-5.9,5.9-13.8,9.7-22.7,10.3
			C422.3,425.8,422.3,425.8,422.2,425.8z"/>
		<path class="st2" d="M455.5,219.4L455.5,219.4L455.5,219.4z"/>
		<path class="st2" d="M455.3,218v0.1C455.3,218.1,455.3,218,455.3,218z"/>
		<path class="st2" d="M421.2,425.9L421.2,425.9c0.1,0,0.1,0,0.2,0C421.4,425.9,421.4,425.9,421.2,425.9
			C421.3,425.9,421.2,425.9,421.2,425.9z"/>
		<path class="st2" d="M455.5,218.9C455.5,218.9,455.5,219,455.5,218.9C455.5,219,455.5,218.9,455.5,218.9z"/>
		<path class="st2" d="M455.3,218.5L455.3,218.5L455.3,218.5z"/>
		<path class="st2" d="M90.9,425.9L90.9,425.9c0,0,0.1,0,0.2,0l0,0C91,425.9,91,425.9,90.9,425.9z"/>
		<path class="st2" d="M89.6,425.8L89.6,425.8c-8.9-0.6-16.9-4.4-22.8-10.3c6,6,14.1,9.8,23.1,10.4h-0.1
			C89.8,425.9,89.8,425.9,89.6,425.8z"/>
		<path class="st2" d="M91.4,425.9L91.4,425.9c0,0,0.1,0,0.2,0l0,0C91.5,425.9,91.4,425.9,91.4,425.9z"/>
		<path class="st2" d="M90,425.9L90,425.9c0.1,0,0.2,0,0.3,0c0,0,0,0-0.1,0C90.2,425.9,90.1,425.9,90,425.9z"/>
		<path class="st2" d="M90.5,425.9C90.4,425.9,90.4,425.9,90.5,425.9c0,0,0.1,0,0.2,0l0,0C90.6,425.9,90.5,425.9,90.5,425.9z"/>
		<path class="st2" d="M420.8,425.9L420.8,425.9c0.1,0,0.2,0,0.2,0S421,425.9,420.8,425.9C420.8,425.9,420.8,425.9,420.8,425.9z"/>
		<path class="st2" d="M56.7,216.4c0-0.2,0.1-0.5,0.1-0.7C56.7,215.9,56.7,216.1,56.7,216.4z"/>
		<path class="st1" d="M69.6,193.2l76.8,46.3v-54.3H91.9c-17.9,0-32.7,13.2-35.2,30.4C58.1,206.6,62.8,198.7,69.6,193.2z"/>
		<path class="st2" d="M420.3,425.9L420.3,425.9c0.1,0,0.2,0,0.3,0h-0.1C420.5,425.9,420.3,425.9,420.3,425.9z"/>
		<path class="st2" d="M91.9,425.9c-0.1,0-0.2,0-0.3,0C91.8,425.9,91.8,425.9,91.9,425.9h328c0.1,0,0.2,0,0.3,0c-0.1,0-0.2,0-0.3,0
			H91.9z"/>
		<path class="st2" d="M421.7,425.9C421.7,425.9,421.5,425.9,421.7,425.9c0,0,0.1,0,0.3,0l0,0C421.8,425.9,421.7,425.9,421.7,425.9z
			"/>
		<path class="st2" d="M446.5,414c-0.3,0.3-0.5,0.6-0.8,0.9C446,414.6,446.2,414.3,446.5,414z"/>
		<path class="st2" d="M66.2,414.9c-0.3-0.3-0.6-0.6-0.8-0.9C65.6,414.3,65.9,414.6,66.2,414.9z"/>
		<path class="st2" d="M56.4,219.9L56.4,219.9L56.4,219.9z"/>
		<path class="st2" d="M447.3,413c-0.2,0.2-0.4,0.4-0.5,0.7C447,413.4,447.2,413.2,447.3,413z"/>
		<path class="st2" d="M455.2,215.7c0,0.2,0.1,0.5,0.1,0.7C455.2,216.1,455.2,215.9,455.2,215.7z"/>
		<path class="st2" d="M56.4,219.4L56.4,219.4L56.4,219.4z"/>
		<path class="st2" d="M65.1,413.6c-0.2-0.2-0.4-0.4-0.6-0.6C64.8,413.2,64.9,413.4,65.1,413.6z"/>
		<path class="st2" d="M56.5,218.6C56.5,218.5,56.5,218.5,56.5,218.6C56.5,218.5,56.5,218.5,56.5,218.6z"/>
		<path class="st2" d="M455.3,217.5v0.1C455.3,217.6,455.3,217.6,455.3,217.5z"/>
		<path class="st2" d="M56.6,217.2c0-0.1,0-0.1,0-0.2C56.6,217.1,56.6,217.2,56.6,217.2z"/>
		<path class="st2" d="M56.5,217.7c0-0.1,0-0.1,0-0.2C56.5,217.6,56.5,217.6,56.5,217.7z"/>
		<path class="st2" d="M455.2,217c0,0.1,0,0.1,0,0.2C455.2,217.2,455.2,217.1,455.2,217z"/>
		<path class="st2" d="M56.6,216.8c0-0.1,0-0.2,0-0.3C56.6,216.6,56.6,216.7,56.6,216.8z"/>
		<path class="st2" d="M56.5,218.1V218C56.5,218,56.5,218.1,56.5,218.1z"/>
		<path class="st2" d="M455.2,216.5c0,0.1,0,0.2,0,0.3C455.2,216.7,455.2,216.6,455.2,216.5z"/>
	</g>
	<path class="st3" d="M255.9,305.6l109.5-66.1V94.2c0-12.8-11.5-23.2-25.8-23.2H172.1c-14.2,0-25.8,10.4-25.8,23.2v145.3
		L255.9,305.6z"/>
	<path class="st4" d="M455.5,220.4C455.5,220.3,455.5,220.3,455.5,220.4c0-0.2,0-0.3,0-0.5v-0.1c0-0.1,0-0.3,0-0.4v-0.1
		c0-0.1,0-0.3,0-0.4l0,0c0-0.1,0-0.2,0-0.4v-0.1c0-0.1,0-0.2,0-0.3V218c0-0.1,0-0.2,0-0.3s0-0.1,0-0.1c0-0.1,0-0.2,0-0.3
		s0-0.1,0-0.2c0-0.1,0-0.1,0-0.2c0-0.1,0-0.2,0-0.3v-0.1c0-0.2-0.1-0.5-0.1-0.7l0,0c-1.3-9-6-17-12.8-22.5l-76.8,46.3l-109.8,66
		L442.2,418c-5.5,4.5-12.4,7.3-19.9,7.9c8.8-0.6,16.8-4.4,22.7-10.3c0.2-0.2,0.4-0.4,0.6-0.6c0.3-0.3,0.6-0.6,0.8-0.9
		c0.1-0.1,0.2-0.2,0.3-0.4c0.2-0.2,0.4-0.4,0.6-0.6c0.1-0.1,0.2-0.2,0.3-0.3c4.9-6.1,7.9-13.8,7.9-22.3V220.8
		C455.5,220.6,455.5,220.5,455.5,220.4z"/>
	<path class="st5" d="M422.2,425.8L422.2,425.8c7.6-0.5,14.5-3.4,20-7.9L255.9,305.6l-109.5-66.1l-76.8-46.3
		c-6.8,5.5-11.5,13.4-12.8,22.5l0,0c0,0.2-0.1,0.5-0.1,0.7v0.1c0,0.1,0,0.2,0,0.3s0,0.1,0,0.2c0,0.1,0,0.1,0,0.2c0,0.1,0,0.2,0,0.3
		v0.1c0,0.1,0,0.2,0,0.3v0.1c0,0.1,0,0.2,0,0.3v0.1c0,0.1,0,0.2,0,0.4l0,0c0,0.1,0,0.3,0,0.4v0.1c0,0.1,0,0.3,0,0.4v0.1
		c0,0.1,0,0.3,0,0.4v0.1c0,0.1,0,0.3,0,0.4v169.6c0,8.4,2.9,16.2,7.8,22.3c0.1,0.1,0.2,0.2,0.3,0.3c0.2,0.2,0.4,0.4,0.5,0.7
		c0.1,0.1,0.2,0.2,0.3,0.4c0.3,0.3,0.5,0.6,0.8,0.9c0.2,0.2,0.4,0.4,0.6,0.6c5.9,5.9,13.8,9.7,22.7,10.3h0.1c0.1,0,0.2,0,0.2,0
		c0.1,0,0.1,0,0.2,0s0.1,0,0.2,0s0.2,0,0.2,0c0.1,0,0.1,0,0.2,0s0.2,0,0.3,0c0.1,0,0.1,0,0.2,0s0.2,0,0.3,0h0.1c0.1,0,0.3,0,0.4,0
		H420c0.1,0,0.2,0,0.3,0h0.1l0,0h0.1h0.1h0.1l0,0c0.1,0,0.1,0,0.2,0h0.1h0.1l0,0c0.1,0,0.1,0,0.2,0c0,0,0,0,0.1,0h0.1c0,0,0,0,0.1,0
		c0.1,0,0.1,0,0.2,0l0,0c0,0,0,0,0.1,0h0.1C422.2,425.9,422.2,425.9,422.2,425.8z"/>
	<path d="M463.5,220.5L463.5,220.5c0-0.1,0-0.2,0-0.3v-0.1c0-0.1,0-0.1,0-0.2v-0.1c0-0.1,0-0.1,0-0.2v-0.1c0-0.1,0-0.1,0-0.2v-0.1
		c0-0.1,0-0.1,0-0.2v-0.1c0-0.1,0-0.1,0-0.2v-0.1c0-0.1,0-0.1,0-0.2v-0.1c0-0.1,0-0.1,0-0.2V218c0-0.1,0-0.2,0-0.2v-0.1
		c0-0.1,0-0.1,0-0.2c0-0.1,0-0.1,0-0.2v-0.1c0-0.1,0-0.1,0-0.2c0,0,0,0,0-0.1s0-0.2,0-0.2l0,0c-1.1-11.6-6.8-22.3-16-29.7
		c-0.1-0.1-0.2-0.2-0.3-0.3c-7.5-5.9-16.9-9.5-27.2-9.5h-46.3V94.3c0-17.3-15.2-31.3-33.9-31.3H172.1c-18.7,0-33.9,14-33.9,31.3
		v82.9H91.9c-10.3,0-19.7,3.6-27.2,9.5c-0.1,0.1-0.2,0.2-0.3,0.3c-9.2,7.5-14.9,18.1-16,29.7l0,0c0,0.1,0,0.2,0,0.3l0,0
		c0,0.1,0,0.2,0,0.2v0.1c0,0.1,0,0.1,0,0.2c0,0.1,0,0.1,0,0.2v0.1c0,0.1,0,0.2,0,0.2v0.1c0,0.1,0,0.1,0,0.2v0.1c0,0.1,0,0.1,0,0.2
		v0.1c0,0.1,0,0.1,0,0.2v0.1c0,0.1,0,0.1,0,0.2v0.1c0,0.1,0,0.1,0,0.2v0.1c0,0.1,0,0.1,0,0.2v0.1c0,0.1,0,0.1,0,0.2v0.1
		c0,0.1,0,0.2,0,0.2v0.1c0,0.1,0,0.2,0,0.3v169.6c0,4.8,0.8,9.4,2.2,13.7l0,0c0.2,0.7,0.5,1.5,0.8,2.2c0.1,0.2,0.1,0.3,0.2,0.5v0.1
		c0.1,0.4,0.3,0.7,0.5,1.1c0.1,0.1,0.1,0.3,0.2,0.4c4.1,8.9,11,16.3,19.7,20.8c0,0,0,0,0.1,0l0.1,0.1c0.1,0,0.1,0.1,0.1,0.1
		c0.5,0.2,0.9,0.5,1.4,0.7l0,0c0,0,0,0,0.1,0c0.5,0.3,1.1,0.5,1.7,0.7l0,0c5.1,2.1,10.7,3.3,16.6,3.3H420c5.9,0,11.4-1.2,16.6-3.3
		l0,0c0.1,0,0.2-0.1,0.3-0.1c0.1,0,0.2-0.1,0.2-0.1c0.1,0,0.2-0.1,0.2-0.1s0,0,0.1,0c0.3-0.1,0.6-0.3,0.9-0.4l0,0l0,0
		c0.1,0,0.2-0.1,0.2-0.1c0.4-0.2,0.9-0.4,1.3-0.6l0,0l0,0c13.9-7.1,22.8-20.9,23.7-36.3l0,0c0-0.2,0-0.5,0-0.7v-0.1
		c0-0.1,0-0.1,0-0.2s0-0.1,0-0.2v-0.1c0-0.1,0-0.2,0-0.3v-0.1c0-0.1,0-0.2,0-0.3V391c0-0.1,0-0.2,0-0.3V220.8
		C463.5,220.7,463.5,220.6,463.5,220.5z M64.5,220.8c0-0.1,0-0.2,0-0.3v-0.1c0-0.1,0-0.1,0-0.2c0-0.1,0-0.1,0-0.2c0-0.1,0-0.1,0-0.2
		c0-0.1,0-0.1,0-0.2c0-0.1,0-0.1,0-0.2c0-0.1,0-0.1,0-0.2c0-0.1,0-0.1,0-0.2c0-0.1,0-0.1,0-0.2c0-0.1,0-0.1,0-0.2c0-0.1,0-0.2,0-0.3
		s0-0.1,0-0.2c0-0.1,0-0.1,0-0.2c0-0.1,0-0.1,0-0.2c0-0.1,0-0.1,0-0.2c0-0.1,0-0.1,0-0.2c0-0.1,0-0.1,0-0.2c0-0.1,0-0.1,0-0.2v-0.1
		c0-0.1,0-0.2,0-0.3c0,0,0,0,0-0.1c0.7-5.1,2.8-9.8,6-13.6l71.2,43c0.1,0,0.1,0.1,0.2,0.1L251.4,312c0.1,0,0.1,0.1,0.2,0.1
		l54.3,32.8c3.8,2.3,8.8,1.1,11.1-2.8c2.3-3.8,1.1-8.8-2.8-11.1l-43-25.9l98-59.1c0.1,0,0.1-0.1,0.2-0.1l71.2-43
		c3.1,3.8,5.3,8.5,6,13.6c0,0,0,0,0,0.1s0,0.2,0,0.3v0.1c0,0.1,0,0.1,0,0.2c0,0.1,0,0.1,0,0.2c0,0.1,0,0.1,0,0.2c0,0.1,0,0.1,0,0.2
		c0,0.1,0,0.1,0,0.2c0,0.1,0,0.1,0,0.2c0,0.1,0,0.1,0,0.2c0,0.1,0,0.2,0,0.3s0,0.1,0,0.2c0,0.1,0,0.1,0,0.2c0,0.1,0,0.1,0,0.2
		c0,0.1,0,0.1,0,0.2c0,0.1,0,0.1,0,0.2c0,0.1,0,0.1,0,0.2c0,0.1,0,0.1,0,0.2c0,0.1,0,0.1,0,0.2c0,0.1,0,0.1,0,0.2v0.1v0.3l0,0v169.6
		c0,0.1,0,0.2,0,0.3v0.1c0,0.1,0,0.2,0,0.2v0.1c0,0.1,0,0.2,0,0.2v0.1c0,0.1,0,0.2,0,0.3c0,0,0,0,0,0.1c-0.3,6.1-2.6,11.6-6.2,16
		l-67.2-40.5c-3.8-2.3-8.8-1.1-11.1,2.8c-2.3,3.8-1.1,8.8,2.8,11.1l59.9,36.1c-0.1,0-0.2,0-0.3,0.1c-0.1,0-0.2,0-0.3,0.1h-0.1
		c-0.1,0-0.2,0-0.3,0c-0.2,0-0.4,0.1-0.6,0.1c-0.1,0-0.2,0-0.3,0h-0.1c-0.1,0-0.2,0-0.3,0h-0.2c-0.1,0-0.3,0-0.4,0
		c-0.1,0-0.2,0-0.3,0c-0.1,0-0.2,0-0.2,0c-0.1,0-0.2,0-0.4,0h-0.4h-0.1c-0.4,0-0.8,0-1.2,0H91.9c-0.4,0-0.9,0-1.3,0h-0.1
		c0,0,0,0-0.1,0s-0.2,0-0.3,0c-0.3,0-0.6,0-0.9-0.1c-0.1,0-0.1,0-0.2,0c0,0,0,0-0.1,0s-0.2,0-0.3,0c-0.2,0-0.5-0.1-0.7-0.1
		c-0.1,0-0.2,0-0.2,0h-0.1c-0.1,0-0.2,0-0.2,0c-0.2,0-0.4-0.1-0.6-0.1c-0.1,0-0.2,0-0.2,0c-0.1,0-0.2,0-0.3-0.1c-0.1,0-0.1,0-0.2,0
		c-0.2,0-0.4-0.1-0.6-0.1c-0.1,0-0.2,0-0.2-0.1c-0.2,0-0.3-0.1-0.5-0.1l-0.3-0.1c-0.1,0-0.1,0-0.2-0.1c-7.2-2.1-13.3-7.1-16.7-13.7
		c-0.1-0.1-0.1-0.2-0.1-0.3c-0.1-0.2-0.2-0.4-0.3-0.6c-1.7-3.6-2.6-7.5-2.6-11.7V220.8C64.5,220.8,64.5,220.8,64.5,220.8z
		 M420,193.3c1.9,0,3.7,0.2,5.5,0.6l-51.8,31.2v-31.8H420z M154.6,94.2c0-8.3,7.9-15.1,17.6-15.1h167.6c9.7,0,17.6,6.8,17.6,15.1
		v140.7l-101.4,61.2l-101.4-61.2V94.2z M138.2,193.3v31.8l-51.7-31.2c1.8-0.4,3.6-0.6,5.5-0.6H138.2z"/>
	<g>
		<g>
			<path class="st0" d="M283.1,159h-54.7c-3,0-5.5-2.5-5.5-5.5v-35.7c0-3,2.5-5.5,5.5-5.5h54.7c3,0,5.5,2.5,5.5,5.5v35.7
				C288.6,156.5,286.2,159,283.1,159z"/>
		</g>
	</g>
	<path d="M285.9,245.6h-60.3c-2.6,0-4.7,2.1-4.7,4.7c0,2.6,2.1,4.7,4.7,4.7h60.3c2.6,0,4.7-2.1,4.7-4.7
		C290.6,247.7,288.5,245.6,285.9,245.6z"/>
	<path d="M226.5,218.9v-13.3h8.5c2.6,0,4.7-2.1,4.7-4.7c0-2.6-2.1-4.7-4.7-4.7h-8.5v-8h9.7c2.6,0,4.7-2.1,4.7-4.7
		c0-2.6-2.1-4.7-4.7-4.7h-14.4c-2.6,0-4.7,2.1-4.7,4.7v35.4c0,2.6,2.1,4.7,4.7,4.7C224.4,223.6,226.5,221.5,226.5,218.9z"/>
	<path d="M269.8,188.1c2.6,0,4.7-2.1,4.7-4.7c0-2.6-2.1-4.7-4.7-4.7h-14.4c-2.6,0-4.7,2.1-4.7,4.7v35.4c0,2.6,2.1,4.7,4.7,4.7
		c2.6,0,4.7-2.1,4.7-4.7v-13.3h8.5c2.6,0,4.7-2.1,4.7-4.7c0-2.6-2.1-4.7-4.7-4.7h-8.5v-8H269.8z"/>
	<path d="M303.3,187.8c2.6,0,4.7-2.1,4.7-4.7c0-2.6-2.1-4.7-4.7-4.7h-14.9c-2.6,0-4.7,2.1-4.7,4.7v35.4c0,2.6,2.1,4.7,4.7,4.7h14.9
		c2.6,0,4.7-2.1,4.7-4.7c0-2.6-2.1-4.7-4.7-4.7h-10.2v-8.3h9.1c2.6,0,4.7-2.1,4.7-4.7c0-2.6-2.1-4.7-4.7-4.7h-9.1v-8.3H303.3z"/>
	<path d="M347.8,192.2c0-7.7-6.5-14-14.5-14h-9.5c0,0,0,0,0,0c0,0,0,0,0,0c-2.6,0-4.7,2.1-4.7,4.7v35.7c0,2.6,2.1,4.7,4.7,4.7
		c2.6,0,4.7-2.1,4.7-4.7v-9.5l11.1,12.6c0.9,1.1,2.2,1.6,3.5,1.6c1.1,0,2.2-0.4,3.1-1.2c2-1.7,2.1-4.7,0.4-6.6l-8.8-10
		C343.6,203.7,347.8,198.4,347.8,192.2L347.8,192.2z M333.3,196.8c-1.1,0-3,0-4.7,0c0-1.7,0-3.5,0-4.6c0-0.9,0-2.8,0-4.6h4.8
		c2.8,0,5.1,2.1,5.1,4.6C338.4,194.7,336.1,196.8,333.3,196.8L333.3,196.8z"/>
	<path d="M186.1,178.6c-12.4,0-22.6,10.1-22.6,22.6c0,12.4,10.1,22.6,22.6,22.6c12.4,0,22.6-10.1,22.6-22.6
		C208.6,188.7,198.5,178.6,186.1,178.6L186.1,178.6z M186.1,214.3c-7.2,0-13.1-5.9-13.1-13.1s5.9-13.1,13.1-13.1s13.1,5.9,13.1,13.1
		S193.3,214.3,186.1,214.3z"/>
	<path d="M228.4,163.7h54.7c5.6,0,10.2-4.6,10.2-10.2v-35.7c0-5.6-4.6-10.2-10.2-10.2h-11.7v-5c0-6.1-5-11.1-11.1-11.1h-9.1
		c-6.1,0-11.1,5-11.1,11.1v5h-11.7c-5.6,0-10.2,4.6-10.2,10.2v35.7C218.2,159.1,222.8,163.7,228.4,163.7z M249.5,102.5
		c0-0.9,0.7-1.7,1.7-1.7h9.1c0.9,0,1.7,0.7,1.7,1.7v5h-12.5V102.5z M227.6,117.8c0-0.4,0.4-0.8,0.8-0.8h54.7c0.4,0,0.8,0.4,0.8,0.8
		v35.7c0,0.4-0.4,0.8-0.8,0.8h-54.7c-0.4,0-0.8-0.4-0.8-0.8L227.6,117.8z"/>
</g>
</svg>
