<?xml version="1.0" encoding="utf-8"?>
<!-- Generator: Adobe Illustrator 24.3.0, SVG Export Plug-In . SVG Version: 6.00 Build 0)  -->
<svg version="1.1" id="Capa_1" xmlns="http://www.w3.org/2000/svg" xmlns:xlink="http://www.w3.org/1999/xlink" x="0px" y="0px"
	 viewBox="0 0 512 512" style="enable-background:new 0 0 512 512;" xml:space="preserve">
<style type="text/css">
	.st0{fill:#B6D7FF;}
	.st1{fill:#7C5757;}
	.st2{fill:#FF8B59;}
	.st3{fill:#05ABAF;}
	.st4{fill:#09E5D0;}
</style>
<g>
	<g>
		<path class="st0" d="M150.7,63.8c-24.4,24.4-38.1,38.1-62.5,62.5v322h288.4V63.8H150.7z"/>
		<path class="st1" d="M463.5,232.4c17,17,8.7,43-9.8,51c-19,8.3-53.3,33.9-68,48.5l-4.5,4.5v0l-22.1-22.1l4.6-4.5
			c14.8-14.9,40.6-48.8,49-67.7C420.7,223.7,446.4,215.3,463.5,232.4L463.5,232.4z"/>
		<path class="st2" d="M403.3,358.5c12.2,12.2,12.2,32,0,44.2l-11.1,11.1c-5.6-5.6-104.7-104.7-110.5-110.5l11.1-11.1
			c12.2-12.2,32-12.2,44.2,0C360.5,315.8,382.3,337.5,403.3,358.5L403.3,358.5z"/>
		<path class="st3" d="M186.7,162.2h158.6v31.3H186.7V162.2z"/>
		<circle class="st2" cx="264.8" cy="381" r="31.3"/>
		<path class="st4" d="M119.5,162.2h67.2v31.3h-67.2V162.2z"/>
	</g>
	<g>
		<circle cx="249.2" cy="318.5" r="7.8"/>
		<path d="M111.7,162.2v31.3c0,4.3,3.5,7.8,7.8,7.8h225.8c4.3,0,7.8-3.5,7.8-7.8v-31.3c0-4.3-3.5-7.8-7.8-7.8H119.5
			C115.2,154.4,111.7,157.9,111.7,162.2z M194.5,170h143v15.6h-143V170z M127.3,170h51.6v15.6h-51.6V170z"/>
		<path d="M119.5,232.6h225.8c4.3,0,7.8-3.5,7.8-7.8s-3.5-7.8-7.8-7.8H119.5c-4.3,0-7.8,3.5-7.8,7.8S115.2,232.6,119.5,232.6z"/>
		<path d="M119.5,263.8h225.8c4.3,0,7.8-3.5,7.8-7.8s-3.5-7.8-7.8-7.8H119.5c-4.3,0-7.8,3.5-7.8,7.8S115.2,263.8,119.5,263.8z"/>
		<path d="M119.5,295.1h129.7c4.3,0,7.8-3.5,7.8-7.8c0-4.3-3.5-7.8-7.8-7.8H119.5c-4.3,0-7.8,3.5-7.8,7.8
			C111.7,291.6,115.2,295.1,119.5,295.1z"/>
		<path d="M119.5,326.3h98.5c4.3,0,7.8-3.5,7.8-7.8s-3.5-7.8-7.8-7.8h-98.5c-4.3,0-7.8,3.5-7.8,7.8S115.2,326.3,119.5,326.3z"/>
		<path d="M186.7,388.9h39.9c3.6,17.8,19.4,31.3,38.3,31.3c21.5,0,39.1-17.5,39.1-39.1S286.4,342,264.8,342
			c-18.9,0-34.7,13.4-38.3,31.3h-39.9c-4.3,0-7.8,3.5-7.8,7.8S182.4,388.9,186.7,388.9z M264.8,373.2h-22.1
			c3.2-9.1,11.9-15.6,22.1-15.6c12.9,0,23.4,10.5,23.4,23.4s-10.5,23.4-23.4,23.4c-10.2,0-18.9-6.5-22.1-15.6h22.1
			c4.3,0,7.8-3.5,7.8-7.8S269.2,373.2,264.8,373.2z"/>
		<path d="M345.3,118.5c4.3,0,7.8-3.5,7.8-7.8c0-4.3-3.5-7.8-7.8-7.8h-15.6c-4.3,0-7.8,3.5-7.8,7.8c0,4.3,3.5,7.8,7.8,7.8H345.3z"/>
		<path d="M298.4,118.5c4.3,0,7.8-3.5,7.8-7.8c0-4.3-3.5-7.8-7.8-7.8h-15.6c-4.3,0-7.8,3.5-7.8,7.8c0,4.3,3.5,7.8,7.8,7.8H298.4z"/>
		<path d="M251.5,118.5c4.3,0,7.8-3.5,7.8-7.8c0-4.3-3.5-7.8-7.8-7.8h-15.6c-4.3,0-7.8,3.5-7.8,7.8c0,4.3,3.5,7.8,7.8,7.8H251.5z"/>
		<circle cx="233.6" cy="448.2" r="7.8"/>
		<path d="M88.2,456.1h110.2c4.3,0,7.8-3.5,7.8-7.8c0-4.3-3.5-7.8-7.8-7.8H96V134.1h54.7c4.3,0,7.8-3.5,7.8-7.8V71.6h210.2v220.9
			c-3.5,4.2-6.9,7.9-9.7,10.8l-16.6-16.6c-15.3-15.3-40-15.3-55.3,0l-11.1,11.1c-3.1,3.1-3.1,8,0,11.1l92.6,92.6v39h-100
			c-4.3,0-7.8,3.5-7.8,7.8s3.5,7.8,7.8,7.8h107.8c4.3,0,7.8-3.5,7.8-7.8V417l2.3,2.3c3.1,3,8,3.1,11.1,0l11.1-11.1
			c15.3-15.3,15.3-40,0-55.3l-16.6-16.6c14.8-14.4,47.4-38.4,64.6-45.9c24-10.5,32.7-43.2,12.2-63.7c-20.4-20.4-52.9-12.1-63.6,12
			c-4,9-12.3,21.7-21,33.7V63.8c0-4.3-3.5-7.8-7.8-7.8H150.7c-2.1,0-4.1,0.9-5.5,2.3l-62.5,62.5c-1.4,1.4-2.3,3.4-2.3,5.5v322
			C80.4,452.6,83.9,456.1,88.2,456.1L88.2,456.1z M397.7,364.1c9.2,9.2,9.2,24,0,33.2l-5.5,5.5l-99.5-99.5l5.5-5.5
			c9.2-9.2,24-9.2,33.2,0L397.7,364.1z M382.7,300.2c13.5-16.3,30.2-39.7,37-54.9c6.1-13.7,25.4-20.2,38.2-7.3
			c12.9,12.9,6.3,32.3-7.4,38.3c-19.4,8.5-53.3,33.4-69.4,49.2l-11.1-11.1C373.8,310.5,378.1,305.7,382.7,300.2L382.7,300.2z
			 M142.9,82.6v35.8h-35.8L142.9,82.6z"/>
	</g>
</g>
</svg>
