<?xml version="1.0" encoding="utf-8"?>
<!-- Generator: Adobe Illustrator 24.3.0, SVG Export Plug-In . SVG Version: 6.00 Build 0)  -->
<svg version="1.1" id="Layer_1" xmlns="http://www.w3.org/2000/svg" xmlns:xlink="http://www.w3.org/1999/xlink" x="0px" y="0px"
	 viewBox="0 0 512 512" style="enable-background:new 0 0 512 512;" xml:space="preserve">
<style type="text/css">
	.st0{fill:none;stroke:#000000;stroke-width:17.0667;stroke-linecap:round;stroke-linejoin:round;stroke-miterlimit:34.1333;}
	.st1{fill:#B6D7FF;}
	.st2{fill:#95C7F9;}
	.st3{fill:#09E5D0;}
	.st4{fill:#05ABAF;}
	.st5{fill:#F7422B;}
	.st6{fill:#FFDA00;}
	.st7{fill:#5DA800;}
	.st8{fill:#FF9600;}
	.st9{fill:#F77B00;}
	.st10{fill:#F23048;}
	.st11{fill:#BD1838;}
	.st12{fill:#00A9F8;}
</style>
<g id="Page-1">
	<g id="_x30_54---Hotel-Amenities">
		<path id="Shape" class="st0" d="M133.1,283.3V297"/>
		<path id="Shape_1_" class="st0" d="M180.9,297H85.3"/>
		<g>
			<path id="Shape_2_" class="st1" d="M454,139.9v279.9c0,18.9-15.3,34.1-34.1,34.1H92.2c-9.1,0-17.7-3.6-24.1-10
				c-6.4-6.4-10-15.1-10-24.1V139.9H454z"/>
			<path id="Shape_3_" class="st2" d="M433.5,139.9v279.9c0,18.9-15.3,34.1-34.1,34.1h20.5c18.9,0,34.1-15.3,34.1-34.1V139.9H433.5z
				"/>
			<path id="Shape_4_" class="st3" d="M454,92.2v47.8H58V92.2C58,73.3,73.3,58,92.2,58h327.7c9.1,0,17.7,3.6,24.1,10
				C450.4,74.4,454,83.1,454,92.2z"/>
			<path id="Shape_5_" class="st4" d="M419.8,58h-20.5c9.1,0,17.7,3.6,24.1,10s10,15.1,10,24.1v47.8H454V92.2
				c0-9.1-3.6-17.7-10-24.1C437.6,61.6,428.9,58,419.8,58z"/>
			<circle id="Oval" class="st5" cx="99" cy="99" r="13.7"/>
			<circle id="Oval_1_" class="st6" cx="153.6" cy="99" r="13.7"/>
			<circle id="Oval_2_" class="st7" cx="208.2" cy="99" r="13.7"/>
			<path id="Rectangle-path" class="st8" d="M92.2,167.3h81.9c3.8,0,6.8,3.1,6.8,6.8v13.7c0,3.8-3.1,6.8-6.8,6.8H92.2
				c-3.8,0-6.8-3.1-6.8-6.8v-13.7C85.3,170.3,88.4,167.3,92.2,167.3z"/>
			<path id="Shape_6_" class="st9" d="M174.1,167.3h-20.5c3.8,0,6.8,3.1,6.8,6.8v13.7c0,3.8-3.1,6.8-6.8,6.8h20.5
				c3.8,0,6.8-3.1,6.8-6.8v-13.7C180.9,170.3,177.9,167.3,174.1,167.3z"/>
			<path id="Rectangle-path_1_" class="st10" d="M92.2,194.6h81.9V297H92.2V194.6z"/>
			<path id="Rectangle-path_2_" class="st11" d="M153.6,194.6h20.5V297h-20.5V194.6z"/>
			<path id="Rectangle-path_3_" class="st11" d="M174.1,221.9h27.3v41h-27.3V221.9z"/>
			<path id="Rectangle-path_4_" class="st8" d="M208.2,208.2h20.5c3.8,0,6.8,3.1,6.8,6.8v54.6c0,3.8-3.1,6.8-6.8,6.8h-20.5
				c-3.8,0-6.8-3.1-6.8-6.8V215C201.4,211.3,204.4,208.2,208.2,208.2z"/>
			<path id="Rectangle-path_5_" class="st12" d="M269.7,297v-41c0-3.8,3.1-6.8,6.8-6.8h54.6c3.8,0,6.8,3.1,6.8,6.8v41
				c0,3.8-3.1,6.8-6.8,6.8h-54.6C272.7,303.8,269.7,300.7,269.7,297z"/>
			<path id="Shape_7_" class="st6" d="M283.3,365.2h47.8v27.3c0,15.1-12.2,27.3-27.3,27.3s-27.3-12.2-27.3-27.3v-20.5
				C276.5,368.3,279.5,365.2,283.3,365.2z"/>
			<g>
				<path id="Shape_8_" d="M419.8,51.2H92.2c-22.6,0-40.9,18.3-41,41v327.7c0,22.6,18.3,40.9,41,41h327.7c22.6,0,40.9-18.3,41-41
					V92.2C460.8,69.5,442.5,51.2,419.8,51.2z M92.2,64.9h327.7c15.1,0,27.3,12.2,27.3,27.3v41H64.9v-41
					C64.9,77.1,77.1,64.9,92.2,64.9z M419.8,447.1H92.2c-15.1,0-27.3-12.2-27.3-27.3V146.8h382.3v273.1
					C447.1,434.9,434.9,447.1,419.8,447.1z"/>
				<path id="Shape_9_" d="M99,119.5c11.3,0,20.5-9.2,20.5-20.5S110.3,78.5,99,78.5S78.5,87.7,78.5,99S87.7,119.5,99,119.5z
					 M99,92.2c3.8,0,6.8,3.1,6.8,6.8s-3.1,6.8-6.8,6.8s-6.8-3.1-6.8-6.8S95.2,92.2,99,92.2z"/>
				<path id="Shape_10_" d="M153.6,119.5c11.3,0,20.5-9.2,20.5-20.5s-9.2-20.5-20.5-20.5s-20.5,9.2-20.5,20.5
					S142.3,119.5,153.6,119.5z M153.6,92.2c3.8,0,6.8,3.1,6.8,6.8s-3.1,6.8-6.8,6.8s-6.8-3.1-6.8-6.8S149.8,92.2,153.6,92.2z"/>
				<path id="Shape_11_" d="M208.2,119.5c11.3,0,20.5-9.2,20.5-20.5s-9.2-20.5-20.5-20.5c-11.3,0-20.5,9.2-20.5,20.5
					S196.9,119.5,208.2,119.5z M208.2,92.2c3.8,0,6.8,3.1,6.8,6.8s-3.1,6.8-6.8,6.8s-6.8-3.1-6.8-6.8S204.4,92.2,208.2,92.2z"/>
				<path id="Shape_12_" d="M344.7,105.8h81.9c3.8,0,6.8-3.1,6.8-6.8s-3.1-6.8-6.8-6.8h-81.9c-3.8,0-6.8,3.1-6.8,6.8
					S341,105.8,344.7,105.8z"/>
				<path id="Shape_13_" d="M119.5,249.2c-3.8,0-6.8,3.1-6.8,6.8v6.8c0,3.8,3.1,6.8,6.8,6.8c3.8,0,6.8-3.1,6.8-6.8V256
					C126.3,252.2,123.2,249.2,119.5,249.2z"/>
				<path id="Shape_14_" d="M146.8,249.2c-3.8,0-6.8,3.1-6.8,6.8v6.8c0,3.8,3.1,6.8,6.8,6.8c3.8,0,6.8-3.1,6.8-6.8V256
					C153.6,252.2,150.5,249.2,146.8,249.2z"/>
				<path id="Shape_15_" d="M119.5,215c-3.8,0-6.8,3.1-6.8,6.8v6.8c0,3.8,3.1,6.8,6.8,6.8c3.8,0,6.8-3.1,6.8-6.8v-6.8
					C126.3,218.1,123.2,215,119.5,215z"/>
				<path id="Shape_16_" d="M146.8,215c-3.8,0-6.8,3.1-6.8,6.8v6.8c0,3.8,3.1,6.8,6.8,6.8c3.8,0,6.8-3.1,6.8-6.8v-6.8
					C153.6,218.1,150.5,215,146.8,215z"/>
				<path id="Shape_17_" d="M194.6,324.3H85.3c-3.8,0-6.8,3.1-6.8,6.8s3.1,6.8,6.8,6.8h109.2c3.8,0,6.8-3.1,6.8-6.8
					S198.3,324.3,194.6,324.3z"/>
				<path id="Shape_18_" d="M85.3,365.2h61.4c3.8,0,6.8-3.1,6.8-6.8c0-3.8-3.1-6.8-6.8-6.8H85.3c-3.8,0-6.8,3.1-6.8,6.8
					C78.5,362.2,81.6,365.2,85.3,365.2z"/>
				<path id="Shape_19_" d="M194.6,351.6h-20.5c-3.8,0-6.8,3.1-6.8,6.8c0,3.8,3.1,6.8,6.8,6.8h20.5c3.8,0,6.8-3.1,6.8-6.8
					C201.4,354.6,198.3,351.6,194.6,351.6z"/>
				<path id="Shape_20_" d="M85.3,392.5h20.5c3.8,0,6.8-3.1,6.8-6.8c0-3.8-3.1-6.8-6.8-6.8H85.3c-3.8,0-6.8,3.1-6.8,6.8
					C78.5,389.5,81.6,392.5,85.3,392.5z"/>
				<path id="Shape_21_" d="M194.6,378.9h-61.4c-3.8,0-6.8,3.1-6.8,6.8c0,3.8,3.1,6.8,6.8,6.8h61.4c3.8,0,6.8-3.1,6.8-6.8
					C201.4,381.9,198.3,378.9,194.6,378.9z"/>
				<path id="Shape_22_" d="M133.1,406.2H85.3c-3.8,0-6.8,3.1-6.8,6.8s3.1,6.8,6.8,6.8h47.8c3.8,0,6.8-3.1,6.8-6.8
					S136.9,406.2,133.1,406.2z"/>
				<path id="Shape_23_" d="M228.7,201.4h-20.5c-7.5,0-13.7,6.1-13.7,13.7h-13.7v-15.6c4.2-2.4,6.8-6.9,6.8-11.8v-13.7
					c0-7.5-6.1-13.7-13.7-13.7H92.2c-7.5,0-13.7,6.1-13.7,13.7v13.7c0,4.9,2.6,9.3,6.8,11.8v90.6c-3.8,0-6.8,3.1-6.8,6.8
					c0,3.8,3.1,6.8,6.8,6.8h95.6c3.8,0,6.8-3.1,6.8-6.8c0-3.8-3.1-6.8-6.8-6.8v-20.5h13.7c0,7.5,6.1,13.7,13.7,13.7h20.5
					c7.5,0,13.7-6.1,13.7-13.7V215C242.3,207.5,236.2,201.4,228.7,201.4z M92.2,174.1h81.9v13.7H92.2V174.1z M139.9,290.1v-6.8
					c0-3.8-3.1-6.8-6.8-6.8s-6.8,3.1-6.8,6.8v6.8H99v-88.7h68.3v88.7H139.9z M180.9,256v-27.3h13.7V256H180.9z M208.2,269.7V215
					h20.5v54.6H208.2z"/>
				<path id="Shape_24_" d="M331.1,310.6c7.5,0,13.7-6.1,13.7-13.7v-41c0-7.5-6.1-13.7-13.7-13.7h-54.6c-7.5,0-13.7,6.1-13.7,13.7
					v41c0,7.5,6.1,13.7,13.7,13.7H297v13.7h-13.7c-3.8,0-6.8,3.1-6.8,6.8s3.1,6.8,6.8,6.8h41c3.8,0,6.8-3.1,6.8-6.8
					s-3.1-6.8-6.8-6.8h-13.7v-13.7H331.1z M331.1,297h-29.9l20.5-41h9.4V297z M276.5,256h29.9l-20.5,41h-9.4V256z"/>
				<circle id="Oval_3_" cx="303.8" cy="221.9" r="6.8"/>
				<path id="Shape_25_" d="M320.2,209.6c2.3,3,6.5,3.6,9.6,1.4c3-2.3,3.6-6.5,1.4-9.6c-6.4-8.6-16.6-13.7-27.3-13.7
					s-20.9,5.1-27.3,13.7c-2.3,3-1.7,7.3,1.4,9.6c3,2.3,7.3,1.7,9.6-1.4c3.9-5.2,9.9-8.2,16.4-8.2
					C310.2,201.4,316.3,204.4,320.2,209.6L320.2,209.6z"/>
				<path id="Shape_26_" d="M267.9,190.3c9.1-10.3,22.1-16.2,35.8-16.2s26.8,5.9,35.8,16.2c1.6,1.8,4.1,2.7,6.5,2.2s4.3-2.2,5.1-4.5
					s0.3-4.9-1.4-6.7c-11.7-13.2-28.4-20.8-46.1-20.8s-34.4,7.6-46.1,20.8c-2.5,2.8-2.2,7.1,0.6,9.6
					C261.1,193.4,265.5,193.1,267.9,190.3L267.9,190.3z"/>
				<path id="Shape_27_" d="M421,170.3l-22.7,34l-7.8-7.8c-2.7-2.6-6.9-2.6-9.6,0.1c-2.6,2.6-2.7,6.9-0.1,9.6l13.7,13.7
					c1.3,1.3,3,2,4.8,2h0.7c2-0.2,3.9-1.3,5-3l27.3-41c1.4-2,1.5-4.6,0.4-6.8c-1.1-2.2-3.2-3.6-5.7-3.8S422.3,168.3,421,170.3
					L421,170.3z"/>
				<path id="Shape_28_" d="M421,265.9l-22.7,34l-7.8-7.8c-2.7-2.6-6.9-2.6-9.6,0.1c-2.6,2.6-2.7,6.9-0.1,9.6l13.7,13.7
					c1.3,1.3,3,2,4.8,2c0.2,0,0.4,0,0.7,0c2-0.2,3.9-1.3,5-3l27.3-41c1.4-2,1.5-4.6,0.4-6.8c-1.1-2.2-3.2-3.6-5.7-3.8
					C424.7,262.7,422.3,263.8,421,265.9L421,265.9z"/>
				<path id="Shape_29_" d="M421,361.4l-22.7,34l-7.8-7.8c-2.7-2.6-6.9-2.6-9.6,0.1c-2.6,2.6-2.7,6.9-0.1,9.6l13.7,13.7
					c1.3,1.3,3,2,4.8,2c0.2,0,0.4,0,0.7,0c2-0.2,3.9-1.3,5-3l27.3-41c1.4-2,1.5-4.6,0.4-6.8c-1.1-2.2-3.2-3.6-5.7-3.8
					S422.3,359.4,421,361.4L421,361.4z"/>
				<path id="Shape_30_" d="M351.6,358.4h-68.3c-7.5,0-13.7,6.1-13.7,13.7v20.5c0,7.4,2.5,14.6,7,20.5h-7c-3.8,0-6.8,3.1-6.8,6.8
					s3.1,6.8,6.8,6.8h68.3c3.8,0,6.8-3.1,6.8-6.8s-3.1-6.8-6.8-6.8h-7c3.1-4,5.3-8.7,6.3-13.7h7.5c11.3,0,20.5-9.2,20.5-20.5v-6.8
					C365.2,364.5,359.1,358.4,351.6,358.4z M283.3,392.5v-20.5h41v20.5c0,11.3-9.2,20.5-20.5,20.5S283.3,403.8,283.3,392.5z
					 M351.6,378.9c0,3.8-3.1,6.8-6.8,6.8h-6.8v-13.7h13.7V378.9z"/>
			</g>
		</g>
	</g>
</g>
</svg>
