<svg height="512" viewBox="0 0 512 512" width="512" xmlns="http://www.w3.org/2000/svg"><g id="filled_outlline" data-name="filled outlline"><path d="m472 352-32-64h-250.667l-37.333 64z" fill="#cbcbcb"/><path d="m320 288h32v72h-32z" fill="#027e2a"/><path d="m432.845 273.689a32 32 0 0 0 -28.622-17.689h-177.843a32 32 0 0 0 -27.641 15.876l-9.406 16.124h250.667z" fill="#029532"/><path d="m205.091 288-37.091 64h-16l37.333-64z" fill="#e2e2e2"/><path d="m120 352-32 8v-56h32z" fill="#cbcbcb"/><path d="m472 448h-448v-19.895a76 76 0 0 1 38.293-65.987l.183-.1a76 76 0 0 1 37.707-10.018h371.817a16 16 0 0 1 16 16v72z" fill="#029532"/><path d="m488 368v16h-24l-8-8v-24h16a16 16 0 0 1 16 16z" fill="#fbb540"/><path d="m88 352.98v23.02l-24 16h-30.88a75.923 75.923 0 0 1 29.17-29.88l.19-.11a76.052 76.052 0 0 1 25.52-9.03z" fill="#fbb540"/><circle cx="96" cy="448" fill="#b9b9b9" r="40"/><circle cx="96" cy="448" fill="#e2e2e2" r="16"/><g fill="#027e2a"><path d="m288 392h-24a8 8 0 0 1 0-16h24a8 8 0 0 1 0 16z"/><path d="m376 392.5h-24a8 8 0 0 1 0-16h24a8 8 0 0 1 0 16z"/><path d="m328 352v72a7.993 7.993 0 0 1 -1.344 4.438l-13.041 19.562h-19.23l17.615-26.422v-69.578z"/><path d="m160 352h16v96h-16z"/><path d="m488 416h-48v32h32l16-8z"/></g><path d="m40 58.745a8 8 0 0 1 -5.657-13.657 96 96 0 0 1 133.773-1.935 8 8 0 0 1 -10.984 11.635 80 80 0 0 0 -111.475 1.612 7.976 7.976 0 0 1 -5.657 2.345z" fill="#02a437"/><path d="m62.627 81.373a8 8 0 0 1 -5.656-13.657 64 64 0 0 1 90.509 0 8 8 0 1 1 -11.313 11.313 48 48 0 0 0 -67.883 0 7.98 7.98 0 0 1 -5.657 2.344z" fill="#02a437"/><path d="m119.2 104a7.974 7.974 0 0 1 -5.657-2.343 16 16 0 0 0 -22.627 0 8 8 0 1 1 -11.316-11.314 32 32 0 0 1 45.255 0 8 8 0 0 1 -5.655 13.657z" fill="#02a437"/><path d="m88 264h32v40h-32z" fill="#b9b9b9"/><circle cx="104" cy="200" fill="#005dbb" r="72"/><path d="m104 280a80 80 0 1 1 80-80 80.091 80.091 0 0 1 -80 80zm0-144a64 64 0 1 0 64 64 64.072 64.072 0 0 0 -64-64z" fill="#e2e2e2"/><path d="m112 160h-24a8 8 0 0 0 -8 8v64a8 8 0 0 0 16 0v-24h16a24 24 0 0 0 0-48zm0 32h-16v-16h16a8 8 0 0 1 0 16z" fill="#e2e2e2"/><circle cx="416" cy="448" fill="#b9b9b9" r="40"/><circle cx="416" cy="448" fill="#e2e2e2" r="16"/><path d="m488 496h-464a8 8 0 0 1 0-16h464a8 8 0 0 1 0 16z" fill="#027e2a"/><path d="m112 208a24 24 0 0 0 0-48h-24a8 8 0 0 0 -8 8v64a8 8 0 0 0 16 0v-24zm8-24a8.009 8.009 0 0 1 -8 8h-16v-16h16a8.009 8.009 0 0 1 8 8z"/><path d="m477.235 344.582-37.235-74.471a39.782 39.782 0 0 0 -35.777-22.111h-177.843a40.133 40.133 0 0 0 -34.551 19.845l-44.424 76.155h-19.405v-67.683a80 80 0 1 0 -48 0v70.16a84.042 84.042 0 0 0 -21.489 8.588l-.187.107a84.183 84.183 0 0 0 -42.324 72.928v19.9a8 8 0 0 0 8 8h24.679a47.866 47.866 0 0 0 11.582 24h-36.261a8 8 0 0 0 0 16h464a8 8 0 0 0 0-16h-36.261a47.866 47.866 0 0 0 11.582-24h8.679a7.994 7.994 0 0 0 3.578-.845l16-8a8 8 0 0 0 4.422-7.155v-72a24.038 24.038 0 0 0 -18.765-23.418zm-34.742 63.418a47.958 47.958 0 0 0 -73.814 32h-49.731l7.708-11.562a7.993 7.993 0 0 0 1.344-4.438v-64h120v16a8 8 0 0 0 2.343 5.657l8 8a8 8 0 0 0 5.657 2.343h16v16zm-299.172 48h225.358a47.866 47.866 0 0 0 11.582 24h-248.522a47.866 47.866 0 0 0 11.582-24zm168.679-96v61.578l-12.281 18.422h-123.719v-80zm32-16h-16v-48h16zm136 32h-12.687l-3.313-3.313v-12.687h8a8.009 8.009 0 0 1 8 8zm-120-32v-48h75.056l24 48zm-133.62-80h177.843a23.868 23.868 0 0 1 21.466 13.267l1.367 2.733h-223.795l2.388-4.093a24.081 24.081 0 0 1 20.731-11.907zm-32.452 32h118.072v48h-146.072zm-97.928 48.116v-32.116h16v32s-14.608.046-16 .116zm-56-144.116a64 64 0 1 1 64 64 64.072 64.072 0 0 1 -64-64zm64 80q4.05 0 8-.4v16.4h-16v-16.4q3.948.394 8 .4zm-37.741 89.066.187-.107a67.954 67.954 0 0 1 13.554-5.883v8.643l-18.422 12.281h-13.3a67.76 67.76 0 0 1 17.981-14.934zm-34.259 59.034a67.89 67.89 0 0 1 6.2-28.315 7.973 7.973 0 0 0 1.8.215h24a7.993 7.993 0 0 0 4.438-1.344l24-16a8 8 0 0 0 3.562-6.656v-15.867c1.391-.086 64-.133 64-.133v80h-16.679a47.991 47.991 0 0 0 -94.642 0h-16.679zm32 19.9a32 32 0 1 1 32 32 32.036 32.036 0 0 1 -32-32zm320 0a32 32 0 1 1 32 32 32.036 32.036 0 0 1 -32-32zm86.111-8h-6.79a47.647 47.647 0 0 0 -5.779-16h22.458v11.056z"/><path d="m96 424a24 24 0 1 0 24 24 24.027 24.027 0 0 0 -24-24zm0 32a8 8 0 1 1 8-8 8.009 8.009 0 0 1 -8 8z"/><path d="m264 392h24a8 8 0 0 0 0-16h-24a8 8 0 0 0 0 16z"/><path d="m376 376.5h-24a8 8 0 0 0 0 16h24a8 8 0 0 0 0-16z"/><path d="m40 58.745a7.976 7.976 0 0 0 5.657-2.345 80 80 0 0 1 111.475-1.614 8 8 0 0 0 10.984-11.635 96 96 0 0 0 -133.773 1.937 8 8 0 0 0 5.657 13.657z"/><path d="m147.48 79.029a8 8 0 0 0 0-11.313 64 64 0 0 0 -90.509 0 8 8 0 1 0 11.313 11.314 48 48 0 0 1 67.883 0 8 8 0 0 0 11.313-.001z"/><path d="m79.6 90.343a8 8 0 1 0 11.314 11.314 16 16 0 0 1 22.627 0 8 8 0 0 0 11.314-11.314 32 32 0 0 0 -45.255 0z"/><path d="m416 424a24 24 0 1 0 24 24 24.027 24.027 0 0 0 -24-24zm0 32a8 8 0 1 1 8-8 8.009 8.009 0 0 1 -8 8z"/></g></svg>