<?xml version="1.0" encoding="utf-8"?>
<!-- Generator: Adobe Illustrator 24.3.0, SVG Export Plug-In . SVG Version: 6.00 Build 0)  -->
<svg version="1.1" id="Layer_1" xmlns="http://www.w3.org/2000/svg" xmlns:xlink="http://www.w3.org/1999/xlink" x="0px" y="0px"
	 viewBox="0 0 512 512" style="enable-background:new 0 0 512 512;" xml:space="preserve">
<style type="text/css">
	.st0{fill-rule:evenodd;clip-rule:evenodd;fill:#09E5D0;}
	.st1{fill-rule:evenodd;clip-rule:evenodd;fill:#05ABAF;}
	.st2{fill-rule:evenodd;clip-rule:evenodd;fill:#D2E4FF;}
	.st3{fill-rule:evenodd;clip-rule:evenodd;fill:#B6D7FF;}
	.st4{fill-rule:evenodd;clip-rule:evenodd;fill:#FFF6CF;}
	.st5{fill-rule:evenodd;clip-rule:evenodd;fill:#FFF0AF;}
</style>
<g>
	<g>
		<path class="st0" d="M434.5,432.3V195.6c0-10.8-8.8-19.6-19.6-19.6H97.2c-10.8,0-19.6,8.9-19.6,19.6v236.7H434.5z"/>
		<path class="st1" d="M434.5,432.3V195.6c0-10.8-8.8-19.6-19.6-19.6h-23.7c10.8,0,19.6,8.8,19.6,19.6v236.7H434.5z"/>
		<path class="st0" d="M86,458.1h340c8.4,0,12.8-4.2,16.3-11.8l9.9-21.7c4.3-9.4,0.7-15.9-9.9-15.9H315c-1.9,0-4.5,1.6-5.4,4.7
			c-2,7.1-8.6,12.2-16.2,12.2h-74.7c-7.7,0-14.3-5.1-16.2-12.2c-0.9-3.1-3.5-4.7-5.4-4.7H69.7c-10.6,0-14.2,6.5-9.9,15.9l9.9,21.7
			C73.1,453.9,77.5,458.1,86,458.1L86,458.1z"/>
		<path class="st1" d="M402.3,458.1H426c8.4,0,12.8-4.2,16.3-11.8l9.9-21.7c4.3-9.4,0.7-15.9-9.9-15.9h-23.7
			c10.6,0,14.2,6.5,9.9,15.9l-9.9,21.7C415.2,453.9,410.8,458.1,402.3,458.1L402.3,458.1z"/>
		<path class="st2" d="M106.2,199.8h303.9c2.6,0,4.7,2.1,4.7,4.8v175.5c0,2.6-2.1,4.8-4.7,4.8H106.2c-2.6,0-4.8-2.1-4.8-4.8V204.5
			C101.4,201.9,103.5,199.8,106.2,199.8z"/>
		<path class="st3" d="M386.4,199.8h23.7c2.6,0,4.7,2.1,4.7,4.8v175.5c0,2.6-2.1,4.8-4.7,4.8h-23.7c2.6,0,4.7-2.1,4.7-4.8V204.5
			C391.1,201.9,389,199.8,386.4,199.8z"/>
		<path class="st2" d="M143.6,356.5h229.1c6.5,0,11.8-5.3,11.8-11.8v-24.4c0-6.5-5.3-11.8-11.8-11.8H143.6
			c-6.5,0-11.8,5.3-11.8,11.8v24.4C131.8,351.2,137.1,356.5,143.6,356.5z"/>
		<path class="st3" d="M349,356.5h23.7c6.5,0,11.8-5.3,11.8-11.8v-24.4c0-6.5-5.3-11.8-11.8-11.8H349c6.5,0,11.8,5.3,11.8,11.8v24.4
			C360.7,351.2,355.4,356.5,349,356.5z"/>
		<path class="st4" d="M254.5,72l-17.3-15c-2.3-2-4.9-1.9-7.2,0l-17.3,15c-2.2,1.9-4.9,1.9-7.2,0l-17.3-15c-2.5-2.1-4.7-2.2-7.1,0
			l-17.4,15c-2.2,1.9-3.6,4.4-3.6,7.8v248c0,2.6,2.1,4.8,4.7,4.8h186.6c2.6,0,4.7-2.1,4.7-4.8v-248c0-3.4-1.4-5.9-3.6-7.8l-17.3-15
			c-2.5-2.2-4.7-2.1-7.2,0l-17.3,15c-2.3,1.9-5,1.9-7.2,0l-17.3-15c-2.3-1.9-4.9-2-7.2,0l-17.3,15C259.5,73.9,256.8,73.9,254.5,72
			L254.5,72z"/>
		<path class="st5" d="M327.7,332.6h23.7c2.6,0,4.7-2.1,4.7-4.8v-248c0-3.4-1.4-5.9-3.6-7.8l-17.3-15c-2.5-2.2-4.7-2.1-7.2,0
			l-8.3,7.2l9.1,7.9c2.2,1.9,3.6,4.4,3.6,7.8v248C332.5,330.4,330.3,332.6,327.7,332.6z"/>
	</g>
	<path d="M154,182H97.2c-3.7,0-7.1,1.5-9.6,4c-2.5,2.5-4,5.9-4,9.6v157.8c0,3.4-2.7,6.1-6.1,6.1c-3.4,0-6.1-2.7-6.1-6.1V195.6
		c0-7.1,2.9-13.5,7.6-18.2c4.7-4.7,11.1-7.6,18.2-7.6H154v-32.4c0-3.4,2.7-6.1,6.1-6.1s6.1,2.7,6.1,6.1v189.1H350
		c0-82.9,0-165.7,0-248.6l-18.4-15.9l-20.5,17.8c-2.4,2-5.8,2-8-0.1l-20.5-17.7l-20.5,17.8c-2.3,2-5.8,2-8-0.1l-20.5-17.7
		l-20.5,17.8c-2.3,2-5.8,2-8-0.1l-20.5-17.7l-18.4,15.9v31.9c0,3.4-2.7,6.1-6.1,6.1c-3.4,0-6.1-2.7-6.1-6.1V75.1
		c0-1.7,0.7-3.4,2.1-4.6l24.4-21.2c2.2-2,5.7-2.1,8-0.1L209.1,67l20.5-17.7c2.2-2,5.7-2.1,8-0.1L258.1,67l20.5-17.7
		c2.2-2,5.7-2.1,8-0.1L307.1,67l20.5-17.7c2.3-2,5.7-2.1,8-0.1l24.1,20.9c1.5,1.1,2.5,2.9,2.5,4.9v94.7h52.6
		c7.1,0,13.5,2.9,18.2,7.6c4.7,4.7,7.6,11.1,7.6,18.2v207h1.8c3.6,0,6.8,0.6,9.4,1.8c2.7,1.2,4.8,3,6.2,5.3c1.4,2.3,2.2,4.9,2.2,7.8
		c0,2.9-0.8,6.1-2.3,9.5l-9.9,21.8c-2.1,4.7-4.6,8.4-8.1,11c-3.7,2.8-8.1,4.3-13.7,4.3H86c-5.6,0-10.1-1.5-13.7-4.3
		c-3.5-2.7-6-6.4-8.1-11l-9.9-21.8c-1.6-3.4-2.3-6.6-2.3-9.5c0-2.9,0.7-5.5,2.2-7.8c1.5-2.3,3.6-4.1,6.2-5.3
		c2.6-1.2,5.7-1.8,9.4-1.8h1.8v-21.5c0-3.4,2.7-6.1,6.1-6.1c3.4,0,6.1,2.7,6.1,6.1v21.5h118.1c3.4,0,6.1,2.7,6.1,6.1
		c0,3,1.2,5.7,3.2,7.6c2,2,4.7,3.2,7.6,3.2h74.7c3,0,5.6-1.2,7.6-3.2c2-2,3.2-4.7,3.2-7.6c0-3.4,2.7-6.1,6.1-6.1h118.1v-207
		c0-3.7-1.5-7.1-4-9.6c-2.5-2.4-5.9-4-9.6-4h-52.6v11.7h52.6c3.4,0,6.1,2.7,6.1,6.1v27.6c0,3.4-2.7,6.1-6.1,6.1
		c-3.4,0-6.1-2.7-6.1-6.1v-21.5h-46.5v96.6h10.4c4.9,0,9.4,2,12.7,5.3c3.2,3.3,5.2,7.7,5.2,12.6v24.4c0,4.9-2,9.4-5.2,12.7
		c-3.3,3.2-7.7,5.2-12.7,5.2H143.6c-4.9,0-9.4-2-12.6-5.2c-3.3-3.3-5.3-7.7-5.3-12.7v-24.4c0-4.9,2-9.4,5.3-12.6
		c3.2-3.2,7.7-5.3,12.6-5.3H154v-96.6h-46.5v172.8h301.2V255.1c0-3.4,2.7-6.1,6.1-6.1c3.4,0,6.1,2.7,6.1,6.1v129.7
		c0,3.4-2.7,6.1-6.1,6.1H101.4c-3.4,0-6.1-2.7-6.1-6.1v-185c0-3.4,2.7-6.1,6.1-6.1H154L154,182z M194.6,265.5
		c-3.4,0-6.1-2.7-6.1-6.1c0-3.4,2.7-6.1,6.1-6.1h127.1c3.4,0,6.1,2.7,6.1,6.1c0,3.4-2.7,6.1-6.1,6.1H194.6z M194.6,312.7
		c-3.4,0-6.1-2.7-6.1-6.1c0-3.4,2.7-6.1,6.1-6.1h99.6c3.4,0,6.1,2.7,6.1,6.1c0,3.4-2.7,6.1-6.1,6.1H194.6z M194.6,289.1
		c-3.4,0-6.1-2.7-6.1-6.1c0-3.4,2.7-6.1,6.1-6.1h127.1c3.4,0,6.1,2.7,6.1,6.1c0,3.4-2.7,6.1-6.1,6.1H194.6z M282.6,119.9
		c2.5,2.3,2.7,6.1,0.5,8.6c-2.3,2.5-6.1,2.7-8.6,0.5c0,0-4-3.7-10.9-4.9v36.6c2.3,0.9,4.7,1.8,7.2,2.6c10.5,3.7,16.8,10.8,19.6,18.9
		c1.8,5.2,2.1,10.8,1,16.2c-1,5.3-3.3,10.5-6.7,14.9c-4.9,6.3-12.1,11.2-21.1,12.7v9.4c0,3.4-2.7,6.1-6.1,6.1
		c-3.4,0-6.1-2.7-6.1-6.1v-9c-3.4-0.1-6.4-0.5-9.4-1.2c-4.8-1.2-9.2-3.3-14.9-7c-2.8-1.8-3.6-5.6-1.8-8.4c1.8-2.8,5.6-3.6,8.4-1.8
		c4.5,2.9,7.8,4.5,11.1,5.4c2,0.5,4.1,0.8,6.5,0.9v-45.5c-5.4-2.4-10.8-5.1-15.4-8.8c-3.7-2.9-6.2-6.8-7.5-11.2
		c-1.3-4.3-1.5-9-0.6-13.5c0.9-4.5,2.8-8.9,5.8-12.7c3.3-4.2,7.9-7.6,13.6-9.3c1.4-0.4,2.7-0.8,4.1-1v-8.5c0-3.4,2.7-6.1,6.1-6.1
		c3.4,0,6.1,2.7,6.1,6.1v8C275.4,113.3,282.5,119.9,282.6,119.9L282.6,119.9z M251.4,124.8c-0.2,0-0.4,0.1-0.6,0.2
		c-3.2,1-5.7,2.8-7.5,5.2c-1.7,2.2-2.9,4.8-3.4,7.5c-0.5,2.7-0.5,5.3,0.3,7.7c0.6,2.1,1.7,3.9,3.3,5.1c2.2,1.7,4.8,3.3,8,4.9
		L251.4,124.8L251.4,124.8z M263.6,173.7v39.9c4.8-1.3,8.7-4.1,11.4-7.7c2.2-2.9,3.7-6.3,4.4-9.7c0.6-3.4,0.5-6.9-0.6-10.1
		C276.2,178.5,270.4,176.2,263.6,173.7z M362.2,314.7v17.9c0,3.4-2.7,6.1-6.1,6.1H160.1c-3.4,0-6.1-2.7-6.1-6.1v-17.9h-10.4
		c-1.6,0-3,0.6-4,1.7c-1,1-1.7,2.5-1.7,4v24.4c0,1.6,0.6,3,1.7,4c1,1,2.4,1.7,4,1.7h229.1c1.6,0,3-0.6,4-1.7c1-1,1.7-2.5,1.7-4
		v-24.4c0-1.5-0.6-3-1.7-4c-1-1-2.4-1.7-4-1.7H362.2z M86,452h340c2.8,0,4.8-0.6,6.3-1.8c1.7-1.3,3.2-3.5,4.5-6.5l9.9-21.8
		c0.6-1.2,1.8-4.5,0.9-5.8c-0.8-1.3-4-1.4-5.3-1.4H315.5c-1.1,3.9-3.2,7.4-5.9,10.1c-4.2,4.2-9.9,6.8-16.2,6.8h-74.7
		c-6.3,0-12.1-2.6-16.3-6.8c-2.8-2.8-4.8-6.3-5.9-10.1H69.7c-1.3,0-4.5,0.2-5.3,1.4c-0.8,1.3,0.3,4.6,0.9,5.8l9.9,21.8
		c1.3,2.9,2.8,5.1,4.5,6.5C81.2,451.4,83.2,452,86,452L86,452z"/>
</g>
</svg>
