<?xml version="1.0" encoding="utf-8"?>
<!-- Generator: Adobe Illustrator 24.3.0, SVG Export Plug-In . SVG Version: 6.00 Build 0)  -->
<svg version="1.1" id="Capa_1" xmlns="http://www.w3.org/2000/svg" xmlns:xlink="http://www.w3.org/1999/xlink" x="0px" y="0px"
	 viewBox="0 0 394.8 394.8" style="enable-background:new 0 0 394.8 394.8;" xml:space="preserve">
<style type="text/css">
	.st0{fill:#FFFFFF;}
</style>
<g>
	<path class="st0" d="M346.7,78.8l-0.4-0.4V78l-76-76l-0.4-0.4c0,0-0.4,0-0.4-0.4c0,0-0.4,0-0.4-0.4c-1.2-0.8-2.4-0.8-4-0.8H76.7
		c-7.2,0-14,2.8-18.8,7.6L57.5,8c-4.8,4.8-8,12-8,19.2v340.4c0,7.6,3.2,14.4,8,19.2c4.8,4.8,12,8,19.2,8h243.6
		c7.6,0,14.4-3.2,19.2-8s8-12,8-19.2V82.8C347.5,81.2,347.1,80,346.7,78.8z M272.7,28.8L317.9,74h-33.2c-3.2,0-6.4-1.2-8.4-3.6
		c-2-2-3.6-5.2-3.6-8.4L272.7,28.8L272.7,28.8z M330.3,367.6c0,2.8-1.2,5.2-3.2,7.2s-4.4,3.2-7.2,3.2H76.7c-2.8,0-5.2-1.2-7.2-2.8
		c-2-2-2.8-4.4-2.8-7.2V26.8c0-2.8,1.2-5.2,3.2-7.2l0.4-0.4c2-1.6,4.4-2.8,6.8-2.8h179.2v45.2c0,8,3.2,15.2,8.8,20.8
		c5.2,5.2,12.8,8.4,20.8,8.4h44.4L330.3,367.6L330.3,367.6z"/>
</g>
</svg>
