<?xml version="1.0" encoding="utf-8"?>
<!-- Generator: Adobe Illustrator 24.3.0, SVG Export Plug-In . SVG Version: 6.00 Build 0)  -->
<svg version="1.1" id="Capa_1" xmlns="http://www.w3.org/2000/svg" xmlns:xlink="http://www.w3.org/1999/xlink" x="0px" y="0px"
	 viewBox="0 0 512 512" style="enable-background:new 0 0 512 512;" xml:space="preserve">
<style type="text/css">
	.st0{fill:#D2E4FF;}
	.st1{fill:#B9CBEA;}
	.st2{fill:#09E5D0;}
	.st3{fill:#05ABAF;}
	.st4{fill:#FFE07D;}
	.st5{fill:#FFD064;}
	.st6{fill:#F0C69E;}
	.st7{fill:#E6BA94;}
</style>
<g>
	<g>
		<path class="st0" d="M339.4,446.1h-90.7c-4.1,0-7.4-3.3-7.4-7.4v-19.1c0-4.1,3.3-7.4,7.4-7.4h90.7c4.1,0,7.4,3.3,7.4,7.4v19.1
			C346.8,442.8,343.5,446.1,339.4,446.1z"/>
		<path class="st1" d="M339.4,432.3h-90.7c-4.1,0-7.4-3.3-7.4-7.4v13.8c0,4.1,3.3,7.4,7.4,7.4h90.7c4.1,0,7.4-3.3,7.4-7.4v-13.8
			C346.8,429,343.5,432.3,339.4,432.3z"/>
		<path class="st2" d="M77.4,204.6c-6.4,0-11.5-5.1-11.5-11.5V77.4c0-6.4,5.1-11.5,11.5-11.5h357.2c6.4,0,11.5,5.1,11.5,11.5v115.7
			c0,6.4-5.1,11.5-11.5,11.5H77.4z"/>
		<path class="st3" d="M434.6,190.8H77.4c-6.4,0-11.5-5.1-11.5-11.5v13.8c0,6.4,5.1,11.5,11.5,11.5h357.2c6.4,0,11.5-5.1,11.5-11.5
			v-13.8C446.1,185.7,441,190.8,434.6,190.8z"/>
		<path class="st4" d="M364.8,98l-6,12.1c-1,1.9-2.8,3.3-4.9,3.6l-13.4,1.9c-5.4,0.8-7.5,7.4-3.6,11.2l9.7,9.4
			c1.5,1.5,2.3,3.7,1.9,5.8l-2.3,13.3c-0.9,5.4,4.7,9.4,9.5,6.9l12-6.3c1.9-1,4.2-1,6.1,0l12,6.3c4.8,2.5,10.4-1.6,9.5-6.9
			l-2.3-13.3c-0.4-2.1,0.3-4.3,1.9-5.8l9.7-9.4c3.9-3.8,1.7-10.4-3.6-11.2l-13.4-1.9c-2.1-0.3-4-1.7-4.9-3.6l-6-12.1
			C374.1,93.1,367.2,93.1,364.8,98z"/>
		<g>
			<g>
				<path class="st5" d="M394.8,153.3l-21.1-11.1c-1.9-1-4.2-1-6.1,0l-21.1,11.1l-0.4,2.1c-0.9,5.4,4.7,9.4,9.5,6.9l12-6.3
					c1.9-1,4.2-1,6.1,0l12,6.3c4.8,2.5,10.4-1.6,9.5-6.9L394.8,153.3z"/>
			</g>
		</g>
		<path class="st6" d="M336.7,412.2V392c0,0,21.5-22.7,21.5-75.4v-35.1c0-8.1-6.5-14.6-14.6-14.6c-8.1,0-14.6,6.5-14.6,14.6v-10
			c0-8.1-6.5-14.6-14.6-14.6c-8.1,0-14.6,6.5-14.6,14.6v-10c0-8.1-6.5-14.6-14.6-14.6c-8.1,0-14.6,6.5-14.6,14.6v-65.3
			c0-8.1-6.5-14.6-14.6-14.6c-8.1,0-14.6,6.5-14.6,14.6v130.4h-0.2l-23.5-26.3c-7.3-8.2-17.9-12.9-28.9-12.9
			c-5.7,0-9.3,6.1-6.6,11.1l22.9,42.1c5.4,9.9,12.3,18.9,20.4,26.6l26.2,24.9v20.3H336.7z"/>
		<g>
			<path class="st7" d="M251.8,398.4h84.9v13.8h-84.9V398.4z"/>
		</g>
		<path class="st4" d="M250.1,98l-6,12.1c-1,1.9-2.8,3.3-4.9,3.6l-13.4,1.9c-5.4,0.8-7.5,7.4-3.6,11.2l9.7,9.4
			c1.5,1.5,2.3,3.7,1.9,5.8l-2.3,13.3c-0.9,5.4,4.7,9.4,9.5,6.9l12-6.3c1.9-1,4.2-1,6.1,0l12,6.3c4.8,2.5,10.4-1.6,9.5-6.9
			l-2.3-13.3c-0.4-2.1,0.3-4.3,1.9-5.8l9.7-9.4c3.9-3.8,1.7-10.4-3.6-11.2l-13.4-1.9c-2.1-0.3-4-1.7-4.9-3.6l-6-12.1
			C259.5,93.1,252.5,93.1,250.1,98z"/>
		<g>
			<g>
				<path class="st5" d="M280.2,153.3l-21.1-11.1c-1.9-1-4.2-1-6.1,0l-21.1,11.1l-0.4,2.1c-0.9,5.4,4.7,9.4,9.5,6.9l12-6.3
					c1.9-1,4.2-1,6.1,0l12,6.3c4.8,2.5,10.4-1.6,9.5-6.9L280.2,153.3z"/>
			</g>
		</g>
		<path class="st4" d="M135.5,98l-6,12.1c-1,1.9-2.8,3.3-4.9,3.6l-13.4,1.9c-5.4,0.8-7.5,7.4-3.6,11.2l9.7,9.4
			c1.5,1.5,2.2,3.7,1.9,5.8l-2.3,13.3c-0.9,5.4,4.7,9.4,9.5,6.9l12-6.3c1.9-1,4.2-1,6.1,0l12,6.3c4.8,2.5,10.4-1.6,9.5-6.9
			l-2.3-13.3c-0.4-2.1,0.3-4.3,1.9-5.8l9.7-9.4c3.9-3.8,1.7-10.4-3.6-11.2l-13.4-1.9c-2.1-0.3-4-1.7-4.9-3.6l-6-12.1
			C144.8,93.1,137.9,93.1,135.5,98L135.5,98z"/>
		<g>
			<g>
				<path class="st5" d="M165.5,153.3l-21.1-11.1c-1.9-1-4.2-1-6.1,0l-21.1,11.1l-0.4,2.1c-0.9,5.4,4.7,9.4,9.5,6.9l12-6.3
					c1.9-1,4.2-1,6.1,0l12,6.3c4.8,2.5,10.4-1.6,9.5-6.9L165.5,153.3z"/>
			</g>
		</g>
	</g>
	<g>
		<path d="M435,59.7h-76.5c-3.2,0-5.8,2.6-5.8,5.8c0,3.2,2.6,5.8,5.8,5.8H435c3.2,0,5.8,2.6,5.8,5.8v116c0,3.2-2.6,5.8-5.8,5.8
			H276.5V196c0-11.2-9.1-20.4-20.4-20.4c-11.2,0-20.4,9.1-20.4,20.4v2.8H177c-3.2,0-5.8,2.6-5.8,5.8c0,3.2,2.6,5.8,5.8,5.8h58.7
			v101.5L222,296.5c-8.4-9.5-20.6-14.9-33.3-14.9c-4.7,0-9,2.4-11.4,6.5s-2.5,9-0.2,13.1l22.9,42.1c5.7,10.4,12.9,19.9,21.6,28.1
			l24.5,23.3V407c-6,1.2-10.5,6.6-10.5,12.9v19.2c0,7.3,5.9,13.2,13.2,13.2h90.8c7.3,0,13.2-5.9,13.2-13.2v-19.2
			c0-6.2-4.3-11.4-10.1-12.8v-12.8c5.3-6.6,21.5-30.9,21.5-77.6v-35.2c0-11.2-9.1-20.4-20.4-20.4c-3.8,0-7.3,1-10.3,2.8
			c-3-7.5-10.4-12.8-18.9-12.8c-3.8,0-7.3,1-10.3,2.8c-3-7.5-10.4-12.8-18.9-12.8c-3.2,0-6.2,0.7-8.9,2v-32.8H435
			c9.5,0,17.3-7.8,17.3-17.3V77C452.3,67.5,444.5,59.7,435,59.7L435,59.7z M285.3,252.6c4.9,0,8.9,4,8.9,8.9v10
			c0,3.2,2.6,5.8,5.8,5.8s5.8-2.6,5.8-5.8c0-4.9,4-8.9,8.9-8.9c4.9,0,8.9,4,8.9,8.9v10c0,3.2,2.6,5.8,5.8,5.8s5.8-2.6,5.8-5.8
			c0-4.9,4-8.9,8.9-8.9c4.9,0,8.9,4,8.9,8.9v35.2c0,49.5-19.8,71.4-20,71.6c-1,1.1-1.6,2.5-1.6,4v14.5h-13.9c-3.2,0-5.8,2.6-5.8,5.8
			s2.6,5.8,5.8,5.8h22.4c0.9,0,1.7,0.7,1.7,1.7v19.2c0,0.9-0.7,1.6-1.7,1.6h-90.8c-0.9,0-1.6-0.7-1.6-1.6v-19.2
			c0-0.9,0.7-1.7,1.6-1.7h45.4c3.2,0,5.8-2.6,5.8-5.8s-2.6-5.8-5.8-5.8h-36.6v-14.5c0-1.6-0.6-3.1-1.8-4.2l-26.2-25
			c-7.7-7.4-14.3-15.9-19.4-25.3l-22.9-42.1c-0.5-1.5,0-2.4,1.5-2.6c9.4,0,18.4,4,24.7,11l23.5,26.4c3.3,3.9,10.4,1.4,10.3-3.8V196
			c0-4.9,4-8.9,8.9-8.9c4.9,0,8.9,4,8.9,8.9v65.5c0,3.2,2.6,5.8,5.8,5.8s5.8-2.6,5.8-5.8C276.5,256.5,280.4,252.6,285.3,252.6
			L285.3,252.6z"/>
		<path d="M154,198.7H77c-3.2,0-5.8-2.6-5.8-5.8V77c0-3.2,2.6-5.8,5.8-5.8h258.4c3.2,0,5.8-2.6,5.8-5.8s-2.6-5.8-5.8-5.8H77
			c-9.5,0-17.3,7.8-17.3,17.3v116c0,9.5,7.8,17.3,17.3,17.3H154c3.2,0,5.8-2.6,5.8-5.8C159.7,201.3,157.2,198.7,154,198.7L154,198.7
			z"/>
		<path d="M293.9,130.7c3.4-3.3,4.6-8.1,3.1-12.6c-1.5-4.5-5.3-7.7-10-8.4l-13.4-1.9c-0.3,0-0.5-0.2-0.6-0.4l-6-12.2
			c-2.1-4.2-6.3-6.9-11.1-6.9c-4.7,0-9,2.6-11.1,6.9l-6,12.2c-0.1,0.2-0.3,0.4-0.6,0.4l-13.4,1.9c-4.7,0.7-8.5,3.9-10,8.4
			c-1.5,4.5-0.3,9.3,3.1,12.6l9.7,9.5c0.2,0.2,0.3,0.5,0.2,0.7l-2.3,13.4c-0.8,4.7,1.1,9.3,4.9,12.1c3.8,2.8,8.8,3.1,13,0.9l12-6.3
			c0.2-0.1,0.5-0.1,0.7,0l12,6.3c1.8,1,3.8,1.4,5.7,1.4c2.5,0,5.1-0.8,7.2-2.4c3.8-2.8,5.7-7.4,4.9-12.1l-2.3-13.4
			c0-0.3,0-0.5,0.2-0.7L293.9,130.7z M276.2,131.9c-2.9,2.8-4.2,6.9-3.5,10.9l2.3,13.4c0,0.1,0.1,0.5-0.3,0.8
			c-0.4,0.3-0.7,0.1-0.8,0.1l-12-6.3c-1.8-0.9-3.8-1.4-5.7-1.4c-2,0-3.9,0.5-5.7,1.4l-12,6.3c-0.1,0.1-0.4,0.2-0.9-0.1
			c-0.4-0.3-0.3-0.7-0.3-0.8l2.3-13.4c0.7-4-0.6-8.1-3.5-10.9l-9.7-9.5c-0.1-0.1-0.4-0.4-0.2-0.8c0.2-0.5,0.5-0.5,0.7-0.5l13.4-1.9
			c4-0.6,7.5-3.1,9.3-6.7l6-12.2c0.1-0.1,0.2-0.4,0.7-0.4s0.7,0.3,0.7,0.4l6,12.2c1.8,3.6,5.3,6.2,9.3,6.7l13.4,1.9
			c0.1,0,0.5,0.1,0.7,0.5c0.2,0.5-0.1,0.7-0.2,0.8L276.2,131.9z"/>
		<path d="M171.4,154.2l-2.3-13.4c0-0.3,0-0.5,0.2-0.7l9.7-9.5c3.4-3.3,4.6-8.1,3.1-12.6c-1.5-4.5-5.3-7.7-10-8.4l-13.4-1.9
			c-0.3,0-0.5-0.2-0.6-0.4l-6-12.2c-2.1-4.2-6.3-6.9-11.1-6.9s-9,2.6-11.1,6.9l-6,12.2c-0.1,0.2-0.3,0.4-0.6,0.4l-13.4,1.9
			c-4.7,0.7-8.5,3.9-10,8.4s-0.3,9.3,3.1,12.6l9.7,9.5c0.2,0.2,0.3,0.5,0.2,0.7l-2.3,13.4c-0.8,4.7,1.1,9.3,4.9,12.1
			c3.8,2.8,8.8,3.1,13,0.9l12-6.3c0.2-0.1,0.5-0.1,0.8,0l12,6.3c1.8,1,3.8,1.4,5.7,1.4c2.5,0,5.1-0.8,7.2-2.4
			C170.3,163.5,172.2,158.9,171.4,154.2L171.4,154.2z M161.3,131.9c-2.9,2.8-4.2,6.9-3.5,10.9l2.3,13.4c0,0.1,0.1,0.5-0.3,0.8
			c-0.4,0.3-0.7,0.1-0.8,0.1l-12-6.3c-1.8-0.9-3.8-1.4-5.7-1.4c-2,0-3.9,0.5-5.7,1.4l-12,6.3c-0.1,0.1-0.4,0.2-0.8-0.1
			c-0.4-0.3-0.3-0.7-0.3-0.8l2.3-13.4c0.7-4-0.6-8.1-3.5-10.9l-9.7-9.5c-0.1-0.1-0.4-0.4-0.2-0.8c0.2-0.5,0.5-0.5,0.7-0.5l13.4-1.9
			c4-0.6,7.5-3.1,9.3-6.7l6-12.2c0.1-0.1,0.2-0.4,0.7-0.4s0.7,0.3,0.7,0.4l6,12.2c1.8,3.6,5.3,6.2,9.3,6.7l13.4,1.9
			c0.1,0,0.5,0.1,0.7,0.5c0.2,0.5-0.1,0.7-0.2,0.8L161.3,131.9z"/>
		<path d="M408.8,130.7c3.4-3.3,4.6-8.1,3.1-12.6c-1.5-4.5-5.3-7.7-10-8.4l-13.4-1.9c-0.3,0-0.5-0.2-0.6-0.4l-6-12.2
			c-2.1-4.2-6.3-6.9-11.1-6.9s-9,2.6-11.1,6.9l-6,12.2c-0.1,0.2-0.3,0.4-0.6,0.4l-13.4,1.9c-4.7,0.7-8.5,3.9-10,8.4
			c-1.5,4.5-0.3,9.3,3.1,12.6l9.7,9.5c0.2,0.2,0.3,0.5,0.2,0.7l-2.3,13.4c-0.8,4.7,1.1,9.3,4.9,12.1c3.8,2.8,8.8,3.1,13,0.9l12-6.3
			c0.2-0.1,0.5-0.1,0.7,0l12,6.3c1.8,1,3.8,1.4,5.7,1.4c2.5,0,5.1-0.8,7.2-2.4c3.8-2.8,5.7-7.4,4.9-12.1l-2.3-13.4
			c0-0.3,0-0.5,0.2-0.7L408.8,130.7z M391,131.9c-2.9,2.8-4.2,6.9-3.5,10.9l2.3,13.4c0,0.1,0.1,0.5-0.3,0.8
			c-0.4,0.3-0.7,0.1-0.8,0.1l-12-6.3c-1.8-0.9-3.8-1.4-5.7-1.4s-3.9,0.5-5.7,1.4l-12,6.3c-0.1,0.1-0.4,0.2-0.8-0.1
			c-0.4-0.3-0.3-0.7-0.3-0.8l2.3-13.4c0.7-4-0.6-8.1-3.5-10.9l-9.7-9.5c-0.1-0.1-0.4-0.3-0.2-0.8c0.2-0.5,0.5-0.5,0.7-0.5l13.4-1.9
			c4-0.6,7.5-3.1,9.3-6.7l6-12.2c0.1-0.1,0.2-0.4,0.7-0.4c0.5,0,0.7,0.3,0.7,0.4l6,12.2c1.8,3.6,5.3,6.2,9.3,6.7l13.4,1.9
			c0.1,0,0.5,0.1,0.7,0.5c0.2,0.5-0.1,0.7-0.2,0.8L391,131.9z"/>
	</g>
</g>
</svg>
