<?xml version="1.0" encoding="utf-8"?>
<!-- Generator: Adobe Illustrator 24.3.0, SVG Export Plug-In . SVG Version: 6.00 Build 0)  -->
<svg version="1.1" id="Capa_1" xmlns="http://www.w3.org/2000/svg" xmlns:xlink="http://www.w3.org/1999/xlink" x="0px" y="0px"
	 viewBox="0 0 512 512" style="enable-background:new 0 0 512 512;" xml:space="preserve">
<style type="text/css">
	.st0{fill:#B6D7FF;}
	.st1{fill:#81D9FC;}
	.st2{fill:#09E5D0;}
	.st3{fill:#05ABAF;}
	.st4{fill:#FF8086;}
	.st5{fill:#E5646E;}
	.st6{fill:#B3E59F;}
	.st7{fill:#9AD8A7;}
</style>
<g>
	<g>
		<path class="st0" d="M415.2,85.2c-6.5-1.2-10.1,5.6-11.3,12.2L375,260l15.6-1.5l7.8-8.7L425,99.1
			C426.1,92.5,421.8,86.3,415.2,85.2L415.2,85.2z"/>
		<path class="st1" d="M416.2,85.4c-0.3-0.1-0.6-0.2-0.9-0.2c-6.5-1.2-12.8,3.2-13.9,9.8l-26.6,150.7h0l-2.1,11.8l9.1,10.1l14.6-5.9
			l2.1-11.8l-8.1-1.4c-1.7-0.3-2.9-2-2.6-3.7l27.6-156.5C415.5,87.2,415.8,86.2,416.2,85.4L416.2,85.4z"/>
		<path class="st2" d="M396.3,261.6l-17.6-3.1L375,260c-2.2-0.4-4.3,1.1-4.6,3.2l-6.5,21.1l25.9,5.6l7.8-11.8l2.1-11.8
			C400,264.1,398.5,262,396.3,261.6L396.3,261.6z"/>
		<path class="st3" d="M379.2,274.9c-2.2-0.4-3.6-2.5-3.2-4.6l1.7-9.5c0.2-0.9,0.6-1.6,1.1-2.2l-6.1-1.1c-2.2-0.4-4.3,1.1-4.6,3.3
			l-4.2,23.7l15.3,10.2l16.3-4.6l2.1-11.8L379.2,274.9z"/>
		<path class="st0" d="M97.2,84.2c-6.5,1.2-8.6,9.1-7.5,15.6l32.1,159.9l17.9-3.2L111.1,93.9C110,87.4,103.7,83,97.2,84.2z"/>
		<path class="st1" d="M129.6,246.1c-1.7,0.3-3.4-0.9-3.7-2.6L97.8,84.1c-0.2,0-0.4,0-0.6,0.1c-6.5,1.2-10.9,7.4-9.8,13.9L114,248.8
			h0l2.1,11.8l11.5,5.5l12.1-9.7l-2.1-11.8L129.6,246.1z"/>
		<path class="st2" d="M139.8,256.5l-17.9,3.2l-2.1,4.2c-2.2,0.4-3.6,2.5-3.2,4.6L117,289l26.8-5.6l2.6-11.8l-2.1-11.8
			C144,257.5,142,256.1,139.8,256.5z"/>
		<path class="st3" d="M148.6,283.4l-2.1-11.8l-18.8,3.3c-1.7,0.3-3.4-0.9-3.7-2.6l-2.1-11.8c0-0.3-0.1-0.6-0.1-0.8l-5.7,1
			c-2.2,0.4-3.6,2.5-3.3,4.6l2.1,11.8l0,0L117,289l19.3,7.4L148.6,283.4z"/>
		<path class="st2" d="M397.4,290.3l-23.7-4.2l-9,7.1c-2.2-0.4-4.3,1.1-4.6,3.2l-13.2,50l31.4,5.5l16.4-22.6l6.1-34.5
			C401,292.8,399.5,290.7,397.4,290.3L397.4,290.3z"/>
		<path class="st2" d="M150.6,283.1l-23.9,4.2l-5.3,6.8c-2.2,0.4-3.6,2.5-3.2,4.6l4.2,54.5l39.2-3.2l1.4-20.5l-7.6-43.1
			C154.8,284.1,152.8,282.7,150.6,283.1L150.6,283.1z"/>
		<g>
			<path class="st3" d="M162.8,329.4h-25.4c-1.9,0-3.6-1.4-3.9-3.3l-6.8-38.8l-11.6,2.1c-2.2,0.4-3.6,2.5-3.3,4.6l10.4,59.2
				l15.5-2.7l27.9-4.9L162.8,329.4z"/>
			<path class="st3" d="M370.6,329.4c-2.5,0-4.4-2.2-3.9-4.7l6.6-37.4c0.1-0.4,0.2-0.8,0.4-1.2l-11.8-2.1c-2.2-0.4-4.3,1.1-4.6,3.2
				l-10.4,59.2l43.4,7.7l4.4-24.7L370.6,329.4z"/>
		</g>
		<path class="st2" d="M423.2,438.3l-333.9-0.9c-2.2,0-4-1.8-4-4l-4.3-15.9l167.7-7.5l182.5,7.5v13.6l-3.9,3.1
			C427.2,436.5,425.4,438.3,423.2,438.3L423.2,438.3z"/>
		<path class="st3" d="M431.1,431.1v6.4c0,2.2-1.8,4-4,4H84.9c-2.2,0-4-1.8-4-4v-20l5.7-7.5l4.7,7.5v9.6c0,2.2,1.8,4,4,4H431.1z"/>
		<path class="st2" d="M431.1,415l-353.5-2.5c-6.6,0-12-5.4-12-12l-3.1-37.9c0-6.6-0.2-17.2,6.5-17.2h374.2c6.6,0,12,5.4,12,12v48.1
			C455.1,412.1,437.7,415,431.1,415z"/>
		<path class="st3" d="M455.1,403.1v2.4c0,6.6-5.4,12-12,12H68.9c-6.6,0-12-5.4-12-12v-48.1c0-6.6,5.4-12,12-12h2.4v52.1
			c0,3.1,2.5,5.6,5.6,5.6H455.1z"/>
		<path class="st4" d="M105,381.5c0-6.6-5.4-12-12-12c-1.2,0-2.4,0.2-3.5,0.5c-4.9,1.5-1.9,6.3-1.9,11.8c0,6.6-1.5,9.4,5.1,9.4
			c5.4,0,10.3-1.2,11.8-6.1C104.8,383.9,105,382.7,105,381.5z"/>
		<path class="st5" d="M104.4,385c-1.5,4.9-6.1,8.5-11.5,8.5c-6.6,0-12-5.4-12-12c0-5.4,3.6-10,8.5-11.5c-0.3,1.1-0.5,2.3-0.5,3.5
			c0,6.6,5.4,12,12,12C102.2,385.5,103.3,385.3,104.4,385z"/>
		<path class="st6" d="M153,381.5c0-6.6-5.4-12-12-12c-1.2,0-2.4,0.2-3.5,0.5c-4.9,1.5-1.9,6.3-1.9,11.8c0,6.6-1.5,9.4,5.1,9.4
			c5.4,0,10.3-1.2,11.8-6.1C152.9,383.9,153,382.7,153,381.5z"/>
		<path class="st7" d="M152.5,385c-1.5,4.9-6.1,8.5-11.5,8.5c-6.6,0-12-5.4-12-12c0-5.4,3.6-10,8.5-11.5c-0.3,1.1-0.5,2.3-0.5,3.5
			c0,6.6,5.4,12,12,12C150.2,385.5,151.4,385.3,152.5,385z"/>
		<path class="st6" d="M334.9,381.5c0-6.6-5.4-12-12-12c-1.2,0-2.4,0.2-3.5,0.5c-4.9,1.5-1.9,6.3-1.9,11.8c0,6.6-1.5,9.4,5.1,9.4
			c5.4,0,10.3-1.2,11.8-6.1C334.7,383.9,334.9,382.7,334.9,381.5z"/>
		<path class="st7" d="M334.4,385c-1.5,4.9-6.1,8.5-11.5,8.5c-6.6,0-12-5.4-12-12c0-5.4,3.6-10,8.5-11.5c-0.3,1.1-0.5,2.3-0.5,3.5
			c0,6.6,5.4,12,12,12C332.1,385.5,333.3,385.3,334.4,385z"/>
		<path class="st6" d="M383,381.5c0-6.6-5.4-12-12-12c-1.2,0-2.4,0.2-3.5,0.5c-4.9,1.5-1.9,6.3-1.9,11.8c0,6.6-1.5,9.4,5.1,9.4
			c5.4,0,10.3-1.2,11.8-6.1C382.8,383.9,383,382.7,383,381.5z"/>
		<path class="st7" d="M382.5,385c-1.5,4.9-6.1,8.5-11.5,8.5c-6.6,0-12-5.4-12-12c0-5.4,3.6-10,8.5-11.5c-0.3,1.1-0.5,2.3-0.5,3.5
			c0,6.6,5.4,12,12,12C380.2,385.5,381.4,385.3,382.5,385z"/>
		<path class="st6" d="M431.1,381.5c0-6.6-5.4-12-12-12c-1.2,0-2.4,0.2-3.5,0.5c-4.9,1.5-1.9,6.3-1.9,11.8c0,6.6-1.5,9.4,5.1,9.4
			c5.4,0,10.3-1.2,11.8-6.1C430.9,383.9,431.1,382.7,431.1,381.5z"/>
		<path class="st7" d="M430.6,385c-1.5,4.9-6.1,8.5-11.5,8.5c-6.6,0-12-5.4-12-12c0-5.4,3.6-10,8.5-11.5c-0.3,1.1-0.5,2.3-0.5,3.5
			c0,6.6,5.4,12,12,12C428.3,385.5,429.4,385.3,430.6,385z"/>
		<path class="st6" d="M272,223c0-8.9-7.2-16-16-16c-2.2,0-4.2,0.4-6.1,1.2c-5.8,2.4-7.3,8-7.3,14.7c0,8.9,4.5,13.5,13.4,13.5
			c6.6,0,12.2-1.3,14.7-7C271.6,227.4,272,225.2,272,223z"/>
		<path class="st7" d="M270.7,229.4c-2.5,5.7-8.1,9.6-14.7,9.6c-8.9,0-16-7.2-16-16c0-7.1,4.6-13.1,10.9-15.2
			c-0.8,2-1.3,4.1-1.3,6.4c0,8.9,7.2,16,16,16C267.4,230.2,269.1,229.9,270.7,229.4z"/>
		<g>
			<path class="st6" d="M295.4,190.9c-2.1,0-4.3-0.6-6.3-1.8c-20.5-12.6-44.7-13.2-65.2-0.6c-5.5,3.4-13.9,5.4-17.5,0.2
				c-0.1-0.2-0.2-0.3-0.3-0.5c-3.5-5.7-1.7-13.1,4-16.5c28.3-17.3,63.4-17.3,91.7,0c5.7,3.5,7.4,10.9,4,16.5c0,0.1-0.1,0.1-0.1,0.2
				C303.4,192,299.4,190.9,295.4,190.9L295.4,190.9z"/>
		</g>
		<g>
			<path class="st7" d="M305.7,188.4c-2.3,3.6-6.2,5.6-10.1,5.6c-2.1,0-4.3-0.6-6.3-1.8c-20.5-12.6-46.1-12.6-66.6,0
				c-5.5,3.4-12.6,1.8-16.2-3.5c5-3,9.9-6,9.9-6c0.1,0,0.3,0,0.4-0.1c11.9-7.3,25.4-11.1,39.2-11.1c13.8,0,27.3,3.8,39.2,11.1
				c0.1,0.1,0.3,0.1,0.4,0.1C295.6,182.8,300,185.2,305.7,188.4L305.7,188.4z"/>
		</g>
		<g>
			<path class="st6" d="M322.6,152.2c-2.1,0-4.3-0.6-6.3-1.8c-38.3-23.5-80.2-24.1-118.5-0.6c-5.2,3.2-15.8,8.3-19.6,3.7
				c-0.3-0.4-0.7-0.9-0.9-1.3c-3.5-5.7-1.7-13.1,4-16.5c22.5-13.8,48.3-21.1,74.6-21.1s52.2,7.3,74.6,21.1c5.7,3.5,7.4,10.9,4,16.5
				C332.3,155.9,326.6,152.2,322.6,152.2L322.6,152.2z"/>
		</g>
		<g>
			<path class="st7" d="M334.6,152.3c-2.3,3.7-6.2,5.7-10.2,5.7c-2.1,0-4.3-0.6-6.3-1.8c-38.3-23.5-85.9-23.5-124.2,0
				c-5.2,3.2-11.8,2-15.6-2.6c2.2-1.6,5.3-3.9,9.3-6.8c0.2,0,0.3,0,0.4-0.1c20.6-12.6,44.1-19.3,67.9-19.3s47.4,6.7,67.9,19.3
				c0.1,0.1,0.3,0.1,0.4,0.1C324.4,146.7,328.8,149.1,334.6,152.3L334.6,152.3z"/>
		</g>
		<g>
			<path class="st6" d="M351.1,115.5c-2.1,0-4.3-0.6-6.3-1.8c-56-34.3-119.6-36.8-175.6-2.5c-5.7,3.5-17.2,10.5-20.6,4.9
				s-1.7-13.1,4-16.5c31.1-19.1,66.9-29.2,103.4-29.2s72.3,10.1,103.4,29.2c5.7,3.5,7.4,10.9,4,16.5c-0.1,0.2-0.2,0.3-0.3,0.5
				C360.8,120,355,115.5,351.1,115.5L351.1,115.5z"/>
		</g>
		<g>
			<path class="st7" d="M363.1,116.6c-2.3,3.4-6.1,5.3-10,5.3c-2.1,0-4.3-0.6-6.3-1.8c-56-34.3-125.7-34.3-181.7,0
				c-5.4,3.3-12.3,1.9-16-3.2c4.2-2.7,9.7-6.3,9.7-6.3c0.1,0,0.3,0,0.4-0.1C188.5,92.6,222,83.1,256,83.1s67.5,9.5,96.7,27.4
				c0.1,0.1,0.3,0.1,0.4,0.1C353.2,110.7,358.4,113.8,363.1,116.6z"/>
		</g>
	</g>
	<g>
		<path d="M443.1,339.4h-44.2l7.7-43.4c0.5-2.6-0.1-5.3-1.7-7.5c-0.7-1-1.6-1.9-2.7-2.6l3.3-18.6c0.6-3.2-0.5-6.3-2.6-8.6l28-158.6
			c1.7-9.8-4.8-19.2-14.6-20.9c-8.7-1.7-19.2,4.5-20.9,14.6l-11.1,63c-0.6,3.3,1.6,6.4,4.9,7c3.3,0.6,6.4-1.6,7-4.9l11.1-63
			c0.6-3.3,3.7-5.5,7-4.9c3.3,0.6,5.5,3.7,4.9,7l-27.6,156.6l-11.8-2.1l11.6-65.9c0.6-3.3-1.6-6.4-4.9-7c-3.3-0.6-6.4,1.6-7,4.9
			l-12,67.9c-2.7,1.4-4.8,4-5.3,7.2l-3.3,18.6c-3.7,0.9-6.8,4-7.5,8l-9.4,53.2h-63.2c-3.3,0-6,2.7-6,6s2.7,6,6,6h164.3
			c3.3,0,6,2.7,6,6v48.1c0,3.3-2.7,6-6,6H68.9c-3.3,0-6-2.7-6-6v-48.1c0-3.3,2.7-6,6-6h181.3c3.3,0,6-2.7,6-6s-2.7-6-6-6h-79.6
			l-9.5-54.1c-0.7-4-3.8-7.1-7.5-8l-3.3-18.6c-0.4-2-2.1-5.6-5.3-7.2L117,92.9c-1.4-8.8-10.8-16.5-20.9-14.6
			c-8.8,1.4-16.5,10.8-14.6,20.9l28,158.6c-2.1,2.2-3.1,5.4-2.6,8.6l3.3,18.6c-3.2,2.1-5,6-4.3,10.1l7.8,44.4H68.9
			c-9.9,0-18,8.1-18,18v48.1c0,9.9,8.1,18,18,18h6v14c0,5.5,4.5,10,10,10h38.9c3.3,0,6-2.7,6-6c0-3.3-2.7-6-6-6H86.9v-12h338.1v12
			H152c-3.3,0-6,2.7-6,6c0,3.3,2.7,6,6,6h275.1c5.5,0,10-4.5,10-10v-14h6c9.9,0,18-8.1,18-18v-48.1
			C461.1,347.5,453,339.4,443.1,339.4L443.1,339.4z M370.8,279.5l2.8-15.8l19.7,3.5l-2.8,15.8L370.8,279.5z M362.8,290.3l31.6,5.6
			l-7.7,43.5h-32.5L362.8,290.3z M121.9,282l-2.8-15.8l19.7-3.5l2.8,15.8L121.9,282z M94.4,92.6c0.9-1.3,2.3-2.2,3.9-2.5
			c2.4-0.4,6,0.9,7,4.9l27.6,156.6l-11.8,2.1L93.4,97.1C93.1,95.5,93.5,93.9,94.4,92.6L94.4,92.6z M118.1,294.9l31.6-5.6l8.8,50.1
			h-32.5L118.1,294.9z"/>
		<path d="M437.1,381.5c0-9.9-8.1-18-18-18s-18,8.1-18,18s8.1,18,18,18S437.1,391.4,437.1,381.5z M413,381.5c0-3.3,2.7-6,6-6
			s6,2.7,6,6c0,3.3-2.7,6-6,6S413,384.8,413,381.5z"/>
		<path d="M389,381.5c0-9.9-8.1-18-18-18s-18,8.1-18,18s8.1,18,18,18S389,391.4,389,381.5z M365,381.5c0-3.3,2.7-6,6-6
			c3.3,0,6,2.7,6,6c0,3.3-2.7,6-6,6C367.7,387.5,365,384.8,365,381.5z"/>
		<path d="M340.9,381.5c0-9.9-8.1-18-18-18s-18,8.1-18,18s8.1,18,18,18S340.9,391.4,340.9,381.5z M316.9,381.5c0-3.3,2.7-6,6-6
			c3.3,0,6,2.7,6,6c0,3.3-2.7,6-6,6C319.6,387.5,316.9,384.8,316.9,381.5z"/>
		<path d="M74.9,381.5c0,9.9,8.1,18,18,18s18-8.1,18-18s-8.1-18-18-18S74.9,371.5,74.9,381.5z M99,381.5c0,3.3-2.7,6-6,6s-6-2.7-6-6
			c0-3.3,2.7-6,6-6S99,378.2,99,381.5z"/>
		<path d="M123,381.5c0,9.9,8.1,18,18,18s18-8.1,18-18s-8.1-18-18-18S123,371.5,123,381.5z M147,381.5c0,3.3-2.7,6-6,6s-6-2.7-6-6
			c0-3.3,2.7-6,6-6S147,378.2,147,381.5z"/>
		<path d="M186.7,381.3c0,3.3,2.7,6,6,6h78.5c3.3,0,6-2.7,6-6c0-3.3-2.7-6-6-6h-78.5C189.4,375.3,186.7,378,186.7,381.3z"/>
		<path d="M256,200.9c-12.2,0-22,9.9-22,22c0,12.2,9.9,22,22,22c12.2,0,22-9.9,22-22C278,210.8,268.2,200.9,256,200.9z M256,233
			c-5.5,0-10-4.5-10-10c0-5.5,4.5-10,10-10s10,4.5,10,10C266,228.5,261.5,233,256,233z"/>
		<path d="M311,191.4c5.2-8.5,2.5-19.6-6-24.8c-30.2-18.5-67.8-18.5-98,0c-8.5,5.2-11.1,16.3-6,24.8c4.7,7.8,15.7,11.4,24.8,6
			c18.6-11.4,41.7-11.4,60.3,0C293.6,202.3,306,199.9,311,191.4z M300.7,185.1c-1.8,2.1-4.2,4-8.3,2c-22.5-13.8-50.4-13.8-72.9,0
			c-1.2,1-6,1.6-8.3-2c-1-1.2-1.6-6,2-8.3c13.2-8.1,28-12.1,42.7-12.1c14.8,0,29.6,4,42.7,12.1C300.7,178.8,302.7,179.9,300.7,185.1
			L300.7,185.1z"/>
		<path d="M339.7,155.3c4.7-7.2,2.9-19.6-6-24.8c-23.4-14.4-50.3-21.9-77.8-21.9s-54.4,7.6-77.8,21.9c-7.9,4.6-11.2,16-6,24.8
			c4.7,7.8,15.7,11.4,24.8,6c36.4-22.3,81.5-22.3,117.9,0C322.4,166.2,334.8,163.8,339.7,155.3L339.7,155.3z M329.5,149
			c-1.8,2.1-4.2,4-8.3,2c-40.2-24.7-90.2-24.7-130.4,0c-1.2,1-6,1.6-8.3-2c-1.7-2.8-0.8-6.5,2-8.3c21.5-13.2,46.3-20.2,71.5-20.2
			s50,7,71.5,20.2C330.3,142.5,331.2,146.2,329.5,149L329.5,149z"/>
		<path d="M168.3,125.2c54.1-33.2,121.3-33.2,175.4,0c7.4,5,19.8,2.6,24.8-6c4.7-7.2,2.9-19.6-6-24.8
			C330.5,74.8,293.6,64.4,256,64.4c-16,0-32.1,1.9-47.6,5.6c-3.2,0.8-5.2,4-4.4,7.2c0.8,3.2,4,5.2,7.2,4.4
			c14.7-3.5,29.7-5.3,44.8-5.3c35.4,0,70.1,9.8,100.3,28.3c2,2,4,3.1,2,8.3c-1.8,2.1-4.2,4-8.3,2c-58-35.5-130-35.5-188,0
			c-2.8,1.7-6.5,0.8-8.3-2c-1-1.2-1.6-6,2-8.3C165.1,99,175,94,185.2,90c3.1-1.2,4.6-4.7,3.4-7.8c-1.2-3.1-4.7-4.6-7.8-3.4
			c-10.8,4.3-21.4,9.6-31.4,15.7c-7.9,4.6-11.2,16-6,24.8C148.7,127.7,159.8,130.4,168.3,125.2L168.3,125.2z"/>
	</g>
</g>
</svg>
