<?xml version="1.0" encoding="utf-8"?>
<!-- Generator: Adobe Illustrator 24.3.0, SVG Export Plug-In . SVG Version: 6.00 Build 0)  -->
<svg version="1.1" id="Capa_1" xmlns="http://www.w3.org/2000/svg" xmlns:xlink="http://www.w3.org/1999/xlink" x="0px" y="0px"
	 viewBox="0 0 512 512" style="enable-background:new 0 0 512 512;" xml:space="preserve">
<style type="text/css">
	.st0{fill:#09E5D0;}
	.st1{fill:#E2F8CC;}
	.st2{fill:#FFFFFF;}
	.st3{fill:#05ABAF;}
	.st4{fill:#FFCDAC;}
	.st5{fill:#FFA71C;}
	.st6{fill:#FFBC53;}
</style>
<path class="st0" d="M251.9,162l-29-67.7l12.7-7.5c7.2-4.2,16.2-3.5,22.7,1.7l1.9,1.6c7.3,6,17.9,6,25.2,0l0,0c7.3-6,17.9-6,25.2,0
	l0.1,0.1c7.3,6,17.9,6,25.2,0l1.9-1.6c6.5-5.3,15.6-6,22.8-1.7l12.4,7.3L344.2,162H251.9z"/>
<path class="st1" d="M246.5,161.9c-32.7,10.7-54.8,41.1-54.8,75.5v190.5h212.5V237.4c0-34.4-22.1-64.8-54.8-75.5H246.5z"/>
<path class="st0" d="M210.1,329.6H148c-35.3,0-64,28.6-64,64v34.3h190v-34.3C274.1,358.3,245.4,329.6,210.1,329.6z"/>
<polygon class="st2" points="214.5,329.6 179,365.1 143.6,329.6 "/>
<path class="st3" d="M169.1,218.2h51.8v25.7c0,13.3-10.8,24.1-24.1,24.1h-59.5v-18C137.2,232.4,151.5,218.2,169.1,218.2z"/>
<path class="st4" d="M220.8,268v19.8c0,23.1-18.7,41.8-41.8,41.8l0,0c-23.1,0-41.8-18.7-41.8-41.8V268H220.8z"/>
<path class="st5" d="M332.9,388.8h75.5c10.8,0,19.6,8.8,19.6,19.6l0,0c0,10.8-8.8,19.6-19.6,19.6h-75.5c-10.8,0-19.6-8.8-19.6-19.6
	l0,0C313.3,397.5,322.1,388.8,332.9,388.8z"/>
<path class="st6" d="M332.9,349.6h75.5c10.8,0,19.6,8.8,19.6,19.6l0,0c0,10.8-8.8,19.6-19.6,19.6h-75.5c-10.8,0-19.6-8.8-19.6-19.6
	l0,0C313.3,358.4,322.1,349.6,332.9,349.6z"/>
<path class="st5" d="M332.9,310.5h75.5c10.8,0,19.6,8.8,19.6,19.6l0,0c0,10.8-8.8,19.6-19.6,19.6h-75.5c-10.8,0-19.6-8.8-19.6-19.6
	l0,0C313.3,319.2,322.1,310.5,332.9,310.5z"/>
<path d="M199.8,201.7c3.3,2,7.6,1,9.6-2.3c8.8-14.3,22.3-25.1,38.2-30.5h100.6c29.3,10,48.9,37.4,48.9,68.5v18.5c0,3.9,3.1,7,7,7
	c3.9,0,7-3.1,7-7v-18.5c0-36.5-22.8-68.8-56.9-81.2L379.4,97c1.4-3.2,0.1-7-2.9-8.7l-12.4-7.3c-9.7-5.8-22.1-4.8-30.8,2.3l-1.9,1.6
	c-4.7,3.9-11.6,3.9-16.4,0l-0.1-0.1c-9.9-8.1-24.2-8.1-34.1,0c-4.7,3.9-11.6,3.9-16.4,0l-1.9-1.6c-8.7-7.1-21-8-30.7-2.4l-12.7,7.5
	c-3,1.8-4.3,5.5-2.9,8.8l25.3,59.1c-18.3,6.6-34,19.3-44.2,35.9C195.5,195.3,196.6,199.6,199.8,201.7z M239.1,92.9
	c4.6-2.7,10.6-2.3,14.7,1.1l1.9,1.6c9.9,8.1,24.2,8.1,34.1,0c4.7-3.9,11.6-3.9,16.4,0l0.1,0.1c9.9,8.1,24.2,8.1,34,0l1.9-1.6
	c4.2-3.4,10.1-3.9,14.8-1.1l7.1,4.2l-24.6,57.8h-83.2l-24.7-57.7L239.1,92.9z"/>
<path d="M404.2,275.4c-1.8,0-3.6,0.7-4.9,2c-1.3,1.3-2,3.1-2,4.9c0,1.8,0.7,3.6,2,4.9c1.3,1.3,3.1,2.1,4.9,2.1s3.6-0.7,4.9-2.1
	c1.3-1.3,2-3.1,2-4.9c0-1.8-0.7-3.6-2-4.9C407.8,276.1,406,275.4,404.2,275.4z"/>
<path d="M179,386.8c-1.8,0-3.6,0.7-4.9,2c-1.3,1.3-2,3.1-2,4.9c0,1.8,0.7,3.6,2,4.9c1.3,1.3,3.1,2,4.9,2c1.8,0,3.6-0.7,4.9-2
	c1.3-1.3,2-3.1,2-4.9c0-1.8-0.7-3.6-2-4.9C182.7,387.6,180.9,386.8,179,386.8z"/>
<path d="M434.9,369.2c0-7.7-3.3-14.7-8.6-19.6c5.3-4.9,8.6-11.8,8.6-19.6c0-14.6-11.9-26.6-26.6-26.6h-75.5
	c-14.6,0-26.6,11.9-26.6,26.6c0,7.7,3.3,14.7,8.6,19.6c-5.3,4.9-8.6,11.8-8.6,19.6s3.3,14.7,8.6,19.6c-5.3,4.9-8.6,11.8-8.6,19.6
	c0,4.5,1.2,8.8,3.2,12.6H281v-27.3c0-37-28.4-67.4-64.6-70.7c-1-0.3-2-0.4-3-0.2c-0.1,0-0.2,0-0.4,0c9.1-8.9,14.7-21.2,14.7-34.9
	v-69.6c0-3.9-3.1-7-7-7h-51.8c-21.4,0-38.8,17.4-38.8,38.8v37.8c0,13.7,5.6,26,14.7,34.9c-0.1,0-0.2,0-0.4,0c-1-0.1-2-0.1-3,0.2
	c-36.1,3.2-64.6,33.7-64.6,70.7v34.3c0,3.9,3.1,7,7,7h107.6h82.4h58.8h71.3h4.2c14.6,0,26.6-11.9,26.6-26.6c0-7.7-3.3-14.7-8.6-19.6
	C431.6,383.9,434.9,376.9,434.9,369.2z M320.3,330c0-6.9,5.6-12.6,12.6-12.6h75.5c6.9,0,12.6,5.6,12.6,12.6s-5.6,12.6-12.6,12.6
	h-75.5C326,342.6,320.3,337,320.3,330z M197.6,336.6L179,355.2l-18.6-18.6H197.6z M144.2,250c0-13.7,11.1-24.8,24.8-24.8h44.8v18.7
	c0,9.5-7.7,17.1-17.1,17.1h-52.5v-1.2V250z M144.2,287.8V275h52.5c6.3,0,12.2-1.9,17.1-5.2v18c0,19.2-15.6,34.8-34.8,34.8
	S144.2,307,144.2,287.8z M191.7,420.9H91v-20.1h57c3.9,0,7-3.1,7-7c0-3.9-3.1-7-7-7H91.5c3.1-26,23.7-46.6,49.7-49.8l33,33
	c1.4,1.4,3.2,2,4.9,2s3.6-0.7,4.9-2l33-33c28.2,3.4,50.1,27.5,50.1,56.5v27.3L191.7,420.9L191.7,420.9z M421,408.3
	c0,6.9-5.6,12.6-12.6,12.6h-4.2h-71.3c-6.9,0-12.6-5.6-12.6-12.6c0-6.9,5.6-12.6,12.6-12.6h75.5C415.3,395.7,421,401.4,421,408.3z
	 M332.9,381.8c-6.9,0-12.6-5.6-12.6-12.6s5.6-12.6,12.6-12.6h75.5c6.9,0,12.6,5.6,12.6,12.6s-5.6,12.6-12.6,12.6H332.9z"/>
<path d="M338.5,219.3c5.6,0,10.1,3.8,10.1,8.6c0,3.9,3.1,7,7,7c3.9,0,7-3.1,7-7c0-10.2-7.2-18.8-17.1-21.6v-1c0-3.9-3.1-7-7-7
	c-3.9,0-7,3.1-7,7v1c-9.9,2.8-17.1,11.4-17.1,21.6c0,12.4,10.8,22.5,24.1,22.5c5.6,0,10.1,3.8,10.1,8.6c0,4.7-4.6,8.6-10.1,8.6
	c-5.6,0-10.1-3.8-10.1-8.6c0-3.9-3.1-7-7-7c-3.9,0-7,3.1-7,7c0,10.2,7.2,18.8,17.1,21.6v0.4c0,3.9,3.1,7,7,7c3.9,0,7-3.1,7-7v-0.4
	c9.9-2.8,17.1-11.4,17.1-21.6c0-12.4-10.8-22.5-24.1-22.5c-5.6,0-10.1-3.8-10.1-8.6S332.9,219.3,338.5,219.3z"/>
</svg>
