<?xml version="1.0" encoding="utf-8"?>
<!-- Generator: Adobe Illustrator 24.3.0, SVG Export Plug-In . SVG Version: 6.00 Build 0)  -->
<svg version="1.1" id="Capa_1" xmlns="http://www.w3.org/2000/svg" xmlns:xlink="http://www.w3.org/1999/xlink" x="0px" y="0px"
	 viewBox="0 0 512 512" style="enable-background:new 0 0 512 512;" xml:space="preserve">
<style type="text/css">
	.st0{fill:#D2E4FF;}
	.st1{fill:#B6D7FF;}
	.st2{fill:#09E5D0;}
	.st3{fill:#05ABAF;}
	.st4{fill:#0782AD;}
	.st5{fill:#2EB7CE;}
</style>
<g>
	<g>
		<path class="st0" d="M72,445.1H440c6.5,0,11.8-5.3,11.8-11.8V165.4c0-6.5-5.3-11.8-11.8-11.8H72c-6.5,0-11.8,5.3-11.8,11.8v267.9
			C60.2,439.8,65.5,445.1,72,445.1z"/>
		<path class="st1" d="M451.8,165.4v267.9c0,6.5-5.3,11.8-11.8,11.8h-23.6c6.5,0,11.8-5.3,11.8-11.8V165.4c0-6.5-5.3-11.8-11.8-11.8
			H440C446.5,153.6,451.8,158.9,451.8,165.4z"/>
		<path class="st2" d="M256,118.1c-14.1,0-25.6-11.5-25.6-25.6s11.5-25.6,25.6-25.6c14.1,0,25.6,11.5,25.6,25.6
			S270.1,118.1,256,118.1z"/>
		<path class="st3" d="M281.6,92.5c0,7.1-2.9,13.5-7.5,18.1c-4.6,4.6-11,7.5-18.1,7.5c-4.3,0-8.3-1-11.8-2.9
			c2.3-1.2,4.4-2.8,6.3-4.6c4.6-4.6,7.5-11,7.5-18.1c0-7.1-2.9-13.5-7.5-18.1c-1.8-1.8-4-3.4-6.3-4.6c3.5-1.8,7.6-2.9,11.8-2.9
			c7.1,0,13.5,2.9,18.1,7.5C278.7,79,281.6,85.4,281.6,92.5z"/>
		<path class="st4" d="M416.3,244.2h-55.2V189h51.2c2.2,0,3.9,1.8,3.9,3.9V244.2z"/>
		<path class="st0" d="M306,189h55.2v55.2H306V189z"/>
		<path class="st2" d="M250.9,189H306v55.2h-55.2V189z"/>
		<path class="st0" d="M250.9,244.2h-55.2V193c0-2.2,1.8-3.9,3.9-3.9h51.2V244.2z"/>
		<path class="st5" d="M361.2,244.2h55.2v55.2h-55.2V244.2z"/>
		<path class="st2" d="M306,244.2h55.2v55.2H306V244.2z"/>
		<path class="st0" d="M250.9,244.2H306v55.2h-55.2V244.2z"/>
		<path class="st2" d="M195.7,244.2h55.2v55.2h-55.2V244.2z"/>
		<path class="st4" d="M361.2,299.3h55.2v55.2h-55.2V299.3z"/>
		<path class="st0" d="M306,299.3h55.2v55.2H306V299.3z"/>
		<path class="st2" d="M250.9,299.3H306v55.2h-55.2V299.3z"/>
		<path class="st0" d="M195.7,299.3h55.2v55.2h-55.2V299.3z"/>
		<path class="st5" d="M412.4,409.6h-51.2v-55.2h55.2v51.2C416.3,407.9,414.6,409.6,412.4,409.6z"/>
		<path class="st2" d="M306,354.5h55.2v55.2H306V354.5z"/>
		<path class="st0" d="M250.9,354.5H306v55.2h-55.2V354.5z"/>
		<path class="st2" d="M250.9,409.6h-51.2c-2.2,0-3.9-1.8-3.9-3.9v-51.2h55.2V409.6z"/>
	</g>
	<g>
		<path d="M389,439.2H72c-3.3,0-5.9-2.7-5.9-5.9V204.8c0-3.3-2.6-5.9-5.9-5.9s-5.9,2.6-5.9,5.9v228.5c0,9.8,8,17.7,17.7,17.7H389
			c3.3,0,5.9-2.6,5.9-5.9S392.2,439.2,389,439.2z"/>
		<path d="M440,147.7h-57.6l-96-46.9c0.7-2.6,1.1-5.4,1.1-8.3c0-17.4-14.1-31.5-31.5-31.5s-31.5,14.1-31.5,31.5
			c0,2.9,0.4,5.6,1.1,8.3l-96,46.9H72c-9.8,0-17.7,8-17.7,17.7v11.8c0,3.3,2.6,5.9,5.9,5.9c3.3,0,5.9-2.6,5.9-5.9v-11.8
			c0-3.3,2.7-5.9,5.9-5.9H440c3.3,0,5.9,2.7,5.9,5.9v267.9c0,3.3-2.7,5.9-5.9,5.9h-23.4c-3.3,0-5.9,2.6-5.9,5.9s2.6,5.9,5.9,5.9H440
			c9.8,0,17.7-8,17.7-17.7V165.4C457.7,155.6,449.7,147.7,440,147.7z M256,72.8c10.9,0,19.7,8.8,19.7,19.7s-8.8,19.7-19.7,19.7
			c-10.9,0-19.7-8.8-19.7-19.7S245.1,72.8,256,72.8z M230.8,111.4c5.8,7.7,14.9,12.6,25.2,12.6c10.3,0,19.5-5,25.2-12.6l74.2,36.3
			H156.6L230.8,111.4z"/>
		<path d="M412.4,415.5c5.4,0,9.8-4.4,9.8-9.8V193c0-5.4-4.4-9.8-9.8-9.8H199.7c-5.4,0-9.8,4.4-9.8,9.8v212.7c0,5.4,4.4,9.8,9.8,9.8
			H412.4z M256.8,305.2h43.3v43.3h-43.3V305.2z M245,348.6h-43.3v-43.3H245V348.6z M300.1,360.4v43.3h-43.3v-43.3H300.1z
			 M311.9,360.4h43.3v43.3h-43.3V360.4z M311.9,348.6v-43.3h43.3v43.3H311.9z M367.1,305.2h43.3v43.3h-43.3V305.2z M410.4,293.4
			h-43.3v-43.3h43.3V293.4z M355.3,293.4h-43.3v-43.3h43.3V293.4z M311.9,238.3v-43.3h43.3v43.3H311.9z M300.1,238.3h-43.3v-43.3
			h43.3V238.3z M300.1,250.1v43.3h-43.3v-43.3H300.1z M245,293.4h-43.3v-43.3H245V293.4z M201.6,360.4H245v43.3h-43.3V360.4z
			 M367.1,403.7v-43.3h43.3v43.3H367.1z M410.4,238.3h-43.3v-43.3h43.3V238.3z M245,194.9v43.3h-43.3v-43.3H245z"/>
		<path d="M95.7,399.8h44.1c3.3,0,5.9-2.6,5.9-5.9s-2.6-5.9-5.9-5.9H95.7c-3.3,0-5.9,2.6-5.9,5.9S92.4,399.8,95.7,399.8z"/>
		<path d="M95.7,376.2h64.6c3.3,0,5.9-2.6,5.9-5.9s-2.6-5.9-5.9-5.9H95.7c-3.3,0-5.9,2.6-5.9,5.9S92.4,376.2,95.7,376.2z"/>
		<path d="M95.7,344.6h44.1c3.3,0,5.9-2.6,5.9-5.9s-2.6-5.9-5.9-5.9H95.7c-3.3,0-5.9,2.6-5.9,5.9S92.4,344.6,95.7,344.6z"/>
		<path d="M95.7,321h64.6c3.3,0,5.9-2.6,5.9-5.9s-2.6-5.9-5.9-5.9H95.7c-3.3,0-5.9,2.6-5.9,5.9S92.4,321,95.7,321z"/>
		<path d="M95.7,289.5h44.1c3.3,0,5.9-2.6,5.9-5.9c0-3.3-2.6-5.9-5.9-5.9H95.7c-3.3,0-5.9,2.6-5.9,5.9
			C89.8,286.8,92.4,289.5,95.7,289.5z"/>
		<path d="M95.7,265.8h64.6c3.3,0,5.9-2.6,5.9-5.9s-2.6-5.9-5.9-5.9H95.7c-3.3,0-5.9,2.6-5.9,5.9S92.4,265.8,95.7,265.8z"/>
		<path d="M95.7,234.3h44.1c3.3,0,5.9-2.6,5.9-5.9s-2.6-5.9-5.9-5.9H95.7c-3.3,0-5.9,2.6-5.9,5.9S92.4,234.3,95.7,234.3z"/>
		<path d="M95.7,210.7h64.6c3.3,0,5.9-2.6,5.9-5.9c0-3.3-2.6-5.9-5.9-5.9H95.7c-3.3,0-5.9,2.6-5.9,5.9
			C89.8,208.1,92.4,210.7,95.7,210.7z"/>
	</g>
</g>
</svg>
