<?xml version="1.0" encoding="utf-8"?>
<!-- Generator: Adobe Illustrator 24.3.0, SVG Export Plug-In . SVG Version: 6.00 Build 0)  -->
<svg version="1.1" id="Capa_1" xmlns="http://www.w3.org/2000/svg" xmlns:xlink="http://www.w3.org/1999/xlink" x="0px" y="0px"
	 viewBox="0 0 512 512" style="enable-background:new 0 0 512 512;" xml:space="preserve">
<style type="text/css">
	.st0{fill:#7398D4;}
	.st1{fill:#5A86CC;}
	.st2{fill:#09E5D0;}
	.st3{fill:#05ABAF;}
	.st4{fill:#B6D7FF;}
	.st5{fill:#94CAFF;}
	.st6{fill:#FF8B59;}
	.st7{fill:#FF794A;}
</style>
<g>
	<g>
		<path class="st0" d="M62.8,348.5c0-2.6,1.1-5,3-6.8c32.3-30.6,90.7-31.7,124.7-1.6c18,16,43.3,25.2,67.9,25.2
			c18,0,35.6-4.9,49.9-15.6l18.7-14c34.8-26,88.6-23.2,119.2,5.4c1.9,1.7,2.9,4.2,2.9,6.7v53.4H62.8V348.5z"/>
		<path class="st1" d="M449.2,373.9v15.5c0-2.5-1-5-2.9-6.7c-30.6-28.6-84.5-31.4-119.2-5.4l-18.7,14c-14.3,10.7-32,15.6-49.9,15.6
			c-24.6,0-49.9-9.2-67.9-25.2c-34-30.2-92.3-29-124.7,1.6c-1.9,1.8-3,4.2-3,6.8v-15.5c0-2.6,1.1-5,3-6.8
			c32.3-30.6,90.7-31.7,124.7-1.6c18,16,43.3,25.2,67.9,25.2c18,0,35.6-4.9,49.9-15.6l18.7-14c34.8-26,88.6-23.2,119.2,5.4
			C448.2,368.9,449.2,371.4,449.2,373.9z"/>
		<path class="st2" d="M62.8,423c0,2,2.4,3.1,3.9,1.7C83.2,409.6,106.1,402,129,402c22.4,0,44.8,7.3,61.4,22
			c31.2,27.6,83.9,34.9,117.8,9.6l18.7-14c34.4-25.7,87.4-23.3,118.2,4.5c1.5,1.4,3.9,0.3,3.9-1.7v-36.5c-30-31.2-86.2-35-122.1-8.2
			l-6.9,5.1c-2.2,1.6-5.3,0.6-6-2c-2.6-8.7-8-11.9-8-25.5c0-17.9,9.3-17.9,9.3-35.8c0-17.9-9.3-17.9-9.3-35.8
			c0-17.9,9.3-17.9,9.3-35.8H206.6c0,17.9-9.3,17.9-9.3,35.8c0,17.9,9.3,17.9,9.3,35.8c0,17.9-9.3,17.9-9.3,35.8
			c0,14.6,6.3,18.9,8.5,29.7c0.7,3.4-3,6-5.9,4.1c-3.3-2.2-7.1-4.8-9.4-6.9c-35.1-31.1-96-28.9-127.6,4.6L62.8,423z"/>
		<path class="st3" d="M449.2,408.5v13.8c0,2-2.4,3.1-3.9,1.7c-30.8-27.7-83.8-30.1-118.2-4.5l-18.7,14c-34,25.4-86.7,18-117.8-9.6
			c-16.6-14.7-39.1-22-61.4-22c-22.9,0-45.8,7.6-62.3,22.7c-1.5,1.4-3.9,0.3-3.9-1.7v-13.8c16.8-15.1,40.2-22.7,63.6-22.7
			c22.8,0,45.7,7.3,62.7,22c31.8,27.6,85.6,34.9,120.3,9.6l19.1-14C363.6,378.4,417.8,380.8,449.2,408.5z"/>
		<path class="st4" d="M310.8,247.9H202v-51.3c0-4.3-3.5-7.8-7.8-7.8l-81.6,0l-24.9,0V80h24.9H202c60.1,0,108.8,48.7,108.8,108.8
			V247.9z"/>
		<path class="st5" d="M202,247.9v-51.3c0-4.3-3.5-7.8-7.8-7.8H87.7l15.5-15.5h90.9c12.9,0,23.3,10.4,23.3,23.3v35.8L202,247.9z"/>
		<path class="st4" d="M97,62.9H78.4c-8.6,0-15.5,7-15.5,15.5v111.9c0,8.6,7,15.5,15.5,15.5H97c8.6,0,15.5-7,15.5-15.5V78.4
			C112.6,69.8,105.6,62.9,97,62.9z"/>
		<path class="st5" d="M93.9,205.9H78.4c-8.6,0-15.5-7-15.5-15.5V78.4c0-8.6,7-15.5,15.5-15.5h15.5c-8.6,0-15.5,7-15.5,15.5v111.9
			C78.4,198.9,85.3,205.9,93.9,205.9z"/>
		<path class="st3" d="M306.4,288.7c-0.2-1.5-0.3-3.2-0.3-5.1c0-17.9,9.3-17.9,9.3-35.8H206.6c0,17.9-9.3,17.9-9.3,35.8
			c0,1.7,0.1,3.3,0.3,5h0c1.5,13.1,9.1,14.8,9.1,30.8c0,17.9-9.3,17.9-9.3,35.8c0,14.6,6.3,18.9,8.5,29.7c0.3,1.5-0.2,2.9-1.2,3.7
			c0.5,0.4,0.9,0.8,1.4,1.2c2.3,2.1,6.1,4.7,9.4,6.9c2.9,1.9,6.7-0.7,5.9-4.1c-2.3-10.9-8.5-15.1-8.5-29.7c0-17.9,9.3-17.9,9.3-35.8
			c0-17.9-9.3-17.9-9.3-35.7c0,0,0,0,0,0c0-1.5,1.2-2.7,2.7-2.7H306.4z"/>
		<path class="st4" d="M327.5,258.3v-18.7c0-8.6-7-15.5-15.5-15.5H200c-8.6,0-15.5,7-15.5,15.5v18.7c0,8.6,7,15.5,15.5,15.5H312
			C320.6,273.9,327.5,266.9,327.5,258.3z"/>
		<path class="st5" d="M215.6,273.9H200c-8.6,0-15.5-7-15.5-15.5v-18.7c0-8.6,7-15.5,15.5-15.5h15.5c-8.6,0-15.5,7-15.5,15.5v18.7
			C200,266.9,207,273.9,215.6,273.9z"/>
		<path class="st6" d="M192.6,111h-52.9c-2.1,0-3.9-1.7-3.9-3.9V80h60.6v27.2C196.5,109.3,194.8,111,192.6,111z"/>
		<path class="st7" d="M196.5,91.6v15.5c0,2.1-1.7,3.9-3.9,3.9h-52.9c-2.1,0-3.9-1.7-3.9-3.9V91.6c0,2.1,1.7,3.9,3.9,3.9h52.9
			C194.8,95.5,196.5,93.8,196.5,91.6z"/>
	</g>
	<g>
		<path d="M371.2,396.6c-17.8,2-34.2,8.4-47.6,18.3l-18.7,14c-29.9,22.3-79.5,18.2-110.5-9.3c-17.1-15.1-40.3-23.5-65.3-23.5
			c-27.7,0-53.4,10.3-70.4,28.4c-2.2,2.3-2.1,6,0.2,8.2c2.3,2.2,6,2.1,8.2-0.2c14.8-15.7,37.4-24.7,62-24.7
			c22.2,0,42.6,7.3,57.6,20.5c16.2,14.3,38.5,23.9,61.2,26.1c3.6,0.4,7.1,0.5,10.6,0.5c20.1,0,38.8-5.8,53.4-16.7l18.7-14
			c11.7-8.7,26.2-14.3,41.9-16.1c3.2-0.4,5.5-3.3,5.1-6.5C377.3,398.5,374.4,396.2,371.2,396.6L371.2,396.6z"/>
		<path d="M399.9,397.1c-3.2-0.5-6.2,1.7-6.7,4.9c-0.5,3.2,1.7,6.2,4.9,6.7c18.6,2.9,35.2,11.1,46.8,23.2c2.2,2.3,5.9,2.4,8.2,0.2
			c2.3-2.2,2.4-5.9,0.2-8.2C440,409.9,421,400.4,399.9,397.1L399.9,397.1z"/>
		<path d="M323.6,372.9l-4.8,3.5c-0.9-2.3-1.9-4.3-2.9-6.1c-2.3-4.2-4.3-8.8-4-16.1l18.6-13.8c33.8-25.2,86.2-21.8,114.4,7.6
			c2.2,2.3,5.9,2.4,8.2,0.2c2.3-2.2,2.4-5.9,0.2-8.2c-32.1-33.4-91.5-37.4-129.8-8.9l-5.1,3.8c1.6-3.8,2.8-8.5,2.8-15.4
			c0-10.4-2.8-15.8-5.3-20.6c-2.2-4.3-4-7.7-4-15.2c0-1.7,0.1-3.2,0.3-4.7c11.7-0.2,21.1-9.7,21.1-21.4v-18.7
			c0-10.2-7.2-18.7-16.7-20.9c0,0,0-30.6,0-31.3c-0.1-3.2-2.7-5.8-5.9-5.7c-3.2,0.1-5.8,2.7-5.7,5.9c0,0.6,0,30.6,0,30.6h-97.2v-21
			c0-7.5-6.1-13.6-13.6-13.6l-75.8,0v-53.6c0-3.2-2.6-5.8-5.8-5.8s-5.8,2.6-5.8,5.8v61c0,5.4-4.4,9.7-9.7,9.7H78.4
			c-5.4,0-9.7-4.4-9.7-9.7V78.4c0-5.4,4.4-9.7,9.7-9.7H97c5.4,0,9.7,4.4,9.7,9.7v23.7c0,3.2,2.6,5.8,5.8,5.8s5.8-2.6,5.8-5.8V85.8
			h11.7v21.4c0,5.4,4.4,9.7,9.7,9.7h52.9c5.4,0,9.7-4.4,9.7-9.7V85.8c46,0.2,86.6,31.1,98.9,75.4c0.9,3.1,4.2,4.9,7.2,4.1
			c3.1-0.9,4.9-4.1,4.1-7.2c-13.7-49.4-59.1-83.9-110.5-83.9h-84C116,64.4,107.4,57,97,57H78.4C66.6,57,57,66.6,57,78.4v111.9
			c0,11.8,9.6,21.4,21.4,21.4H97c10.3,0,19-7.4,20.9-17.1l76.2,0c1.1,0,1.9,0.9,1.9,1.9v21.3c-9.9,1.8-17.5,10.6-17.5,21v18.7
			c0,8.9,5.5,16.5,13.2,19.8c-0.3,2-0.4,4.1-0.4,6.3c0,10.4,2.8,15.8,5.3,20.6c2.2,4.3,4,7.7,4,15.2c0,8.8-2.3,11.7-5.2,17.5
			c-0.4-0.4-0.9-0.8-1.3-1.1c-37.3-33.1-102-30.8-135.7,4.9c-2.2,2.3-2.1,6,0.2,8.2c2.3,2.2,6,2.1,8.2-0.2
			c29.6-31.4,86.6-33.4,119.5-4.2c1.7,1.5,3.5,3,5.3,4.4c-0.3,1.9-0.4,4-0.4,6.3c0,10.2,2.8,16.2,5.2,21.5c0.7,1.4,1.3,2.9,1.9,4.3
			c-1.8-1.3-3.3-2.4-4.3-3.3c-37.3-33.1-102-30.8-135.7,4.9c-2.2,2.3-2.1,6,0.2,8.2c2.3,2.2,6,2.1,8.2-0.2
			c29.6-31.4,86.6-33.4,119.5-4.2c2.2,1.9,5.5,4.4,10.1,7.4c6.9,4.9,16.9-1.9,14.9-10.1c-1-4.9-2.7-8.6-4.3-11.9
			c-2.2-4.8-4.1-8.9-4.1-16.6c0-7.5,1.8-10.9,4-15.2c2.5-4.8,5.3-10.2,5.3-20.6c0-10.4-2.8-15.8-5.3-20.6c-2.2-4.3-4-7.7-4-15.2
			c0-1.7,0.1-3.2,0.3-4.7h22.3c3.2,0,5.8-2.6,5.8-5.8s-2.6-5.8-5.8-5.8c0,0-26.6-0.1-27.1-0.1c-4.7-0.7-8.3-4.7-8.3-9.6v-18.7
			c0-5.4,4.4-9.7,9.7-9.7H312c5.4,0,9.7,4.4,9.7,9.7v18.7c0,5.4-4.4,9.7-9.7,9.7h-59.1c-3.2,0-5.8,2.6-5.8,5.8s2.6,5.8,5.8,5.8h47.6
			c-0.1,1.5-0.2,3-0.2,4.7c0,10.4,2.8,15.8,5.3,20.6c2.2,4.3,4,7.7,4,15.2c0,7.5-1.8,10.9-4,15.2c-2.7,4.4-5.7,13.1-5.3,20.6
			c0,10.4,2.8,15.8,5.3,20.6c1.2,2.2,2.2,4.2,2.9,6.6c5.1,11.9,14.9,6.1,22,0c33.8-25.2,86.2-21.8,114.4,7.6
			c2.2,2.3,5.9,2.4,8.2,0.2c2.3-2.2,2.4-5.9,0.2-8.2C421.3,348.4,361.9,344.4,323.6,372.9L323.6,372.9z M141.7,105.2V85.8h49v19.4
			H141.7z"/>
	</g>
</g>
</svg>
