<?xml version="1.0" encoding="utf-8"?>
<!-- Generator: Adobe Illustrator 24.3.0, SVG Export Plug-In . SVG Version: 6.00 Build 0)  -->
<svg version="1.1" id="Capa_1" xmlns="http://www.w3.org/2000/svg" xmlns:xlink="http://www.w3.org/1999/xlink" x="0px" y="0px"
	 viewBox="0 0 512 512" style="enable-background:new 0 0 512 512;" xml:space="preserve">
<style type="text/css">
	.st0{fill:#D2E4FF;}
	.st1{fill:#05ABAF;}
	.st2{fill:#0094A3;}
	.st3{fill:#B6D7FF;}
	.st4{fill:#09E5D0;}
</style>
<g>
	<path class="st0" d="M417.6,464.2H94.4c-9.8,0-17.7-7.9-17.7-17.7V119.3c0-9.8,7.9-17.7,17.7-17.7h323.3c9.8,0,17.7,7.9,17.7,17.7
		v327.2C435.3,456.3,427.4,464.2,417.6,464.2z"/>
	<g>
		<path class="st1" d="M256,137.7c-9.9,0-18-8-18-18V65.7c0-9.9,8-18,18-18c9.9,0,18,8,18,18v53.9C274,129.6,265.9,137.7,256,137.7
			L256,137.7z"/>
		<path class="st1" d="M153.5,137.7c-9.9,0-18-8-18-18V65.7c0-9.9,8-18,18-18s18,8,18,18v53.9C171.5,129.6,163.4,137.7,153.5,137.7z
			"/>
		<path class="st1" d="M358.5,137.7c-9.9,0-18-8-18-18V65.7c0-9.9,8-18,18-18c9.9,0,18,8,18,18v53.9
			C376.5,129.6,368.4,137.7,358.5,137.7z"/>
	</g>
	<path class="st2" d="M371.3,225H224.1c-8.2,0-14.9-6.7-14.9-14.9c0-8.2,6.7-14.9,14.9-14.9h147.2c8.2,0,14.9,6.7,14.9,14.9
		C386.2,218.3,379.5,225,371.3,225z"/>
	<path class="st2" d="M371.3,317.4H224.1c-8.2,0-14.9-6.7-14.9-14.9s6.7-14.9,14.9-14.9h147.2c8.2,0,14.9,6.7,14.9,14.9
		S379.5,317.4,371.3,317.4z"/>
	<path class="st2" d="M371.3,409.8H224.1c-8.2,0-14.9-6.7-14.9-14.9c0-8.2,6.7-14.9,14.9-14.9h147.2c8.2,0,14.9,6.7,14.9,14.9
		C386.2,403.1,379.5,409.8,371.3,409.8z"/>
	<path class="st3" d="M417.6,101.6h-35.9c9.8,0,17.7,7.9,17.7,17.7v327.2c0,9.8-7.9,17.7-17.7,17.7h35.9c9.8,0,17.7-7.9,17.7-17.7
		V119.3C435.3,109.5,427.4,101.6,417.6,101.6L417.6,101.6z"/>
	<path class="st2" d="M358.5,47.8c-3.8,0-7.3,1.2-10.3,3.2c4.7,3.2,7.7,8.6,7.7,14.8v53.9c0,6.1-3.1,11.5-7.7,14.8
		c2.9,2,6.4,3.2,10.3,3.2c9.9,0,18-8,18-18V65.7C376.5,55.8,368.4,47.8,358.5,47.8z"/>
	<path class="st4" d="M150.9,226.2l43.6-52.4c2.5-3,2.1-7.4-0.9-9.8c-3-2.5-7.4-2.1-9.8,0.9l-37.3,44.9l-8.2-13.3
		c-2-3.3-6.3-4.3-9.6-2.3c-3.3,2-4.3,6.3-2.3,9.6l13.3,21.5C142.1,229.4,147.9,229.8,150.9,226.2z"/>
	<path class="st4" d="M126.3,296l13.3,21.5c2.5,4.1,8.3,4.5,11.3,0.8l43.6-52.4c2.5-3,2.1-7.4-0.9-9.8c-3-2.5-7.4-2.1-9.8,0.9
		L146.4,302l-8.2-13.3c-2-3.3-6.3-4.3-9.6-2.3C125.3,288.5,124.3,292.8,126.3,296z"/>
	<path class="st4" d="M126.3,388.9l13.3,21.5c2.5,4.1,8.3,4.5,11.3,0.8l43.6-52.4c2.5-3,2.1-7.4-0.9-9.8c-3-2.5-7.4-2.1-9.8,0.9
		l-37.3,44.9l-8.2-13.3c-2-3.3-6.3-4.3-9.6-2.3C125.3,381.3,124.3,385.6,126.3,388.9z"/>
	<path d="M435.3,388.7c-3.9,0-7,3.1-7,7v50.9c0,5.9-4.8,10.7-10.7,10.7H94.4c-5.9,0-10.7-4.8-10.7-10.7V186.9c0-3.9-3.1-7-7-7
		s-7,3.1-7,7v259.7c0,13.6,11.1,24.7,24.7,24.7h323.3c13.6,0,24.7-11.1,24.7-24.7v-50.9C442.3,391.8,439.2,388.7,435.3,388.7z"/>
	<path d="M417.6,94.6h-34.2V65.7c0-13.8-11.2-25-25-25c-13.8,0-25,11.2-25,25v28.9H281V65.7c0-13.8-11.2-25-25-25
		c-13.8,0-25,11.2-25,25v28.9h-52.6V65.7c0-13.8-11.2-25-25-25c-13.8,0-25,11.2-25,25v28.9H94.4c-13.6,0-24.7,11.1-24.7,24.7v35
		c0,3.9,3.1,7,7,7s7-3.1,7-7v-35c0-5.9,4.8-10.7,10.7-10.7h34.2v11.1c0,13.8,11.2,25,25,25c13.8,0,25-11.2,25-25v-11.1H231v11.1
		c0,13.8,11.2,25,25,25c13.8,0,25-11.2,25-25v-11.1h52.6v11.1c0,13.8,11.2,25,25,25c13.8,0,25-11.2,25-25v-11.1h34.2
		c5.9,0,10.7,4.8,10.7,10.7v243.8c0,3.9,3.1,7,7,7c3.9,0,7-3.1,7-7V119.3C442.3,105.7,431.2,94.6,417.6,94.6L417.6,94.6z
		 M164.5,119.7c0,6.1-4.9,11-11,11c-6.1,0-11-4.9-11-11c0-14.9,0-49.3,0-53.9c0-6.1,4.9-11,11-11c6.1,0,11,4.9,11,11V119.7z
		 M267,119.7c0,6.1-4.9,11-11,11c-6.1,0-11-4.9-11-11c0-14.9,0-49.3,0-53.9c0-6.1,4.9-11,11-11c6.1,0,11,4.9,11,11V119.7z
		 M369.5,119.7c0,6.1-4.9,11-11,11c-6.1,0-11-4.9-11-11c0-14.9,0-49.3,0-53.9c0-6.1,4.9-11,11-11c6.1,0,11,4.9,11,11V119.7z"/>
	<path d="M224.1,231.9h147.2c12.1,0,21.9-9.8,21.9-21.9c0-12.1-9.8-21.9-21.9-21.9H224.1c-12.1,0-21.9,9.8-21.9,21.9
		C202.2,222.1,212,231.9,224.1,231.9L224.1,231.9z M224.1,202.1h147.2c4.4,0,7.9,3.6,7.9,7.9s-3.6,7.9-7.9,7.9H224.1
		c-4.4,0-7.9-3.6-7.9-7.9S219.7,202.1,224.1,202.1L224.1,202.1z"/>
	<path d="M224.1,324.4h147.2c12.1,0,21.9-9.8,21.9-21.9c0-12.1-9.8-21.9-21.9-21.9H224.1c-12.1,0-21.9,9.8-21.9,21.9
		C202.2,314.5,212,324.4,224.1,324.4L224.1,324.4z M224.1,294.6h147.2c4.4,0,7.9,3.6,7.9,7.9c0,4.4-3.6,7.9-7.9,7.9H224.1
		c-4.4,0-7.9-3.6-7.9-7.9C216.2,298.1,219.7,294.6,224.1,294.6L224.1,294.6z"/>
	<path d="M224.1,416.8h147.2c12.1,0,21.9-9.8,21.9-21.9c0-12.1-9.8-21.9-21.9-21.9H224.1c-12.1,0-21.9,9.8-21.9,21.9
		C202.2,407,212,416.8,224.1,416.8L224.1,416.8z M224.1,387h147.2c4.4,0,7.9,3.6,7.9,7.9c0,4.4-3.6,7.9-7.9,7.9H224.1
		c-4.4,0-7.9-3.6-7.9-7.9C216.2,390.5,219.7,387,224.1,387L224.1,387z"/>
</g>
</svg>
