<?xml version="1.0" encoding="utf-8"?>
<!-- Generator: Adobe Illustrator 24.3.0, SVG Export Plug-In . SVG Version: 6.00 Build 0)  -->
<svg version="1.1" id="Layer_1" xmlns="http://www.w3.org/2000/svg" xmlns:xlink="http://www.w3.org/1999/xlink" x="0px" y="0px"
	 viewBox="0 0 511 512" style="enable-background:new 0 0 511 512;" xml:space="preserve">
<style type="text/css">
	.st0{fill:#09E5D0;}
	.st1{fill:#FF8B59;}
	.st2{fill:#B6D7FF;}
</style>
<path class="st0" d="M426.9,366.3c14.4,14.4,14.4,37.7,0,52.1c-14.4,14.4-37.7,14.4-52.1,0l-98.5-107l43.4-43.4L426.9,366.3z"/>
<path class="st1" d="M298,248.1l21.7,19.9l-43.4,43.4l-19.9-21.6L298,248.1z"/>
<path class="st2" d="M434.2,112l-32.7,32.9h-20.8l-20.3-21.1V103l32.2-32.7c-6.6-2.2-13.8-3.5-21.2-3.5c-45.4,0-77.2,44.6-62.8,87.4
	L246,216.9l0-0.1l-97.7-97.9V98.1L96.2,66.8L75.4,87.7l31.2,52.1l20.8,0l97.7,97.9l0,0L162.8,300c-42.7-14.4-87.4,17.4-87.4,62.8
	c0,7.4,1.2,14.5,3.5,21.2l32.7-32.9h20.8l21.1,21.1V393l-32.9,32.7c6.6,2.2,13.8,3.5,21.2,3.5c45.5,0,77.2-44.7,62.8-87.4
	c30.2-30.2,115.7-115.7,145.8-145.8c6.7,2.2,13.8,3.5,21.2,3.5c36.6,0,66.3-29.7,66.3-66.3C437.6,125.7,436.4,118.6,434.2,112z"/>
<path d="M323.4,173.7c-4.1,0-7.4,3.3-7.4,7.4c0,4.1,3.3,7.4,7.4,7.4c4.1,0,7.4-3.3,7.4-7.4C330.8,177,327.5,173.7,323.4,173.7z"/>
<path d="M189.6,307.5c-4.1,0-7.4,3.3-7.4,7.4c0,4.1,3.3,7.4,7.4,7.4c4.1,0,7.4-3.3,7.4-7.4C197,310.8,193.7,307.5,189.6,307.5z"/>
<path d="M435.8,104.8c-2.5-0.6-5.1,0.2-6.9,2l-30.5,30.8h-14.6l-16.1-16.7V106l30.1-30.5c1.8-1.8,2.5-4.4,1.9-6.9
	c-0.6-2.5-2.4-4.5-4.8-5.3c-7.6-2.5-15.5-3.8-23.5-3.8c-24,0-45.8,11.2-59.8,30.7c-13.1,18.3-17.2,40.6-11.4,62L246,206.4
	l-90.4-90.6V98.1c0-2.6-1.4-5-3.6-6.3L100,60.5c-2.9-1.7-6.6-1.3-9,1.1L70.1,82.5c-2.4,2.4-2.8,6.1-1.1,9l31.2,52.1
	c1.3,2.2,3.7,3.6,6.3,3.6l17.8,0l90.4,90.6l-54,54c-21.4-5.8-43.8-1.7-62.1,11.4c-19.5,14-30.7,35.8-30.7,59.8c0,8,1.3,16,3.8,23.5
	c0.8,2.4,2.8,4.2,5.3,4.8c2.5,0.6,5.1-0.2,6.9-2l30.5-30.8h14.7l16.8,16.8v14.7l-30.8,30.5c-1.8,1.8-2.6,4.4-2,6.9
	c0.6,2.5,2.4,4.5,4.8,5.3c7.6,2.5,15.5,3.8,23.5,3.8c24,0,45.8-11.2,59.8-30.7c13.1-18.3,17.2-40.6,11.4-62.1l43.4-43.4l9.9,10.8
	l-4.6,4.6c-2.9,2.9-2.9,7.5,0,10.4c2.9,2.9,7.5,2.9,10.4,0l4.1-4.1l93.3,101.3c0.1,0.1,0.1,0.1,0.2,0.2c17.3,17.3,45.2,17.3,62.5,0
	c17.2-17.2,17.2-45.3,0-62.5c-0.1-0.1-0.2-0.1-0.2-0.2l-101.5-93.1l4.1-4.1c2.9-2.9,2.9-7.5,0-10.4c-2.9-2.9-7.5-2.9-10.4,0
	l-4.5,4.5l-10.8-9.9l43.6-43.6c6.2,1.7,12.6,2.5,19.1,2.5c40.6,0,73.6-33,73.6-73.6c0-8-1.3-16-3.8-23.5
	C440.3,107.2,438.3,105.4,435.8,104.8z M132.6,134.5c-1.4-1.4-3.3-2.1-5.2-2.1l-16.7,0L84.6,88.8l12.7-12.7l43.6,26.1v16.7
	c0,2,0.8,3.8,2.2,5.2l92.5,92.7l-10.4,10.4L132.6,134.5z M319.9,278.2l101.8,93.4c11.4,11.5,11.3,30.1-0.1,41.6
	c-11.5,11.5-30,11.5-41.6,0.1l-93.6-101.6L319.9,278.2z M309.1,268.2l-32.5,32.5l-9.9-10.8l31.7-31.7L309.1,268.2z M371.4,192
	c-6.4,0-12.8-1-18.8-3.1c-2.6-0.9-5.6-0.2-7.6,1.8c-36.9,36.9-116.5,116.5-145.8,145.8c-2,2-2.7,4.9-1.8,7.6
	c6.1,18.2,3.2,37.6-8,53.2c-11.2,15.6-28.6,24.5-47.8,24.5c-2.2,0-4.3-0.1-6.4-0.3l23.4-23.2c1.4-1.4,2.2-3.3,2.2-5.2v-20.8
	c0-2-0.8-3.8-2.2-5.2l-21.1-21.1c-1.4-1.4-3.3-2.2-5.2-2.2h-20.8c-2,0-3.8,0.8-5.2,2.2l-23.2,23.4c-0.2-2.1-0.3-4.3-0.3-6.4
	c0-19.2,8.9-36.6,24.5-47.8c15.6-11.2,35-14.2,53.2-8c2.6,0.9,5.6,0.2,7.6-1.8c0.4-0.4,145.7-145.7,145.8-145.8c2-2,2.7-4.9,1.8-7.6
	c-6.1-18.2-3.2-37.6,8-53.2c11.2-15.6,28.6-24.5,47.8-24.5c2.2,0,4.4,0.1,6.6,0.4l-22.9,23.2c-1.4,1.4-2.1,3.2-2.1,5.2v20.8
	c0,1.9,0.7,3.7,2.1,5.1l20.3,21.1c1.4,1.4,3.3,2.2,5.3,2.2h20.8c2,0,3.8-0.8,5.2-2.2l23.2-23.4c0.2,2.1,0.3,4.3,0.3,6.4
	C430.3,165.6,403.8,192,371.4,192z"/>
<path d="M297.4,196.7l-92.1,92.1c-2.9,2.9-2.9,7.5,0,10.4c2.9,2.9,7.5,2.9,10.4,0l92.1-92.1c2.9-2.9,2.9-7.5,0-10.4
	C304.9,193.8,300.2,193.8,297.4,196.7z"/>
<path d="M390.4,392.3c2.9,2.9,7.5,2.9,10.4,0c2.9-2.9,2.9-7.5,0-10.4l-66.4-66.2c-2.9-2.9-7.5-2.9-10.4,0c-2.9,2.9-2.9,7.5,0,10.4
	L390.4,392.3z"/>
</svg>
