<?xml version="1.0" encoding="utf-8"?>
<!-- Generator: Adobe Illustrator 24.3.0, SVG Export Plug-In . SVG Version: 6.00 Build 0)  -->
<svg version="1.1" id="Capa_1" xmlns="http://www.w3.org/2000/svg" xmlns:xlink="http://www.w3.org/1999/xlink" x="0px" y="0px"
	 viewBox="0 0 512 512" style="enable-background:new 0 0 512 512;" xml:space="preserve">
<style type="text/css">
	.st0{fill:#FFE477;}
	.st1{fill:#FF9811;}
	.st2{fill:#09E5D0;}
	.st3{fill:#05ABAF;}
	.st4{fill:#8AD8F6;}
	.st5{fill:#57A4FF;}
	.st6{fill:#FFFFFF;}
</style>
<g id="XMLID_3713_">
	<g id="XMLID_3543_">
		<path id="XMLID_3813_" class="st0" d="M413.7,210.4l15.5,31.4l34.7,5l-25.1,24.4l5.9,34.5l-31-16.3l-31,16.3l5.9-34.5l-25.1-24.4
			l34.7-5L413.7,210.4z"/>
		<path id="XMLID_3841_" class="st1" d="M463.9,246.8L431,242v2.6l14.8,2.2l-25.1,24.4l4.1,24.1l19.8,10.4l-5.9-34.5L463.9,246.8z"
			/>
		<path id="XMLID_3745_" class="st2" d="M40.5,63.6h148.5V124H40.5V63.6z"/>
		<path id="XMLID_3818_" class="st3" d="M171.1,63.6h18V124h-18V63.6z"/>
		<path id="XMLID_3739_" class="st4" d="M40.5,171.7h148.5v60.4H40.5V171.7z"/>
		<path id="XMLID_3815_" class="st5" d="M171.1,171.7h18v60.4h-18V171.7z"/>
		<path id="XMLID_3738_" class="st2" d="M40.5,279.8h148.5v60.4H40.5V279.8z"/>
		<path id="XMLID_3817_" class="st3" d="M171.1,279.8h18v60.4h-18V279.8z"/>
		<path id="XMLID_3736_" class="st4" d="M40.5,388h148.5v60.4H40.5V388z"/>
		<path id="XMLID_3816_" class="st5" d="M171.1,392.1h18v60.4h-18V392.1z"/>
	</g>
	<g id="XMLID_3545_">
		<g id="XMLID_3733_">
			<path id="XMLID_227_" class="st6" d="M81,87.2h13.5v13.2H81V87.2z"/>
			<path id="XMLID_226_" class="st6" d="M108,87.2h13.5v13.2H108V87.2z"/>
			<path id="XMLID_225_" class="st6" d="M135.1,87.2h13.5v13.2h-13.5V87.2z"/>
		</g>
		<g id="XMLID_201_">
			<path id="XMLID_229_" d="M330.8,138.1h-81.1V84h-54.1V57H33.9v73.6h161.8V97.3h40.8v98.1h-40.8v-30.2h-18c-3.7,0-6.6,3-6.6,6.6v0
				c0,3.7,3,6.6,6.6,6.6h4.8v47.2H47.1v-47.2H124c3.7,0,6.6-3,6.6-6.6v0c0-3.7-3-6.6-6.6-6.6h-90v73.6h161.8v-30.2h54.1v-57.2h67.9
				v202.9h-67.9v-55.6h-54.1v-25.3H33.9v73.6h22.6c3.7,0,6.6-3,6.6-6.6v0c0-3.7-3-6.6-6.6-6.6h-9.4v-47.2h135.3v47.2H83.1
				c-3.7,0-6.6,3-6.6,6.6v0c0,3.7,3,6.6,6.6,6.6h112.6v-35.1h40.8v98.1h-40.8v-28.5H33.9V455h161.8v-31.9h54.1v-55.6h81.1V264.7
				h20.4v-13.2h-20.4V138.1z M182.5,117.4H47.1V70.2h135.3V117.4z M182.5,441.8H47.1v-47.2h135.3V441.8z"/>
			<path id="XMLID_233_" d="M478.1,242.2l-44.5-6.5l-19.9-40.3l-19.9,40.3l-44.5,6.5l32.2,31.4l-7.6,44.3l39.8-20.9l39.8,20.9
				l-7.6-44.3L478.1,242.2z M413.7,282l-22.2,11.7l4.2-24.7l-18-17.5l24.8-3.6l11.1-22.5l11.1,22.5l24.8,3.6l-18,17.5l4.2,24.7
				L413.7,282z"/>
			<path id="XMLID_234_" d="M81,195.3h67.6v13.2H81L81,195.3z"/>
			<path id="XMLID_235_" d="M81,411.6h13.5v13.2H81V411.6z"/>
			<path id="XMLID_236_" d="M108,411.6h13.5v13.2H108V411.6z"/>
			<path id="XMLID_237_" d="M135.1,411.6h13.5v13.2h-13.5V411.6z"/>
			<path id="XMLID_238_" d="M81,303.4h67.6v13.2H81L81,303.4z"/>
		</g>
	</g>
</g>
</svg>
