<?xml version="1.0" encoding="utf-8"?>
<!-- Generator: Adobe Illustrator 24.3.0, SVG Export Plug-In . SVG Version: 6.00 Build 0)  -->
<svg version="1.1" id="Layer_1" xmlns:svgjs="http://svgjs.com/svgjs"
	 xmlns="http://www.w3.org/2000/svg" xmlns:xlink="http://www.w3.org/1999/xlink" x="0px" y="0px" viewBox="0 0 512 512"
	 style="enable-background:new 0 0 512 512;" xml:space="preserve">
<style type="text/css">
	.st0{fill:#09E5D0;}
	.st1{fill:#00DBFF;}
</style>
<g>
	<circle class="st0" cx="257.1" cy="145.3" r="88.5"/>
	<path class="st1" d="M436.5,454H69.6c-6.5,0-11.3-5.1-11.3-11.6v-57.1c0-58.4,46.8-106.1,105.2-106.1h179.1
		c58.4,0,105.1,47.7,105.1,106.1v57.1C447.7,448.9,443.1,454,436.5,454z"/>
	<path d="M257.1,245.5c55.3,0,100.3-45,100.3-100.3S312.4,45,257.1,45c-55.3,0-100.3,45-100.3,100.3S201.8,245.5,257.1,245.5z
		 M257.1,68.5c42.3,0,76.8,34.4,76.8,76.8S299.4,222,257.1,222s-76.8-34.4-76.8-76.8S214.7,68.5,257.1,68.5z"/>
	<path d="M69.6,466.2h100.2c6.5,0,11.8-5.4,11.8-11.9s-4.9-11.8-11.4-11.8l-16.9-0.1v-55c0-6.5-5.8-11.8-12.3-11.8
		c-6.5,0-12.3,5.3-12.3,11.8v55L69,442.4v-57.1c0-51.8,42.7-93.8,94.5-93.8h179.1c51.8,0,94,41.7,94,93.5l-0.1,56.7h-60.9v-54.3
		c0-6.5-5-11.8-11.5-11.8c-6.5,0-11.5,5.3-11.5,11.8v54.3H226.3c-6.5,0-11.8,5.8-11.8,12.3s5.3,12.3,11.8,12.3h210.3
		c13,0,23.4-10.9,23.4-23.9v-57.1c0-64.8-52.5-116.8-117.3-116.8H163.5c-64.8,0-117.5,52-117.5,116.8v57.1
		C46,455.4,56.6,466.2,69.6,466.2z"/>
</g>
</svg>
