<?xml version="1.0" encoding="utf-8"?>
<!-- Generator: Adobe Illustrator 24.3.0, SVG Export Plug-In . SVG Version: 6.00 Build 0)  -->
<svg version="1.1" id="Capa_1" xmlns="http://www.w3.org/2000/svg" xmlns:xlink="http://www.w3.org/1999/xlink" x="0px" y="0px"
	 viewBox="0 0 512 512" style="enable-background:new 0 0 512 512;" xml:space="preserve">
<style type="text/css">
	.st0{fill:#09E5D0;}
	.st1{fill:#05ABAF;}
</style>
<g>
	<g>
		<g>
			<path class="st0" d="M388.4,289.9c1.3,7.7,1.9,15.6,1.9,23.7c0,80.7-65.4,146.2-146.2,146.2S98,394.3,98,313.6
				c0-32.5,10.6-62.5,28.5-86.7l0,0L244.2,52.2l75.4,111.9"/>
		</g>
		<g>
			<path class="st1" d="M283.2,238c0-14.5,4.7-28,12.8-38.8l0,0l52.7-78.2l52.7,78.2l0,0c8,10.9,12.8,24.3,12.8,38.8
				c0,36.1-29.3,65.4-65.4,65.4S283.2,274.1,283.2,238L283.2,238z"/>
		</g>
	</g>
	<g>
		<path d="M209.4,409c-40.9-12.7-68.4-50.1-68.4-93c0-21,6.6-40.9,19-57.8c0.3-0.4,0.5-0.8,0.8-1.2c2.1-4.1,0.4-9.1-3.7-11.1
			c-3.7-1.9-8.2-0.7-10.5,2.6c-14.5,19.7-22.1,43-22.1,67.5c0,24.8,7.8,48.4,22.6,68.2c14.3,19.1,34.7,33.6,57.4,40.6
			c0.8,0.3,1.7,0.4,2.5,0.4c3.5,0,6.8-2.3,7.9-5.8C216.2,415,213.8,410.3,209.4,409L209.4,409z"/>
		<path d="M422.3,238c0-15.8-4.9-30.9-14.3-43.6l-52.6-78.1c-1.5-2.3-4.1-3.7-6.9-3.7c-2.8,0-5.3,1.4-6.9,3.7l-22.2,32.9L251,47.6
			c-1.5-2.3-4.1-3.7-6.9-3.7s-5.3,1.4-6.9,3.7L119.7,222.1c-19.6,26.7-30,58.3-30,91.5c0,85.2,69.3,154.5,154.5,154.5
			s154.5-69.3,154.5-154.5c0-6.8-0.5-13.6-1.3-20.3C412.6,279.8,422.3,260,422.3,238z M348.6,135.9l45.7,67.8
			c0.1,0.1,0.2,0.3,0.3,0.4c7.3,9.9,11.1,21.6,11.1,33.9c0,31.5-25.6,57.1-57.1,57.1c-31.5,0-57.1-25.6-57.1-57.1
			c0-12.3,3.8-24,11.1-33.9c0.1-0.1,0.2-0.3,0.3-0.4l23.5-34.9c0-0.1,0.1-0.1,0.1-0.2L348.6,135.9z M382,313.6
			c0,76-61.8,137.9-137.9,137.9c-76,0-137.9-61.8-137.9-137.9c0-29.7,9.3-58,26.9-81.8c0.1-0.1,0.2-0.3,0.3-0.4L244.2,67.1
			l65.4,97.1l-20.4,30.3c-9.3,12.7-14.3,27.8-14.3,43.6c0,40.7,33.1,73.7,73.7,73.7c11.9,0,23.1-2.8,33.1-7.8
			C381.9,307.1,382,310.4,382,313.6L382,313.6z"/>
		<path d="M319.3,236c0-4,0.8-7.9,2.4-11.5c1.9-4.2,0-9.1-4.2-11c-4.2-1.9-9.1,0-11,4.2c-2.6,5.8-3.9,11.9-3.9,18.3
			c0,15.1,7.5,29.1,20,37.5c1.4,0.9,3,1.4,4.6,1.4c2.7,0,5.3-1.3,6.9-3.7c2.6-3.8,1.5-9-2.3-11.5C324,254.3,319.3,245.5,319.3,236
			L319.3,236z"/>
		<path d="M240.2,420.5c-2-5.3-9.6-6.9-13.5-2.7c-4.7,4.5-2.2,12.9,4.3,14C237.3,433.2,242.8,426.4,240.2,420.5z"/>
		<path d="M344.2,281c5.4,3.7,13-0.4,12.9-6.9c0.1-6.5-7.6-10.6-12.9-6.9C339.4,270.3,339.4,278,344.2,281z"/>
	</g>
</g>
</svg>
