<?xml version="1.0" encoding="utf-8"?>
<!-- Generator: Adobe Illustrator 24.3.0, SVG Export Plug-In . SVG Version: 6.00 Build 0)  -->
<svg version="1.1" id="Capa_1" xmlns="http://www.w3.org/2000/svg" xmlns:xlink="http://www.w3.org/1999/xlink" x="0px" y="0px"
	 viewBox="0 0 512 512" style="enable-background:new 0 0 512 512;" xml:space="preserve">
<style type="text/css">
	.st0{fill:#05ABAF;}
	.st1{fill:#D2E4FF;}
	.st2{fill:#B6D7FF;}
	.st3{fill:#FFECE3;}
	.st4{fill:#FFDDCE;}
	.st5{fill:#09E5D0;}
	.st6{fill:#AA8080;}
	.st7{fill:#9D6B6B;}
	.st8{fill:#FB636F;}
	.st9{fill:#FC8086;}
</style>
<g>
	<g>
		<g>
			<g>
				<g>
					<circle class="st0" cx="346" cy="165" r="108"/>
					<circle class="st1" cx="346" cy="165" r="83.4"/>
					<path class="st2" d="M345.6,81.6c-8.4,0-16.5,1.3-24.1,3.7c34,10.4,58.7,42,58.9,79.4c0.2,37.7-24.7,69.6-58.9,80.1
						c7.9,2.4,16.2,3.7,24.8,3.7c46-0.2,83.2-37.7,83-83.7C429.2,118.6,391.7,81.5,345.6,81.6L345.6,81.6z"/>
					<circle class="st2" cx="346" cy="165" r="12.2"/>
				</g>
				<g>
					<g>
						<g>
							<g>
								<g>
									<g>
										<g>
											<g>
												<g>
													<g>
														<g>
															<g>
																<path class="st3" d="M247.9,307c-5.4-0.7-9.4-5.2-9.4-10.6l-0.2-49.1l-75,0.3l0.2,49.1c0,5.4-4,10-9.3,10.7
																	c0,0-13.8,47.3,47,47.1C262.1,354.2,247.9,307,247.9,307L247.9,307z"/>
																<path class="st4" d="M189.3,317.1c0,5.4,4,9.9,9.4,10.6c11.1,1.4,30,4.1,46.3,8.2c7.6-13.3,2.9-28.9,2.9-28.9
																	c-5.4-0.7-9.4-5.2-9.4-10.6l-0.2-49.1l-49.1,0.2L189.3,317.1z"/>
																<path class="st3" d="M271.6,178.7l-4.5,0l-0.1-18.1c-0.1-18-7.5-35.4-21.2-47c-10.7-9.1-25.8-17.1-45.6-17.2
																	c-19.8,0.3-34.8,8.4-45.4,17.6c-13.6,11.8-20.9,29.2-20.8,47.2L134,174l0,5.3l-4.5,0c-6.6,0-12,5.4-12,12.1
																	l0.1,13.3c0,6.6,5.4,12,12.1,12l4.6,0c0.4,17.5,7.9,34.3,21.2,45.6c10.7,9.1,25.8,17.1,45.6,17.2
																	c19.8-0.3,34.8-8.4,45.4-17.6c13.2-11.5,20.5-28.3,20.8-45.8l4.6,0c6.6,0,12-5.4,12-12.1l-0.1-13.3
																	C283.6,184.1,278.2,178.7,271.6,178.7L271.6,178.7z"/>
																<path class="st4" d="M283.7,190.7c0-6.6-5.4-12-12.1-12l-4.5,0l-0.1-18.1c-0.1-18-7.5-35.4-21.2-47
																	c-7.3-6.2-16.6-11.9-28-14.9l0.2,117.4c-0.3,17.5-7.6,34.3-20.8,45.8c-5.7,5-12.8,9.6-21.1,12.9
																	c7.3,2.9,15.6,4.7,24.9,4.7c19.8-0.3,34.8-8.4,45.4-17.6c13.2-11.5,20.5-28.3,20.8-45.8l4.6,0c6.6,0,12-5.4,12-12.1
																	L283.7,190.7z"/>
																<path class="st5" d="M319.6,455c14-0.1,25.4-12.5,25.3-26.5l-0.3-59.5c-0.1-20.6-12.3-39.2-31.2-47.6
																	c-17.2-7.6-49.6-12.3-65.6-14.3l-46.7,29.5l-47-29.1c-15.9,2.1-48.3,7.2-65.4,14.9C70,330.8,57.9,349.5,58,370.1
																	l0.3,59.5c0.1,14,11.5,25.4,25.5,25.3L319.6,455z"/>
																<g>
																	<path class="st0" d="M344.6,368.9c-0.1-20.6-12.3-39.2-31.2-47.6c-17.2-7.6-49.6-12.3-65.6-14.3l-35.8,22.6
																		c16.8,2.5,39,6.7,52.1,12.5c18.9,8.3,31.1,26.9,31.2,47.6l0.3,59.5c0,2-0.2,3.9-0.6,5.8h24.5
																		c14-0.1,25.4-12.5,25.3-26.5L344.6,368.9z"/>
																</g>
															</g>
														</g>
													</g>
												</g>
											</g>
										</g>
										<path class="st6" d="M226.1,92.3l-52.3,0.2c-9.5,0-17.6,6.2-20.6,14.7c-1.1,3.2-4.1,5.3-7.5,5.3
											c-12.2,0.1-22,10-21.9,22.1l0.2,45.9c0,0,19.3-0.3,25.9,6.1c1.4,1.4,3.7,0.4,3.7-1.5l-0.1-30.2c0-10.5,8.4-19,18.9-19.1
											l0.2,0c3.1,0,6.3,0.5,9.2,1.4c5.7,1.8,11.5,2.8,17.4,2.8l2.3,0c5.9,0,11.8-1.1,17.4-2.9c3-0.9,6.1-1.4,9.2-1.5l0.2,0
											c10.5,0,19,8.4,19.1,18.9l0.1,30.2c0,1.9,11.5,2.8,12.9,1.5c6.5-6.5,16.7-6.3,16.7-6.3l-0.2-37.2
											C276.9,114.8,254.1,92.2,226.1,92.3L226.1,92.3z"/>
										<path class="st7" d="M277,142.8c-0.1-28-22.9-50.6-50.9-50.5l-8.3,0l0.1,45.2c0.4-0.1,0.8-0.2,1.1-0.3
											c3-0.9,6.1-1.4,9.2-1.5l0.2,0c10.5,0,19,8.4,19.1,18.9l0.1,30.2c0,1.9,11.5,2.8,12.9,1.5c6.5-6.5,16.7-6.3,16.7-6.3
											L277,142.8z"/>
									</g>
									<path class="st0" d="M139.8,328l27,23c3.9,3.3,9.5,3.5,13.7,0.5l20.7-15.1l-47-29.1c-2.6,0.3-5.6,0.8-8.9,1.3
										C135.9,310.1,132.5,321.9,139.8,328L139.8,328z"/>
									<path class="st0" d="M262.5,327.5l-26.8,23.2c-3.9,3.3-9.5,3.6-13.7,0.6l-20.9-14.9l46.7-29.5c2.6,0.3,5.6,0.7,8.9,1.2
										C266.2,309.5,269.7,321.3,262.5,327.5L262.5,327.5z"/>
									<path class="st8" d="M201.2,336.5l-20.7,15.1l9.9,13.8l21.9-0.1l9.8-13.9L201.2,336.5z"/>
								</g>
								<path class="st9" d="M224.8,455l-12.5-89.8l-21.9,0.1L178.6,455H224.8z"/>
							</g>
						</g>
					</g>
				</g>
			</g>
		</g>
	</g>
	<g>
		<g>
			<g>
				<path d="M382.3,171l-18.2-6.1c-0.1-7.9-5.2-14.5-12.2-17l-0.2-43.1c0-3.3-2.7-6-6-6c0,0,0,0,0,0c-3.3,0-6,2.7-6,6l0.2,43.1
					c-7.1,2.5-12.1,9.2-12.1,17.2c0,9.9,8.1,18.1,18.2,18.1h0.1c5.8,0,10.9-2.8,14.2-7l18.2,6.1c3.1,1.1,6.5-0.6,7.6-3.8
					C387.1,175.4,385.4,172,382.3,171z M346,171.2c-3.4,0-6.2-2.7-6.2-6.2c0-3.4,2.7-6.2,6.2-6.2h0c3.4,0,6.2,2.8,6.2,6.2
					C352.2,168.4,349.4,171.2,346,171.2L346,171.2z"/>
				<path d="M265.9,246.2c21.3,21,49.9,32.8,80,32.8c0.2,0,0.3,0,0.5,0c63-0.3,113.8-51.5,113.5-114.5
					C459.7,101.7,408.8,50.8,345.5,51c-35,0.1-67.9,16.4-89.4,43.9c-8.7-5.4-18.9-8.5-29.8-8.5c-0.1,0-0.2,0-0.2,0l-52.3,0.2
					c-11.8,0-22.4,7.6-26.2,18.8c-0.3,0.8-1,1.3-1.9,1.3c-15.5,0.1-28,12.7-27.9,28.1l0.2,42.8c-4.1,3.4-6.5,8.4-6.4,13.9l0.1,13.3
					c0,4.8,1.9,9.3,5.3,12.7c3.2,3.1,7.3,5,11.7,5.2c2,18.8,11.1,36.3,28.9,48.8l0.1,25.2c0,2.4-1.8,4.4-4.1,4.7c0,0,0,0,0,0
					c-17.5,2.4-49.6,7.5-67.1,15.4c-20.9,9.4-34.4,30.3-34.3,53.3l0.1,14.2c0,3.3,2.7,6,6,6h0c3.3,0,6-2.7,6-6L64,370.1
					c-0.1-18.2,10.6-34.8,27.2-42.3c9.7-4.4,25-7.9,38.8-10.5c-0.8,5.7,1.3,11.4,5.8,15.3l27,23c3.2,2.7,7.1,4.1,11,4.1
					c1.5,0,3-0.2,4.5-0.6l5.6,7.9L173.3,449h-62.2l-0.1-32.8c0-3.3-2.7-6-6-6c0,0,0,0,0,0c-3.3,0-6,2.7-6,6l0.1,32.7H83.8
					c0,0-0.1,0-0.1,0c-10.7,0-19.4-8.7-19.5-19.4l-0.1-17.3c0-3.3-2.7-6-6-6c0,0,0,0,0,0c-3.3,0-6,2.7-6,6l0.1,17.3
					c0,8.4,3.3,16.3,9.3,22.2c5.9,5.9,13.8,9.1,22.1,9.1h0.1h235.8c17-0.1,31.4-15,31.3-32.6l-0.3-59.6c-0.1-23-13.7-43.8-34.7-53
					c-17.6-7.8-49.7-12.6-67.2-14.8c0,0,0,0,0,0c-2.4-0.3-4.1-2.3-4.2-4.7l-0.1-25.2C253.3,264.7,260.5,257.1,265.9,246.2
					L265.9,246.2z M345.5,63c0.1,0,0.3,0,0.4,0c55.4,0,101.8,44.7,102,101.6c0.2,56.4-45.2,102.2-101.6,102.5c-0.1,0-0.3,0-0.4,0
					c-28.7,0-56-12.1-75.3-33.2c1-3.8,1.8-7.7,2.2-11.7c1.3-0.1,2.6-0.3,3.8-0.7c16.9,20.7,42.5,33,69.3,33c0.1,0,0.2,0,0.4,0
					c43.1-0.2,79.9-31,87.6-73.3c0.6-3.3-1.6-6.4-4.8-7c-3.3-0.6-6.4,1.6-7,4.8c-6.6,36.6-38.5,63.3-75.8,63.5c-0.1,0-0.2,0-0.3,0
					c-23,0-44.9-10.4-59.5-28c2.1-3,3.3-6.6,3.3-10.4l-0.1-13.3c0-5.4-2.5-10.5-6.5-13.8l-0.1-34.1c0-6.3-1.1-12.4-3.1-18.1
					c14-22.8,38.9-37,65.7-37.1c38.2-0.1,70.8,27.6,76.8,65.2c0.5,3.3,3.6,5.5,6.9,5c3.3-0.5,5.5-3.6,5-6.9
					c-6.9-43.4-44.6-75.5-88.7-75.3c-28.5,0.1-55.1,13.9-71.8,36.6c-2.4-3.7-5.2-7-8.3-10C284.8,77.7,314.3,63.1,345.5,63L345.5,63z
					 M145.7,118.6c6,0,11.2-3.8,13.2-9.4c2.2-6.4,8.2-10.7,14.9-10.7l52.3-0.2h0.2c24.6,0,44.6,19.9,44.7,44.5l0.1,31.8
					c-4,0.8-9.3,2.5-13.7,6.3c-1,0.1-2.5,0-3.9-0.2l-0.1-26.2c-0.1-13.7-11.3-24.9-25-24.9c0,0-0.1,0-0.1,0l-0.2,0
					c-3.7,0-7.4,0.6-11,1.7c-11,3.5-22.6,3.6-33.6,0.1c-3.6-1.1-7.3-1.6-11-1.7l-0.2,0c-13.8,0.1-24.9,11.3-24.9,25.1l0.1,23.3
					c-5.7-2.4-12.6-3.3-17.6-3.6l-0.2-40.1C129.7,125.9,136.8,118.7,145.7,118.6z M170.7,346.5l-27-23c-2.3-2-1.8-4.5-1.6-5.3
					c0.2-0.7,1.1-3.1,4.1-3.6c2.5-0.4,4.8-0.7,6.8-1l37.6,23.3l-13.5,9.8c0,0,0,0,0,0s0,0,0,0l0,0C175,348.1,172.4,348,170.7,346.5z
					 M249.3,313.2c2,0.3,4.3,0.6,6.8,0.9c2.9,0.5,3.9,2.9,4.1,3.6c0.2,0.7,0.7,3.3-1.5,5.3l-26.8,23.2c-1.8,1.5-4.4,1.7-6.3,0.3l0,0
					l0,0c0,0,0,0,0,0l-13.6-9.7L249.3,313.2z M209.1,359.3l-15.7,0.1l-4.6-6.4l12.4-9l12.5,8.9L209.1,359.3z M195.6,371.3l11.5,0
					l10.9,77.8h-32.5L195.6,371.3z M338.7,368.9l0.3,59.6c0,11.1-8.8,20.5-19.3,20.5h-15.4l-0.1-33.6c0-3.3-2.7-6-6-6c0,0,0,0,0,0
					c-3.3,0-6,2.7-6,6l0.1,33.5H230l-11.5-82.3l5.6-7.9c1.4,0.4,2.9,0.6,4.4,0.6c4,0,8-1.4,11.2-4.2l26.8-23.2
					c4.5-3.9,6.6-9.6,5.7-15.3c13.8,2.4,29.1,5.8,38.9,10.1C327.8,334.2,338.6,350.7,338.7,368.9L338.7,368.9z M232.5,296.4
					c0,4,1.5,7.8,4,10.7l-35.3,22.3l-35.5-22c2.4-2.9,3.9-6.7,3.9-10.7l-0.1-18.1c9.8,4.6,20.3,6.9,31.5,7h0c0,0,0.1,0,0.1,0
					c11.2-0.2,21.7-2.6,31.4-7.3L232.5,296.4z M200.9,273.6c-30.8-0.2-59.9-22.7-60.8-57c-0.1-3.2-2.7-5.8-6-5.8c0,0,0,0,0,0l-4.6,0
					c-1.6,0-3.1-0.6-4.3-1.8c-1.1-1.1-1.8-2.7-1.8-4.3l-0.1-13.3c0-1.8,0.8-3.6,2.2-4.7c6.9,0.1,16.9,1.5,19.9,4.4
					c5.1,5,13.9,1.4,13.9-5.9l-0.1-30.2c0-7.1,5.7-13,13-13.1l0.2,0c2.5,0,5,0.4,7.4,1.1c13.4,4.2,27.5,4.1,40.8-0.2
					c2.4-0.8,4.9-1.2,7.4-1.2l0.2,0h0.1c7.1,0,13,5.8,13,12.9l0.1,30.2c0,1.4,0.5,4.7,4.8,6.5c2.1,0.9,14,3.5,18.3-0.8
					c3.3-3.3,8.3-4.2,10.8-4.5c1.3,1.1,2.2,2.8,2.2,4.6l0.1,13.3c0,1.6-0.6,3.1-1.8,4.3c-1.1,1.1-2.7,1.8-4.3,1.8l-4.6,0
					c-3.3,0-5.9,2.6-6,5.9C260.6,250.3,231.8,273.1,200.9,273.6L200.9,273.6z"/>
			</g>
		</g>
	</g>
</g>
</svg>
